{"glyphs":{"0":{"ha":764,"x_min":83,"x_max":681,"o":"m 357 -18 q 224 12 288 -18 q 122 106 161 42 q 83 272 83 171 q 124 454 83 374 q 238 582 165 535 q 407 629 311 629 q 540 599 478 629 q 642 506 603 569 q 681 340 681 442 q 640 158 681 239 q 526 29 599 76 q 357 -18 454 -18 m 385 122 q 519 172 463 124 q 576 308 576 221 q 548 408 576 368 q 474 470 519 449 q 378 490 429 492 q 246 439 301 489 q 189 306 190 389 q 217 203 189 244 q 290 142 244 163 q 385 122 335 122 z "},"1":{"ha":485,"x_min":26,"x_max":411,"o":"m 279 -12 q 213 12 236 -12 q 188 106 189 36 q 201 253 186 165 q 243 451 217 342 q 169 401 210 425 q 99 378 129 378 q 45 406 64 378 q 26 469 26 435 q 38 510 26 499 q 64 522 50 521 q 200 557 146 529 q 303 621 254 585 q 335 633 319 633 q 365 624 350 633 q 381 604 381 615 q 377 585 381 599 q 368 551 374 571 q 340 427 354 506 q 326 247 326 349 q 340 155 326 185 q 389 110 353 125 q 406 101 400 106 q 411 85 411 96 q 399 50 411 74 q 359 7 388 26 q 279 -12 331 -12 z "},"2":{"ha":610,"x_min":19,"x_max":557,"o":"m 275 -12 q 119 -2 182 -12 q 36 39 56 8 q 25 64 31 47 q 19 94 19 81 q 57 151 19 138 q 178 215 119 182 q 285 292 236 249 q 369 421 369 365 q 347 465 369 449 q 283 482 325 482 q 215 474 251 482 q 150 450 178 465 q 120 434 133 440 q 96 428 107 428 q 68 446 78 428 q 58 485 58 464 q 72 531 58 508 q 119 576 85 554 q 205 615 156 600 q 310 629 254 629 q 452 587 397 629 q 507 471 507 544 q 486 380 507 424 q 433 300 465 336 q 322 201 386 244 q 199 131 258 158 q 257 128 222 129 q 313 128 292 128 q 429 142 394 128 q 482 176 464 157 q 510 194 499 194 q 541 173 525 194 q 557 114 557 151 q 487 15 557 42 q 275 -12 417 -12 z "},"3":{"ha":601,"x_min":-21,"x_max":532,"o":"m 193 -299 q 42 -259 104 -299 q -21 -146 -21 -219 q 4 -72 -21 -93 q 49 -50 29 -50 q 69 -58 60 -50 q 89 -81 78 -65 q 149 -127 107 -103 q 258 -151 190 -151 q 378 -119 332 -151 q 425 -29 425 -87 q 399 43 425 17 q 342 83 374 69 q 242 107 297 100 q 222 113 231 108 q 207 135 214 118 q 194 190 194 163 q 203 215 194 206 q 225 232 211 225 q 288 265 253 244 q 349 315 324 285 q 375 390 375 346 q 340 462 375 442 q 260 482 304 482 q 179 467 215 482 q 124 442 143 453 q 86 425 99 425 q 58 446 67 425 q 50 485 50 467 q 63 531 50 508 q 108 575 76 554 q 202 618 153 607 q 296 629 251 629 q 456 578 399 629 q 513 446 513 528 q 474 317 513 376 q 381 224 435 257 q 492 151 453 204 q 532 17 532 99 q 487 -145 532 -74 q 365 -258 442 -217 q 193 -299 289 -299 z "},"4":{"ha":683,"x_min":14,"x_max":635,"o":"m 432 -296 q 371 -274 393 -296 q 347 -192 349 -251 q 351 -110 347 -160 q 364 -15 356 -61 l 115 -15 q 40 13 65 -15 q 14 78 14 42 q 22 124 14 100 q 44 174 31 147 q 147 331 85 254 q 275 474 208 408 q 396 581 342 539 q 456 619 431 606 q 503 633 481 633 q 541 611 532 633 q 550 550 550 589 q 540 407 550 490 q 517 242 529 324 q 511 193 514 218 q 506 140 508 168 q 545 142 524 142 q 593 143 567 143 q 622 137 608 143 q 635 108 635 131 q 623 58 635 86 q 592 8 611 29 q 553 -14 574 -14 l 482 -14 l 482 -44 q 492 -122 482 -86 q 535 -174 501 -158 q 554 -199 554 -182 q 543 -234 554 -211 q 506 -276 532 -257 q 432 -296 479 -296 m 194 128 l 385 138 q 394 202 389 163 q 406 283 400 242 q 415 358 411 324 q 418 407 418 392 q 406 429 418 429 q 374 415 394 429 q 264 322 324 379 q 158 183 204 265 q 150 158 150 171 q 163 135 150 143 q 194 128 175 126 z "},"5":{"ha":628,"x_min":42,"x_max":567,"o":"m 240 -294 q 142 -278 188 -294 q 69 -227 96 -261 q 42 -142 42 -193 q 66 -67 42 -89 q 108 -46 90 -46 q 147 -75 125 -46 q 216 -127 175 -110 q 301 -144 257 -144 q 413 -108 375 -144 q 453 -15 451 -71 q 413 94 454 46 q 310 169 372 142 q 183 197 247 197 q 146 194 160 197 q 121 192 132 192 q 89 201 103 192 q 75 226 75 211 q 79 250 75 236 q 91 349 83 272 q 99 581 99 426 q 106 613 99 600 q 132 625 114 625 q 144 624 136 625 q 160 622 153 624 q 228 617 185 619 q 319 614 271 614 q 420 620 385 614 q 472 635 456 626 q 494 653 488 644 q 518 669 510 669 q 548 649 533 669 q 563 585 563 628 q 510 492 563 513 q 364 472 458 472 q 278 475 321 472 q 211 481 236 478 l 190 339 q 329 323 260 340 q 450 269 399 306 q 539 165 511 226 q 567 39 567 104 q 524 -126 567 -50 q 407 -249 481 -203 q 240 -294 333 -294 z "},"6":{"ha":699,"x_min":74,"x_max":615,"o":"m 319 -18 q 183 23 236 -18 q 104 136 129 64 q 76 301 79 208 q 111 537 74 428 q 217 729 149 646 q 371 858 285 813 q 457 892 411 879 q 539 904 503 906 q 581 890 569 903 q 592 851 592 876 q 584 802 592 828 q 563 759 576 776 q 532 742 550 742 q 513 744 521 742 q 500 747 507 746 q 482 747 493 747 q 317 687 392 747 q 210 519 242 626 q 293 567 250 553 q 383 582 336 582 q 551 513 489 582 q 614 319 613 443 q 578 151 615 228 q 475 28 542 74 q 319 -18 408 -18 m 357 126 q 469 170 426 126 q 511 283 513 214 q 463 398 510 357 q 346 439 415 439 q 262 422 301 439 q 188 375 222 406 q 199 254 182 311 q 257 162 217 197 q 357 126 297 126 z "},"7":{"ha":633,"x_min":24,"x_max":601,"o":"m 199 -294 q 138 -273 158 -294 q 117 -203 117 -251 q 133 -81 117 -143 q 178 44 150 -19 q 299 270 226 153 q 449 485 371 388 q 345 473 401 478 q 234 466 289 468 q 138 464 179 464 q 86 466 107 464 q 50 475 65 468 q 24 533 24 488 q 38 607 24 575 q 75 639 53 639 q 86 638 79 639 q 108 632 93 636 q 218 614 164 618 q 336 610 272 610 q 443 614 396 610 q 519 621 490 618 q 557 625 549 625 q 589 605 576 625 q 601 569 601 585 q 590 536 601 553 q 433 292 506 415 q 322 74 361 169 q 297 -7 306 31 q 288 -76 288 -44 q 296 -125 288 -107 q 314 -158 304 -143 q 326 -181 321 -171 q 332 -203 332 -192 q 315 -242 332 -221 q 269 -279 299 -264 q 199 -294 239 -294 z "},"8":{"ha":679,"x_min":58,"x_max":610,"o":"m 300 -18 q 159 14 213 -18 q 82 97 106 46 q 58 204 58 147 q 82 315 58 267 q 141 397 106 363 q 213 451 176 431 q 143 517 172 474 q 114 625 114 561 q 120 678 114 656 q 136 717 126 700 q 128 714 133 715 q 119 713 124 713 q 99 734 106 713 q 93 772 93 756 q 106 815 93 799 q 131 840 118 831 q 219 886 158 860 q 361 913 279 913 q 538 854 472 913 q 604 700 604 796 q 567 565 604 625 q 474 467 531 504 q 568 388 526 440 q 610 254 610 336 q 569 115 610 176 q 458 17 528 53 q 300 -18 389 -18 m 386 515 q 457 570 431 540 q 483 650 483 600 q 446 742 483 710 q 347 775 408 775 q 295 769 319 775 q 250 753 271 763 q 231 685 231 722 q 278 585 231 625 q 386 515 326 544 m 361 117 q 460 142 417 117 q 503 221 503 168 q 478 290 503 260 q 410 346 453 321 q 351 376 383 363 q 286 401 319 390 q 217 340 243 376 q 190 257 190 304 q 215 178 190 210 q 280 132 240 147 q 361 117 319 117 z "},"9":{"ha":699,"x_min":69,"x_max":611,"o":"m 146 -293 q 103 -279 115 -292 q 92 -243 92 -267 q 99 -192 92 -218 q 120 -148 107 -165 q 150 -131 133 -131 q 159 -131 154 -131 q 169 -133 164 -132 q 183 -135 176 -135 q 200 -136 189 -136 q 371 -75 293 -136 q 481 96 449 -14 q 398 45 440 61 q 307 29 356 29 q 138 99 201 29 q 71 288 74 168 q 105 460 69 383 q 206 583 140 538 q 358 629 271 629 q 497 587 443 629 q 579 472 551 544 q 608 307 607 400 q 573 73 611 182 q 467 -119 535 -36 q 314 -249 400 -201 q 228 -282 274 -269 q 146 -293 182 -294 m 339 172 q 422 189 383 172 q 496 236 461 206 q 487 356 504 300 q 429 448 469 413 q 326 483 389 483 q 215 438 258 483 q 174 324 172 392 q 223 213 175 253 q 339 172 271 172 z "},"అ":{"ha":1021,"x_min":28,"x_max":1000,"o":"m 64 -149 q 39 -128 50 -149 q 28 -90 28 -108 q 33 -75 28 -79 q 118 -19 86 -39 q 190 25 150 0 q 92 113 129 57 q 54 254 54 169 q 85 397 54 328 q 165 519 117 465 q 266 606 214 574 q 360 638 318 638 q 383 632 378 638 q 389 617 389 626 q 378 574 389 601 q 349 519 367 547 q 308 472 331 492 q 264 449 286 451 q 223 439 247 447 q 179 405 199 431 q 160 322 160 379 q 208 203 160 249 q 332 136 257 157 q 415 186 372 156 q 492 240 457 217 q 419 290 442 251 q 396 375 396 328 q 421 489 396 428 q 492 603 446 550 q 601 691 538 657 q 742 725 664 725 q 871 694 813 725 q 965 606 929 663 q 1000 469 1000 549 q 963 305 1000 381 q 863 170 926 229 q 720 69 800 111 q 553 6 640 28 q 385 -17 467 -17 q 330 -14 357 -17 q 276 -6 303 -11 q 179 -74 225 -42 q 82 -140 133 -106 q 64 -149 72 -149 m 482 118 q 621 135 553 118 q 744 188 689 153 q 833 274 800 222 q 865 397 865 326 q 840 496 865 453 q 773 565 815 539 q 676 590 731 590 q 584 566 622 590 q 526 506 546 542 q 506 436 506 471 q 529 373 506 400 q 603 346 553 346 q 631 349 619 346 q 649 356 642 351 q 669 368 661 363 q 686 374 676 374 q 706 367 697 374 q 715 350 715 360 q 704 328 715 339 q 588 229 657 281 q 432 119 519 178 q 457 118 444 118 q 482 118 469 118 z "},"ఆ":{"ha":933,"x_min":-75,"x_max":919,"o":"m -40 -137 q -65 -116 -54 -137 q -75 -76 -75 -94 q -69 -61 -75 -65 q 39 8 -19 -26 q 146 74 97 43 q 94 149 113 106 q 75 251 75 193 q 107 399 75 329 q 188 522 139 468 q 288 607 236 576 q 381 638 340 638 q 404 632 399 638 q 410 618 410 626 q 399 576 410 603 q 372 522 389 550 q 333 474 354 494 q 288 450 311 454 q 245 439 269 447 q 202 406 221 431 q 183 331 183 382 q 213 231 183 271 q 286 165 242 190 q 438 260 356 210 q 601 365 519 311 q 553 417 574 388 q 532 493 532 447 q 567 606 532 551 q 662 694 603 660 q 789 728 721 728 q 885 698 851 728 q 919 621 919 668 q 886 517 919 576 q 783 403 853 458 q 835 353 814 381 q 857 286 857 325 q 828 192 857 244 q 744 92 800 140 q 606 13 688 44 q 419 -18 525 -18 q 310 -7 364 -18 q 211 26 256 4 q 92 -53 156 -11 q -17 -126 28 -96 q -29 -134 -22 -131 q -40 -137 -36 -137 m 729 440 q 777 497 763 467 q 792 556 792 528 q 774 610 792 588 q 724 632 756 632 q 669 610 693 632 q 644 551 644 588 q 670 490 644 515 q 729 440 696 464 m 494 117 q 614 132 560 117 q 701 174 668 147 q 735 239 735 201 q 715 288 735 268 q 667 324 694 307 q 521 228 594 276 q 374 131 447 179 q 435 120 404 124 q 494 117 465 117 z "},"ఇ":{"ha":893,"x_min":35,"x_max":831,"o":"m 714 -18 q 699 -13 703 -18 q 694 -3 696 -8 q 665 83 685 46 q 621 147 644 119 q 505 60 571 96 q 369 4 439 24 q 239 -15 300 -15 q 113 17 163 -15 q 63 110 63 49 q 108 222 63 167 q 238 313 154 276 q 431 349 321 349 q 520 342 475 349 q 607 322 565 335 q 644 400 631 361 q 658 468 658 439 q 634 531 658 510 q 574 553 610 553 q 503 528 533 553 q 449 472 472 504 q 406 417 425 440 q 368 392 385 392 q 339 403 347 392 q 326 428 331 414 q 313 464 322 444 q 285 497 304 483 q 226 511 265 511 q 158 489 181 511 q 103 422 135 467 q 79 413 96 413 q 50 424 65 413 q 35 453 35 435 q 55 506 35 474 q 109 570 75 538 q 188 625 143 603 q 283 647 233 647 q 362 630 324 647 q 428 575 400 613 q 536 666 476 636 q 647 696 596 696 q 744 658 704 696 q 785 542 785 619 q 759 418 785 483 q 689 290 733 353 q 791 212 751 258 q 831 108 831 165 q 790 18 831 54 q 751 -7 774 4 q 714 -18 729 -18 m 292 108 q 380 120 332 108 q 475 154 428 132 q 558 204 522 176 q 462 249 511 236 q 371 261 413 261 q 247 233 299 261 q 194 165 194 206 q 222 124 194 139 q 292 108 249 108 z "},"ఈ":{"ha":1235,"x_min":42,"x_max":1228,"o":"m 308 -18 q 190 9 235 -18 q 126 82 146 36 q 106 182 106 128 q 110 235 106 208 q 86 231 106 235 q 56 228 67 228 q 42 239 42 228 q 53 279 42 253 q 92 322 68 314 q 111 327 100 326 q 138 328 122 328 q 242 469 175 413 q 172 443 200 456 q 132 431 144 431 q 111 449 118 431 q 104 486 104 468 q 124 574 104 524 q 175 678 143 625 q 246 779 207 732 q 324 858 285 826 q 443 933 383 907 q 536 958 503 958 q 565 949 557 958 q 572 925 572 940 q 561 876 572 904 q 538 826 550 849 q 518 797 525 804 q 480 785 507 786 q 413 773 453 785 q 322 718 372 761 q 257 649 285 686 q 210 575 229 611 q 339 622 267 603 q 479 642 411 642 q 602 619 546 642 q 693 547 658 596 q 728 417 728 497 q 724 364 728 392 q 822 368 789 367 q 871 371 856 369 q 880 406 876 388 q 883 443 883 425 q 870 509 883 475 q 824 575 857 543 q 812 588 818 582 q 806 608 806 594 q 822 659 806 632 q 861 706 838 686 q 910 726 885 726 q 970 685 947 726 q 993 575 993 644 q 984 485 993 535 q 953 381 975 436 q 995 383 975 382 q 1035 383 1015 383 q 1135 372 1092 383 q 1203 331 1178 361 q 1228 244 1228 301 q 1203 150 1228 197 q 1138 65 1179 103 q 1048 5 1097 28 q 949 -18 999 -18 q 831 22 868 -18 q 794 122 794 63 q 839 275 794 194 l 700 274 q 613 129 671 196 q 476 22 554 63 q 308 -18 399 -18 m 242 331 q 413 339 317 333 q 607 353 508 344 q 540 464 600 432 q 399 496 481 496 q 383 496 392 496 q 368 494 375 496 q 242 331 274 419 m 1006 104 q 1071 125 1042 104 q 1100 186 1100 146 q 1045 257 1100 239 q 914 272 990 275 q 901 233 904 253 q 897 197 897 214 q 933 127 897 150 q 1006 104 968 104 m 365 125 q 455 140 407 125 q 542 187 503 154 q 599 271 582 219 q 422 260 489 264 q 317 253 354 256 q 260 249 279 250 q 228 246 240 247 q 265 159 231 193 q 365 125 299 125 z "},"ఉ":{"ha":958,"x_min":35,"x_max":931,"o":"m 600 815 q 582 838 585 815 q 572 917 578 871 q 563 1002 567 963 q 560 1053 560 1042 q 576 1096 560 1076 q 613 1126 592 1115 q 649 1138 635 1138 q 692 1109 672 1138 q 713 1049 713 1081 q 701 985 713 1024 q 672 907 689 946 q 635 842 654 868 q 600 815 615 815 m 183 -69 q 101 -39 128 -69 q 75 47 75 -8 q 111 242 75 140 q 208 440 147 343 q 105 427 149 433 q 46 421 61 421 q 35 431 35 421 q 42 462 35 439 q 67 510 50 485 q 111 544 83 535 q 169 550 118 547 q 293 556 221 553 q 450 703 367 643 q 617 795 533 764 q 774 826 701 826 q 853 806 831 826 q 876 757 876 785 q 860 707 876 732 q 819 665 843 682 q 771 647 794 647 q 754 657 761 647 q 732 675 747 667 q 700 688 719 682 q 660 693 681 693 q 538 656 600 693 q 418 560 475 619 q 561 565 490 563 q 688 568 632 567 q 699 563 693 568 q 704 551 704 558 q 689 515 704 539 q 651 470 674 490 q 606 450 629 450 q 564 452 596 450 q 476 454 532 454 q 331 450 417 454 q 251 299 282 378 q 215 153 219 221 q 228 97 214 118 q 274 75 242 75 q 328 94 297 75 q 392 144 360 113 q 449 211 424 175 q 492 240 469 240 q 515 218 508 240 q 577 149 531 174 q 676 125 624 125 q 791 153 757 125 q 825 214 825 182 q 805 262 825 242 q 750 282 785 282 q 710 276 728 282 q 681 258 693 269 q 656 250 671 250 q 632 259 642 250 q 622 286 622 268 q 631 321 622 303 q 660 364 639 340 q 715 405 682 388 q 792 422 749 422 q 890 383 849 422 q 931 265 931 343 q 902 156 931 207 q 826 66 874 106 q 721 4 779 26 q 603 -18 663 -18 q 506 2 551 -18 q 428 63 460 22 q 298 -37 364 -6 q 183 -69 232 -69 z "},"ఊ":{"ha":1422,"x_min":35,"x_max":1422,"o":"m 690 835 q 669 870 674 835 q 660 953 665 906 q 654 1012 657 985 q 651 1049 651 1039 q 667 1087 651 1069 q 703 1114 683 1104 q 738 1124 724 1124 q 781 1099 761 1124 q 801 1043 801 1074 q 792 992 801 1018 q 769 939 783 967 q 747 894 760 918 q 719 852 733 869 q 690 835 704 835 m 493 778 q 476 808 479 778 q 463 924 472 839 q 455 992 458 961 q 451 1032 451 1022 q 466 1078 451 1058 q 499 1110 481 1099 q 531 1122 518 1122 q 574 1094 558 1122 q 590 1043 590 1067 q 587 994 590 1017 q 578 949 583 972 q 493 778 535 778 m 183 -69 q 101 -39 128 -69 q 75 47 75 -8 q 110 240 75 139 q 207 438 146 340 q 101 427 143 432 q 46 422 58 422 q 37 426 39 422 q 35 432 35 431 q 42 463 35 440 q 67 511 50 486 q 111 546 83 536 q 169 552 118 549 q 297 560 219 556 q 453 705 369 646 q 619 795 536 764 q 774 826 701 826 q 853 806 831 826 q 876 757 876 785 q 860 707 876 732 q 819 665 843 682 q 771 647 794 647 q 754 657 761 647 q 732 675 747 667 q 700 688 719 682 q 660 693 681 693 q 542 658 603 693 q 425 568 482 624 q 648 579 531 574 q 876 590 765 585 q 1068 597 986 594 q 1079 663 1079 631 q 1066 731 1079 696 q 1019 796 1053 765 q 1008 809 1014 803 q 1001 829 1001 815 q 1017 879 1001 853 q 1057 925 1033 906 q 1106 944 1081 944 q 1165 904 1142 944 q 1189 794 1189 864 q 1179 705 1189 754 q 1149 601 1169 656 q 1190 603 1169 603 q 1229 604 1210 604 q 1329 593 1286 604 q 1397 552 1372 582 q 1422 465 1422 522 q 1398 371 1422 418 q 1333 286 1374 324 q 1242 226 1292 249 q 1143 203 1193 203 q 1026 243 1063 203 q 989 343 989 283 q 1031 492 989 415 q 965 488 1017 492 q 839 478 913 483 q 684 468 765 474 q 528 458 603 463 q 400 450 454 453 q 328 447 346 447 q 250 297 281 375 q 215 153 219 219 q 228 97 214 118 q 274 75 242 75 q 328 94 297 75 q 392 144 360 113 q 449 211 424 175 q 492 240 469 240 q 515 218 510 240 q 575 149 526 172 q 676 125 624 125 q 791 153 757 125 q 825 214 825 182 q 805 262 825 242 q 750 282 785 282 q 710 276 728 282 q 681 258 693 269 q 656 250 671 250 q 632 259 642 250 q 622 286 622 268 q 631 321 622 303 q 660 364 639 340 q 715 405 682 388 q 792 422 749 422 q 890 383 849 422 q 931 265 931 343 q 902 156 931 207 q 826 66 874 106 q 721 4 779 26 q 603 -18 663 -18 q 506 2 551 -18 q 428 63 460 22 q 298 -37 364 -6 q 183 -69 232 -69 m 1200 325 q 1265 346 1236 325 q 1294 407 1294 367 q 1247 475 1294 456 q 1133 494 1200 494 q 1122 494 1128 494 q 1108 493 1115 493 q 1095 453 1099 474 q 1092 418 1092 433 q 1127 348 1092 371 q 1200 325 1163 325 z "},"ఋ":{"ha":1767,"x_min":56,"x_max":1722,"o":"m 203 -69 q 124 -39 151 -69 q 97 40 97 -8 q 117 129 97 85 q 165 217 136 174 q 221 301 193 260 q 199 296 211 297 q 176 294 188 294 q 85 336 114 294 q 56 438 56 378 q 73 535 56 485 q 122 628 90 585 q 200 699 154 672 q 301 726 246 726 q 399 683 371 726 q 426 583 426 640 q 399 457 426 515 q 335 347 371 399 q 271 243 299 294 q 243 139 243 192 q 293 75 243 75 q 356 97 325 75 q 411 148 386 119 q 451 199 436 176 q 481 232 471 224 q 503 240 490 240 q 532 218 519 240 q 595 149 556 172 q 679 125 635 125 q 765 147 725 125 q 828 212 804 169 q 853 314 853 254 q 820 438 853 369 q 722 575 788 507 q 710 588 717 582 q 704 608 704 594 q 720 659 704 632 q 760 706 736 686 q 808 726 783 726 q 864 697 838 726 q 910 620 890 668 q 942 514 931 572 q 954 399 954 456 q 922 213 954 297 q 983 147 942 168 q 1063 125 1024 125 q 1148 147 1108 125 q 1212 212 1188 169 q 1236 314 1236 254 q 1203 438 1236 369 q 1106 575 1171 507 q 1094 588 1100 582 q 1088 608 1088 594 q 1103 659 1088 632 q 1143 706 1119 686 q 1192 726 1167 726 q 1247 697 1221 726 q 1294 620 1274 668 q 1326 514 1314 572 q 1338 399 1338 456 q 1306 214 1338 299 q 1367 147 1325 168 q 1447 125 1408 125 q 1533 147 1493 125 q 1597 212 1572 169 q 1621 314 1621 254 q 1588 438 1621 369 q 1490 575 1556 507 q 1478 588 1485 582 q 1472 608 1472 594 q 1488 659 1472 632 q 1527 706 1503 686 q 1576 726 1551 726 q 1632 697 1606 726 q 1678 620 1658 668 q 1710 514 1699 572 q 1722 399 1722 456 q 1678 185 1722 279 q 1560 38 1635 92 q 1394 -17 1486 -17 q 1297 2 1350 -17 q 1211 68 1243 21 q 1010 -17 1126 -17 q 913 1 965 -17 q 828 67 860 19 q 735 6 786 28 q 626 -17 683 -17 q 531 1 582 -17 q 446 65 479 18 q 317 -36 382 -3 q 203 -69 253 -69 m 244 399 q 262 400 253 399 q 281 406 271 401 q 296 451 290 428 q 301 501 301 475 q 281 579 301 554 q 233 604 260 604 q 174 573 194 604 q 154 504 154 542 q 176 432 154 465 q 244 399 199 399 z "},"ౠ":{"ha":2246,"x_min":56,"x_max":2239,"o":"m 203 -69 q 124 -39 151 -69 q 97 40 97 -8 q 117 129 97 85 q 165 217 136 174 q 221 301 193 260 q 199 296 211 297 q 176 294 188 294 q 85 336 114 294 q 56 438 56 378 q 73 535 56 485 q 122 628 90 585 q 200 699 154 672 q 301 726 246 726 q 399 683 371 726 q 426 583 426 640 q 399 457 426 515 q 335 347 371 399 q 271 243 299 294 q 243 139 243 192 q 293 75 243 75 q 356 97 325 75 q 411 148 386 119 q 451 199 436 176 q 481 232 471 224 q 503 240 490 240 q 532 218 519 240 q 595 149 556 172 q 679 125 635 125 q 765 147 725 125 q 828 212 804 169 q 853 314 853 254 q 820 438 853 369 q 722 575 788 507 q 710 588 717 582 q 704 608 704 594 q 720 659 704 632 q 760 706 736 686 q 808 726 783 726 q 864 697 838 726 q 910 620 890 668 q 942 514 931 572 q 954 399 954 456 q 922 214 954 299 q 983 147 942 168 q 1064 125 1025 125 q 1149 147 1110 125 q 1213 212 1189 169 q 1238 314 1238 254 q 1205 438 1238 369 q 1107 575 1172 507 q 1095 588 1101 582 q 1089 608 1089 594 q 1105 659 1089 632 q 1144 706 1121 686 q 1193 726 1168 726 q 1249 697 1222 726 q 1295 620 1275 668 q 1327 514 1315 572 q 1339 399 1339 456 q 1307 215 1339 299 q 1372 144 1335 164 q 1446 125 1408 125 q 1569 174 1517 125 q 1622 314 1622 224 q 1605 413 1622 363 q 1557 506 1588 464 q 1499 563 1532 539 q 1429 594 1467 588 q 1415 602 1418 597 q 1413 610 1413 607 q 1424 649 1413 624 q 1456 699 1436 675 q 1496 726 1475 722 q 1547 731 1508 729 q 1640 735 1586 733 q 1747 736 1693 736 q 1879 734 1811 736 q 2008 728 1947 732 q 2108 718 2069 725 q 2169 702 2139 714 q 2219 660 2199 690 q 2239 571 2239 631 q 2208 439 2239 499 q 2127 344 2176 379 q 2022 308 2078 308 q 1938 341 1971 308 q 1904 436 1904 374 q 1924 531 1904 485 q 1971 601 1943 576 q 1847 609 1903 607 q 1743 611 1790 611 q 1697 611 1719 611 q 1654 610 1674 611 q 1710 513 1690 571 q 1729 389 1729 456 q 1705 242 1729 314 q 1635 111 1681 169 q 1529 18 1590 53 q 1393 -17 1468 -17 q 1297 0 1350 -17 q 1213 67 1244 17 q 1119 6 1171 28 q 1011 -17 1068 -17 q 913 2 967 -17 q 828 68 860 21 q 626 -17 743 -17 q 531 1 582 -17 q 446 65 479 18 q 317 -36 382 -3 q 203 -69 253 -69 m 244 399 q 262 400 253 399 q 281 406 271 401 q 296 451 290 428 q 301 501 301 475 q 281 579 301 554 q 233 604 260 604 q 174 573 194 604 q 154 504 154 542 q 176 432 154 465 q 244 399 199 399 m 2065 442 q 2126 467 2106 442 q 2146 518 2146 492 q 2131 560 2146 542 q 2085 579 2117 579 q 2024 553 2046 579 q 2001 497 2001 526 q 2017 458 2001 475 q 2065 442 2032 442 z "},"ఌ":{"ha":1113,"x_min":35,"x_max":1085,"o":"m 414 -74 q 224 -35 290 -74 q 158 85 158 4 q 184 175 158 138 q 253 238 210 213 q 351 283 297 264 q 458 321 404 303 q 557 357 511 339 q 631 402 603 375 q 658 471 658 429 q 634 531 658 510 q 574 553 610 553 q 503 528 533 553 q 449 472 472 504 q 406 417 425 440 q 364 392 385 392 q 329 418 339 392 q 316 457 324 435 q 289 495 308 479 q 226 511 269 511 q 158 489 181 511 q 103 422 135 467 q 79 413 96 413 q 50 424 65 413 q 35 453 35 435 q 55 506 35 474 q 109 570 75 538 q 188 625 143 603 q 283 647 233 647 q 361 630 324 647 q 428 575 399 613 q 536 666 476 636 q 647 696 596 696 q 751 651 717 696 q 786 544 786 606 q 757 421 786 474 q 678 330 728 368 q 568 265 629 292 q 443 221 507 239 q 338 178 376 203 q 300 118 300 154 q 456 51 300 51 q 713 99 599 51 q 893 231 826 146 q 960 428 960 315 q 924 603 960 532 q 829 703 889 675 q 812 715 818 708 q 806 735 806 721 q 820 778 806 750 q 858 828 835 806 q 907 851 882 851 q 1001 804 961 851 q 1063 678 1040 757 q 1085 508 1085 600 q 1028 267 1085 375 q 877 83 972 160 q 662 -33 782 7 q 414 -74 542 -74 z "},"ఎ":{"ha":861,"x_min":21,"x_max":833,"o":"m 147 -69 q 58 -40 96 -69 q 21 53 21 -11 q 44 156 21 103 q 108 253 67 208 q 204 324 149 297 q 325 351 260 351 q 408 322 376 351 q 444 246 439 293 q 506 154 464 185 q 594 124 549 124 q 697 167 656 124 q 739 293 739 210 q 703 433 739 365 q 610 556 667 500 q 482 651 553 611 q 340 707 411 690 q 322 732 322 711 q 328 758 322 739 q 347 798 333 776 q 381 835 360 819 q 433 851 403 851 q 517 828 469 851 q 613 769 565 806 q 693 696 660 733 q 797 529 760 621 q 833 343 833 438 q 806 186 833 254 q 735 74 779 118 q 640 6 692 29 q 536 -17 588 -17 q 447 2 489 -17 q 376 60 404 21 q 270 -32 332 6 q 147 -69 208 -69 m 215 64 q 306 99 265 64 q 356 183 346 135 q 313 210 338 201 q 261 219 288 219 q 178 195 218 219 q 139 122 139 171 q 160 82 139 100 q 215 64 181 64 z "},"ఏ":{"ha":861,"x_min":21,"x_max":833,"o":"m 219 544 q 188 561 203 544 q 140 633 161 590 q 108 723 119 675 q 96 814 96 771 q 138 982 96 906 q 251 1104 179 1058 q 415 1150 324 1150 q 481 1140 449 1150 q 533 1111 513 1131 q 554 1063 554 1092 q 529 1000 554 1029 q 503 976 517 986 q 478 965 489 965 q 440 981 464 965 q 368 996 415 996 q 238 947 283 996 q 193 825 193 899 q 213 721 193 774 q 263 622 232 668 q 275 593 275 604 q 270 578 275 585 q 256 563 265 572 q 219 544 235 544 m 147 -69 q 58 -40 96 -69 q 21 53 21 -11 q 44 156 21 103 q 108 253 67 208 q 204 324 149 297 q 325 351 260 351 q 408 322 376 351 q 444 246 439 293 q 506 154 464 185 q 594 124 549 124 q 697 167 656 124 q 739 293 739 210 q 695 449 739 374 q 582 581 651 524 q 465 660 528 626 q 340 707 403 693 q 322 732 322 711 q 328 758 322 739 q 347 798 333 776 q 381 835 360 819 q 433 851 403 851 q 517 828 469 851 q 613 769 565 806 q 693 696 660 733 q 797 529 760 621 q 833 343 833 438 q 806 186 833 254 q 735 74 779 118 q 640 6 692 29 q 536 -17 588 -17 q 447 2 489 -17 q 376 60 404 21 q 270 -32 332 6 q 147 -69 208 -69 m 215 64 q 306 99 265 64 q 356 183 346 135 q 313 210 338 201 q 261 219 288 219 q 178 195 218 219 q 139 122 139 171 q 160 82 139 100 q 215 64 181 64 z "},"ఐ":{"ha":1004,"x_min":21,"x_max":963,"o":"m 147 -69 q 58 -40 96 -69 q 21 53 21 -11 q 44 156 21 103 q 108 253 67 208 q 204 324 149 297 q 325 351 260 351 q 414 315 382 351 q 446 222 446 279 l 446 210 q 528 141 479 163 q 624 119 576 119 q 741 150 690 119 q 821 235 792 181 q 850 358 850 289 q 842 431 850 392 q 814 507 833 471 q 765 566 794 543 q 690 589 735 589 q 608 569 650 589 q 528 504 567 549 q 465 458 486 458 q 438 472 450 458 q 411 501 426 485 q 372 531 396 518 q 310 544 349 544 q 228 525 261 544 q 174 472 196 506 q 156 453 165 458 q 138 449 146 449 q 109 460 121 449 q 97 489 97 472 q 115 541 97 513 q 149 585 133 569 q 260 653 193 631 q 389 675 328 675 q 471 658 429 675 q 546 608 513 640 q 660 696 600 667 q 774 725 721 725 q 881 687 839 725 q 942 585 922 649 q 963 447 963 522 q 930 263 963 347 q 842 115 897 178 q 715 17 786 51 q 567 -18 644 -18 q 465 -1 515 -18 q 369 51 415 15 q 265 -35 325 0 q 147 -69 206 -69 m 215 64 q 306 99 265 64 q 356 183 346 135 q 313 210 338 201 q 261 219 288 219 q 178 195 218 219 q 139 122 139 171 q 160 82 139 100 q 215 64 181 64 z "},"ఒ":{"ha":917,"x_min":56,"x_max":903,"o":"m 203 -69 q 124 -39 151 -69 q 97 40 97 -8 q 117 129 97 85 q 165 217 136 174 q 221 301 193 260 q 199 296 211 297 q 176 294 188 294 q 85 336 114 294 q 56 438 56 378 q 73 535 56 485 q 122 628 90 585 q 200 699 154 672 q 301 726 246 726 q 399 683 371 726 q 426 583 426 640 q 399 457 426 515 q 335 347 371 399 q 271 243 299 294 q 243 139 243 192 q 293 75 243 75 q 356 97 325 75 q 411 148 386 119 q 451 199 436 176 q 481 232 471 224 q 503 240 490 240 q 522 233 517 240 q 528 214 526 225 q 579 139 543 163 q 661 115 615 115 q 744 140 706 115 q 782 206 782 164 q 770 249 782 233 q 747 275 758 264 q 735 299 735 286 q 743 331 735 310 q 767 376 751 353 q 801 417 782 400 q 843 433 821 433 q 888 403 872 433 q 903 322 903 374 q 875 190 903 251 q 801 81 847 128 q 698 7 756 33 q 579 -19 640 -19 q 494 0 531 -19 q 440 60 457 19 q 315 -38 378 -7 q 203 -69 251 -69 m 244 399 q 262 400 253 399 q 281 406 271 401 q 296 451 290 428 q 301 501 301 475 q 281 579 301 554 q 233 604 260 604 q 174 573 194 604 q 154 504 154 542 q 176 432 154 465 q 244 399 199 399 z "},"ఓ":{"ha":917,"x_min":56,"x_max":903,"o":"m 301 750 q 276 772 279 750 q 269 833 272 797 q 262 905 265 869 q 256 967 258 940 q 254 1001 254 993 q 272 1046 254 1026 q 311 1076 289 1065 q 347 1086 333 1086 q 391 1055 372 1086 q 407 989 410 1024 q 397 917 404 958 q 375 838 389 876 q 343 775 361 800 q 301 750 325 750 m 203 -69 q 124 -39 151 -69 q 97 40 97 -8 q 117 129 97 85 q 165 217 136 174 q 221 301 193 260 q 199 296 211 297 q 176 294 188 294 q 85 336 114 294 q 56 438 56 378 q 73 535 56 485 q 122 628 90 585 q 200 699 154 672 q 301 726 246 726 q 399 683 371 726 q 426 583 426 640 q 399 457 426 515 q 335 347 371 399 q 271 243 299 294 q 243 139 243 192 q 293 75 243 75 q 356 97 325 75 q 411 148 386 119 q 451 199 436 176 q 481 232 471 224 q 503 240 490 240 q 522 231 518 240 q 529 211 526 222 q 580 142 544 168 q 661 115 615 115 q 744 140 706 115 q 782 206 782 164 q 770 249 782 233 q 747 275 758 264 q 735 299 735 286 q 743 331 735 310 q 767 376 751 353 q 801 417 782 400 q 843 433 821 433 q 888 403 872 433 q 903 322 903 374 q 875 190 903 251 q 801 81 847 128 q 698 7 756 33 q 579 -19 640 -19 q 494 0 531 -19 q 440 60 457 19 q 315 -38 378 -7 q 203 -69 251 -69 m 244 399 q 262 400 253 399 q 281 406 271 401 q 296 451 290 428 q 301 501 301 475 q 281 579 301 554 q 233 604 260 604 q 174 573 194 604 q 154 504 154 542 q 176 432 154 465 q 244 399 199 399 z "},"ఔ":{"ha":1279,"x_min":56,"x_max":1349,"o":"m 203 -69 q 124 -39 151 -69 q 97 40 97 -8 q 117 129 97 85 q 165 217 136 174 q 221 301 193 260 q 199 296 211 297 q 176 294 188 294 q 85 336 114 294 q 56 438 56 378 q 73 535 56 485 q 122 628 90 585 q 200 699 154 672 q 301 726 246 726 q 374 707 347 726 q 414 657 401 688 q 426 656 421 656 q 436 656 431 656 q 505 681 481 656 q 529 744 529 706 q 505 805 529 789 q 449 821 481 821 q 333 812 379 821 q 264 803 288 803 q 249 808 253 803 q 246 817 246 814 q 258 856 246 829 q 288 906 269 882 q 325 933 307 931 q 448 948 375 943 q 606 954 521 953 q 779 956 692 956 q 944 956 867 956 q 1115 954 1051 956 q 1214 949 1179 953 q 1276 934 1244 946 q 1328 890 1307 922 q 1349 794 1349 858 q 1318 665 1349 724 q 1239 572 1288 607 q 1135 536 1190 536 q 1019 667 1019 536 q 1037 758 1019 714 q 1081 828 1054 803 q 1022 828 1063 828 q 929 830 982 829 q 822 831 876 831 q 721 831 768 831 q 646 829 674 831 q 648 816 647 822 q 649 803 649 810 q 615 692 649 747 q 528 594 581 638 q 421 528 476 551 q 381 421 410 471 q 321 324 353 371 q 266 232 289 278 q 243 139 243 186 q 293 75 243 75 q 356 97 325 75 q 411 148 386 119 q 451 199 436 176 q 481 232 471 224 q 503 240 490 240 q 521 233 517 240 q 528 214 525 225 q 579 139 543 163 q 661 115 615 115 q 744 140 706 115 q 782 206 782 164 q 770 249 782 233 q 747 275 758 264 q 735 299 735 286 q 743 331 735 310 q 767 376 751 353 q 801 417 782 400 q 843 433 821 433 q 888 403 872 433 q 903 322 903 374 q 875 190 903 251 q 801 81 847 128 q 698 7 756 33 q 579 -19 640 -19 q 494 0 531 -19 q 440 60 457 19 q 315 -38 378 -7 q 203 -69 251 -69 m 1178 671 q 1238 695 1218 671 q 1258 747 1258 719 q 1244 790 1258 771 q 1200 808 1229 808 q 1137 782 1160 808 q 1114 726 1114 756 q 1129 688 1114 704 q 1178 671 1144 671 m 244 399 q 262 400 253 399 q 281 406 271 401 q 296 451 290 428 q 301 501 301 475 q 281 579 301 554 q 233 604 260 604 q 174 573 194 604 q 154 504 154 542 q 176 432 154 465 q 244 399 199 399 z "},"ా":{"ha":950,"x_min":0,"x_max":950,"o":"m 738 286 q 654 319 688 286 q 621 417 621 353 q 638 508 621 464 q 682 578 656 553 q 645 579 664 579 q 607 579 626 579 q 397 575 507 579 q 188 565 288 571 q 18 553 88 558 q 3 558 7 551 q 0 567 0 564 q 12 606 0 579 q 42 658 24 633 q 79 683 60 682 q 226 694 138 690 q 416 701 315 699 q 608 704 517 704 q 725 703 671 704 q 815 699 779 701 q 877 684 846 696 q 929 640 908 672 q 950 544 950 608 q 919 415 950 474 q 841 322 889 357 q 738 286 793 286 m 779 421 q 840 445 819 421 q 860 497 860 469 q 845 540 860 521 q 801 558 831 558 q 738 532 761 558 q 715 476 715 506 q 731 438 715 454 q 779 421 746 421 z "},"ి":{"ha":517,"x_min":0,"x_max":517,"o":"m 279 586 q 265 590 274 586 q 257 601 257 593 q 285 644 257 615 q 383 781 358 729 q 408 875 408 833 q 394 922 408 911 q 369 811 393 861 q 307 728 346 761 q 156 671 242 671 q 47 707 94 671 q 0 829 0 743 q 43 972 0 910 q 154 1068 86 1033 q 297 1103 222 1103 q 419 1072 371 1103 q 492 993 468 1042 q 517 888 517 944 q 489 763 517 825 q 413 654 461 700 q 329 599 368 611 q 279 586 290 586 m 192 774 q 254 790 224 774 q 306 834 285 806 q 326 901 326 863 q 301 965 326 942 q 232 989 276 989 q 163 969 192 989 q 120 920 135 950 q 106 860 106 890 q 131 794 106 815 q 192 774 157 774 z "},"ీ":{"ha":467,"x_min":0,"x_max":467,"o":"m 164 450 q 49 489 99 450 q 0 604 0 528 q 22 697 0 654 q 78 774 44 740 q 144 825 111 807 q 120 842 132 832 q 97 864 108 851 q 56 928 71 893 q 42 1000 42 963 q 63 1102 42 1051 q 121 1194 83 1153 q 208 1261 158 1236 q 313 1286 257 1286 q 381 1276 346 1286 q 442 1244 417 1265 q 467 1189 467 1222 q 454 1144 467 1167 q 425 1106 442 1121 q 394 1090 408 1090 q 361 1103 381 1090 q 315 1129 342 1117 q 251 1142 288 1142 q 172 1110 200 1142 q 143 1040 143 1078 q 167 973 143 996 q 228 938 190 950 q 310 910 267 925 q 401 844 371 889 q 432 738 432 800 q 391 585 432 650 q 288 485 350 521 q 164 450 226 450 m 207 575 q 269 590 238 575 q 322 632 300 604 q 343 700 343 660 q 294 778 343 756 q 260 791 281 786 q 215 799 240 796 q 147 733 168 776 q 126 654 126 690 q 150 594 126 613 q 207 575 174 575 z "},"ు":{"ha":533,"x_min":0,"x_max":533,"o":"m 206 -17 q 129 -6 171 -17 q 53 33 88 6 q 3 108 19 61 q 0 124 0 117 q 15 174 0 147 q 51 219 31 200 q 90 238 72 238 q 115 218 107 238 q 176 148 135 171 q 258 125 218 125 q 344 147 304 125 q 408 212 383 169 q 432 314 432 254 q 401 433 432 367 q 310 565 371 499 q 283 608 283 593 q 299 659 283 632 q 338 706 314 686 q 388 726 363 726 q 443 697 417 726 q 490 620 469 668 q 522 514 510 572 q 533 399 533 456 q 490 185 533 279 q 372 38 446 92 q 206 -17 297 -17 z "},"ూ":{"ha":1040,"x_min":0,"x_max":1039,"o":"m 206 -17 q 130 -6 171 -17 q 54 31 89 4 q 3 108 19 58 q 0 124 0 117 q 15 173 0 146 q 50 219 29 200 q 89 239 71 239 q 115 218 107 239 q 176 148 135 171 q 258 125 218 125 q 385 172 344 125 q 425 283 425 218 q 397 395 425 338 q 319 500 368 453 q 207 567 269 547 q 180 578 188 574 q 172 594 172 583 q 184 632 172 607 q 215 679 196 657 q 251 704 233 701 q 363 716 290 711 q 523 724 436 721 q 692 726 610 726 q 814 724 758 726 q 904 719 869 722 q 1008 675 978 711 q 1039 565 1039 639 q 1010 437 1039 496 q 933 342 981 378 q 832 307 886 307 q 710 431 714 307 q 726 526 708 479 q 771 599 743 572 q 713 600 744 600 q 650 600 682 600 q 522 599 586 600 q 413 594 458 597 q 498 470 471 546 q 525 322 525 394 q 504 212 525 271 q 443 101 483 153 q 343 16 403 49 q 206 -17 283 -17 m 871 442 q 930 469 911 443 q 949 521 949 494 q 933 562 949 544 q 885 579 917 579 q 824 551 846 579 q 804 494 803 524 q 822 456 806 472 q 871 442 838 440 z "},"ృ":{"ha":388,"x_min":-250,"x_max":332,"o":"m -103 -619 q -185 -596 -153 -619 q -234 -535 -218 -572 q -250 -457 -250 -497 q -219 -337 -250 -400 q -132 -222 -189 -275 q 6 -135 -75 -168 q 185 -101 86 -101 q 197 -101 192 -101 q 208 -103 203 -101 q 213 -58 211 -81 q 214 -14 214 -36 q 155 403 214 229 q 1 700 96 576 q -17 731 -12 717 q -22 756 -22 744 q -19 776 -22 767 q -11 794 -17 785 q 24 838 4 825 q 61 851 43 851 q 137 807 99 851 q 210 685 175 763 q 273 510 246 608 q 316 301 300 411 q 332 81 332 190 q 289 -232 332 -100 q 179 -450 246 -364 q 38 -578 113 -536 q -103 -619 -37 -619 m -47 -492 q 35 -460 -8 -492 q 119 -370 79 -428 q 181 -235 158 -312 q 110 -226 146 -226 q -2 -250 50 -226 q -87 -316 -54 -274 q -119 -412 -119 -358 q -99 -472 -119 -451 q -47 -492 -79 -492 z "},"ౄ":{"ha":906,"x_min":-250,"x_max":899,"o":"m -97 -621 q -212 -576 -175 -621 q -250 -467 -250 -531 q -212 -326 -250 -392 q -112 -209 -175 -260 q 28 -130 -50 -158 q 185 -101 106 -101 q 197 -101 192 -101 q 208 -103 203 -101 q 213 -58 211 -81 q 214 -14 214 -36 q 171 347 214 190 q 58 618 128 503 q 21 667 38 653 q 4 699 4 682 q 19 749 4 718 q 58 804 35 779 q 104 831 82 829 q 332 847 210 842 q 565 851 454 851 q 672 850 622 851 q 764 846 722 849 q 826 833 794 844 q 878 788 857 821 q 899 692 899 756 q 868 563 899 621 q 790 469 838 504 q 686 433 742 433 q 602 467 635 433 q 569 567 569 501 q 587 656 569 613 q 631 725 604 700 q 557 727 592 726 q 490 728 522 728 q 349 724 417 728 q 196 715 282 721 q 265 537 235 640 q 314 316 296 433 q 332 81 332 199 q 313 -117 332 -17 q 259 -307 294 -217 q 171 -468 224 -397 q 51 -580 118 -539 q -97 -621 -15 -621 m 728 568 q 788 592 768 568 q 808 644 808 617 q 794 687 808 668 q 750 706 779 706 q 687 679 710 706 q 664 624 664 653 q 679 585 664 601 q 728 568 694 568 m -47 -492 q 34 -458 -8 -492 q 115 -363 76 -424 q 179 -226 154 -303 q 126 -222 153 -222 q 13 -244 65 -222 q -74 -303 -40 -267 q -119 -412 -119 -353 q -99 -472 -119 -451 q -47 -492 -79 -492 z "},"ౢ":{"ha":0,"x_min":-792,"x_max":0,"o":"m -504 -775 q -700 -651 -700 -775 q -666 -562 -700 -596 q -579 -508 -632 -529 q -474 -469 -526 -486 q -372 -428 -415 -450 q -329 -365 -329 -407 q -344 -326 -329 -340 q -386 -311 -360 -311 q -435 -328 -414 -311 q -474 -367 -457 -344 q -504 -410 -490 -390 q -537 -431 -518 -431 q -565 -419 -557 -431 q -579 -389 -572 -408 q -598 -357 -585 -372 q -643 -342 -611 -342 q -690 -356 -674 -342 q -729 -406 -707 -369 q -751 -415 -735 -415 q -780 -404 -768 -415 q -792 -378 -792 -393 q -776 -336 -792 -361 q -735 -286 -761 -311 q -674 -244 -708 -261 q -600 -228 -639 -228 q -493 -276 -537 -228 q -417 -215 -461 -237 q -331 -192 -374 -192 q -251 -224 -282 -192 q -221 -310 -221 -257 q -481 -557 -221 -483 q -582 -626 -582 -583 q -474 -668 -582 -668 q -284 -633 -367 -668 q -154 -537 -201 -599 q -107 -397 -107 -476 q -131 -272 -107 -324 q -199 -199 -156 -219 q -214 -189 -207 -194 q -221 -169 -221 -183 q -209 -135 -221 -157 q -178 -94 -197 -112 q -139 -76 -160 -76 q -67 -111 -99 -76 q -18 -205 -36 -146 q 0 -337 0 -264 q -42 -519 0 -437 q -156 -657 -85 -600 q -318 -744 -228 -714 q -504 -775 -408 -775 z "},"ె":{"ha":869,"x_min":0,"x_max":869,"o":"m 464 543 q 449 550 453 543 q 446 560 446 557 q 458 600 446 572 q 488 651 469 628 q 526 674 507 674 q 575 674 554 674 q 614 675 596 675 q 669 678 639 675 q 722 692 700 681 q 744 731 744 704 q 727 762 744 751 q 681 774 710 772 q 594 778 638 776 q 506 781 550 781 q 432 781 481 781 q 324 780 383 781 q 203 778 264 779 q 94 778 143 778 q 17 778 44 778 q 3 783 6 778 q 0 792 0 789 q 13 830 0 804 q 44 878 25 856 q 83 904 64 901 q 140 906 94 906 q 249 908 185 907 q 385 908 314 908 q 523 908 456 908 q 641 907 590 907 q 710 906 692 907 q 753 902 726 906 q 806 888 779 899 q 851 852 833 876 q 869 783 869 828 q 827 669 869 722 q 714 583 785 617 q 557 546 643 549 l 464 543 z "},"ే":{"ha":869,"x_min":0,"x_max":869,"o":"m 464 543 q 449 550 453 543 q 446 560 446 557 q 458 600 446 572 q 488 651 469 628 q 526 674 507 674 q 575 674 554 674 q 614 675 596 675 q 669 678 639 675 q 722 692 700 681 q 744 731 744 704 q 727 762 744 751 q 681 774 710 772 q 594 778 638 776 q 506 781 550 781 q 432 780 481 781 q 324 779 383 779 q 203 778 264 779 q 94 777 143 778 q 17 776 44 776 q 3 782 6 776 q 0 790 0 788 q 13 829 0 803 q 44 878 25 856 q 83 904 64 901 q 140 906 94 906 q 249 908 185 907 q 385 908 314 908 l 511 908 q 491 966 500 932 q 482 1046 482 1000 q 505 1172 482 1119 q 565 1257 528 1224 q 644 1306 601 1290 q 725 1321 686 1321 q 789 1311 756 1321 q 845 1282 822 1301 q 868 1231 868 1263 q 857 1188 868 1210 q 831 1153 846 1167 q 801 1139 815 1139 q 770 1151 789 1139 q 726 1174 751 1163 q 667 1186 701 1186 q 596 1161 624 1186 q 568 1082 568 1136 q 584 1003 568 1039 q 620 942 600 967 q 651 907 640 918 q 686 906 671 907 q 710 906 701 906 q 753 902 726 906 q 806 888 779 899 q 851 852 833 876 q 869 783 869 828 q 827 669 869 722 q 714 583 785 617 q 557 546 643 549 l 464 543 z "},"ై":{"ha":869,"x_min":0,"x_max":869,"o":"m 464 543 q 449 550 453 543 q 446 560 446 557 q 458 600 446 572 q 488 651 469 628 q 526 674 507 674 q 575 674 554 674 q 614 675 596 675 q 669 678 639 675 q 722 692 700 681 q 744 731 744 704 q 727 762 744 751 q 681 774 710 772 q 594 778 638 776 q 506 781 550 781 q 432 780 481 781 q 324 779 383 779 q 203 778 264 779 q 94 777 143 778 q 17 776 44 776 q 3 782 6 776 q 0 790 0 788 q 13 829 0 803 q 44 878 25 856 q 83 904 64 901 q 140 906 94 906 q 249 908 185 907 q 385 908 314 908 q 523 908 456 908 q 641 907 590 907 q 710 906 692 907 q 753 902 726 906 q 806 888 779 899 q 851 852 833 876 q 869 783 869 828 q 827 669 869 722 q 714 583 785 617 q 557 546 643 549 l 464 543 m 190 -426 q 51 -386 101 -426 q 0 -272 0 -346 q 35 -159 0 -211 q 128 -75 71 -107 q 254 -43 186 -43 q 360 -76 315 -43 q 404 -169 404 -108 q 385 -246 404 -207 q 335 -310 367 -285 q 367 -311 349 -311 q 408 -311 386 -311 q 530 -310 463 -311 q 661 -308 597 -308 q 772 -306 725 -307 q 831 -304 818 -304 q 861 -308 853 -304 q 869 -324 869 -312 q 860 -360 869 -339 q 844 -392 851 -381 q 813 -417 833 -408 q 751 -426 792 -426 l 190 -426 m 256 -312 q 289 -275 278 -297 q 300 -231 300 -253 q 277 -169 300 -199 q 206 -140 254 -140 q 136 -163 167 -140 q 106 -226 106 -186 q 151 -292 106 -272 q 256 -312 196 -311 z "},"ొ":{"ha":968,"x_min":0,"x_max":968,"o":"m 143 500 q 70 528 103 500 q 19 603 38 557 q 0 699 0 649 q 33 810 0 760 q 115 892 65 861 q 217 922 165 922 q 353 846 288 922 q 458 916 396 885 q 591 966 519 947 q 732 985 663 985 q 851 969 797 985 q 936 922 904 954 q 968 839 968 890 q 943 746 968 792 q 877 663 918 700 q 788 603 836 625 q 690 582 739 582 q 580 623 619 582 q 540 728 540 664 q 583 863 540 793 q 466 823 524 849 q 364 760 408 797 q 319 724 343 742 q 279 706 296 706 q 239 733 257 706 q 208 776 225 754 q 160 799 190 799 q 116 779 132 799 q 100 733 100 760 q 153 638 100 682 q 203 608 179 617 q 242 594 226 600 q 258 578 258 589 q 215 525 258 553 q 143 500 178 500 m 746 699 q 811 719 782 699 q 840 781 840 740 q 821 833 840 813 q 774 864 801 854 q 722 874 747 874 q 663 858 688 874 q 638 792 638 843 q 673 722 638 744 q 746 699 708 699 z "},"ో":{"ha":994,"x_min":0,"x_max":994,"o":"m 143 500 q 70 528 103 500 q 19 603 38 557 q 0 699 0 649 q 33 810 0 760 q 115 892 65 861 q 217 922 165 922 q 353 846 288 922 q 476 925 401 890 q 632 975 551 960 q 702 1074 665 1026 q 781 1151 739 1121 q 874 1181 824 1181 q 929 1172 901 1181 q 976 1147 957 1164 q 994 1104 994 1131 q 983 1062 994 1083 q 957 1026 972 1040 q 928 1013 942 1013 q 900 1023 913 1013 q 870 1044 888 1033 q 821 1054 853 1054 q 726 985 771 1054 q 905 947 842 985 q 968 839 968 908 q 943 746 968 792 q 877 663 918 700 q 788 603 836 625 q 690 582 739 582 q 580 623 619 582 q 540 728 540 664 q 583 863 540 793 q 466 823 524 849 q 364 760 408 797 q 319 724 343 742 q 279 706 296 706 q 239 733 257 706 q 208 776 225 754 q 160 799 190 799 q 116 779 132 799 q 100 733 100 760 q 153 638 100 682 q 203 608 179 617 q 242 594 226 600 q 258 578 258 589 q 215 525 258 553 q 143 500 178 500 m 746 699 q 811 719 782 699 q 840 781 840 740 q 821 833 840 813 q 774 864 801 854 q 722 874 747 874 q 663 858 688 874 q 638 792 638 843 q 673 722 638 744 q 746 699 708 699 z "},"ౌ":{"ha":985,"x_min":0,"x_max":983,"o":"m 776 513 q 654 636 654 513 q 672 731 654 685 q 715 804 689 778 q 647 806 681 806 q 581 807 613 807 q 525 807 553 807 q 471 806 497 807 q 472 797 472 801 q 472 789 472 793 q 456 719 472 753 q 413 658 440 686 q 296 580 365 610 q 167 549 226 550 l 18 544 q 3 551 7 544 q 0 561 0 558 q 12 602 0 574 q 42 654 24 631 q 81 678 61 678 q 140 678 108 678 q 200 679 171 678 q 278 684 243 681 q 333 699 313 688 q 354 736 354 710 q 319 776 354 764 q 247 788 283 788 q 178 783 211 788 q 135 779 146 779 q 120 785 124 779 q 117 793 117 790 q 128 832 117 806 q 159 883 140 858 q 196 910 178 907 q 308 922 235 917 q 467 929 381 926 q 636 932 554 932 q 758 930 703 932 q 849 925 814 928 q 910 911 879 922 q 962 871 940 900 q 983 782 983 842 q 955 649 983 710 q 879 550 926 588 q 776 513 832 513 m 815 647 q 875 674 857 647 q 893 726 893 700 q 877 767 893 750 q 829 785 861 785 q 769 757 790 785 q 749 700 749 729 q 765 663 749 678 q 815 647 782 647 z "},"ౕ":{"ha":386,"x_min":0,"x_max":386,"o":"m 72 525 q 49 554 67 532 q 16 619 32 576 q 0 725 0 661 q 23 851 0 799 q 83 936 46 903 q 162 985 119 969 q 243 1000 204 1000 q 307 990 274 1000 q 363 961 340 981 q 386 910 386 942 q 375 867 386 889 q 349 832 364 846 q 319 818 333 818 q 288 830 307 818 q 244 853 269 842 q 185 865 219 865 q 114 840 142 865 q 86 761 86 815 q 102 682 86 718 q 138 621 118 646 q 169 586 158 596 q 163 568 175 581 q 131 544 151 556 q 94 526 111 532 q 72 525 76 519 z "},"ౖ":{"ha":0,"x_min":-786,"x_max":0,"o":"m -596 -521 q -735 -481 -685 -521 q -786 -367 -786 -440 q -751 -253 -786 -306 q -658 -169 -715 -201 q -532 -137 -600 -137 q -426 -170 -471 -137 q -382 -264 -382 -203 q -401 -340 -382 -301 q -451 -404 -419 -379 q -420 -406 -437 -406 q -383 -406 -403 -406 q -283 -404 -337 -406 q -178 -402 -229 -403 q -89 -400 -126 -401 q -39 -399 -51 -399 q -8 -403 -17 -399 q 0 -418 0 -407 q -9 -454 0 -433 q -25 -486 -18 -475 q -57 -512 -36 -503 q -118 -521 -78 -521 l -596 -521 m -531 -407 q -497 -369 -508 -392 q -486 -325 -486 -347 q -509 -264 -486 -293 q -581 -235 -532 -235 q -650 -258 -619 -235 q -681 -321 -681 -281 q -635 -386 -681 -367 q -531 -407 -590 -406 z "},"క":{"ha":696,"x_min":56,"x_max":669,"o":"m 249 -15 q 124 8 165 -15 q 82 69 82 32 q 96 113 82 93 q 128 145 110 133 q 158 157 146 157 q 194 146 171 157 q 256 124 218 135 q 350 113 294 113 q 497 149 449 113 q 546 224 546 186 q 523 269 546 250 q 456 288 500 288 q 401 281 431 288 q 342 268 372 275 q 275 253 308 260 q 214 246 242 246 q 128 273 160 246 q 97 340 97 300 q 125 428 97 381 q 200 524 153 476 q 126 470 156 493 q 83 447 97 447 q 64 463 71 447 q 56 494 57 478 q 59 525 56 511 q 69 558 63 539 q 96 621 81 589 q 124 675 111 653 q 186 767 149 719 q 275 858 224 815 q 394 933 335 907 q 488 958 454 958 q 516 949 508 958 q 524 925 524 940 q 513 876 524 904 q 489 826 501 849 q 469 797 476 804 q 431 785 458 786 q 364 773 404 785 q 274 718 324 761 q 210 651 238 688 q 164 578 183 614 q 282 627 217 603 q 409 667 347 651 q 515 682 471 682 q 601 663 572 682 q 629 613 629 643 q 610 561 629 586 q 568 519 592 536 q 529 503 544 503 q 504 516 515 503 q 474 542 493 529 q 414 554 454 554 q 327 535 369 554 q 256 486 285 517 q 224 419 226 456 q 240 383 222 389 q 272 376 258 376 q 316 381 294 376 q 369 392 338 385 q 445 406 408 400 q 508 411 482 411 q 622 379 575 411 q 669 283 669 347 q 641 187 669 238 q 560 93 613 136 q 424 15 504 46 q 249 -15 344 -15 z "},"ఖ":{"ha":961,"x_min":35,"x_max":926,"o":"m 179 -189 q 70 -157 106 -189 q 35 -76 35 -125 q 60 24 35 -24 q 130 109 86 72 q 228 167 174 146 q 339 189 282 189 q 403 184 365 189 q 471 172 440 179 q 490 289 490 231 q 463 410 490 354 q 379 494 436 465 q 385 467 383 481 q 386 439 386 453 q 352 317 386 368 q 268 238 318 265 q 169 210 218 210 q 90 240 124 210 q 57 347 57 271 q 100 500 57 433 q 212 605 143 567 q 357 643 281 643 q 485 606 435 643 q 559 504 535 568 q 583 363 583 440 q 572 253 583 310 q 542 142 561 197 q 591 130 563 135 q 658 125 619 125 q 740 147 701 125 q 801 212 778 169 q 825 314 825 254 q 792 438 825 369 q 694 575 760 507 q 683 588 689 582 q 676 608 676 594 q 692 659 676 632 q 732 706 708 686 q 781 726 756 726 q 836 697 810 726 q 883 620 863 668 q 915 514 903 572 q 926 399 926 456 q 883 185 926 279 q 768 38 840 92 q 606 -17 696 -17 q 547 -9 579 -17 q 479 13 514 -1 q 348 -131 425 -74 q 179 -189 271 -189 m 233 313 q 283 336 261 313 q 304 410 304 360 q 280 490 304 463 q 226 518 256 518 q 175 492 199 518 q 150 417 151 467 q 176 340 150 367 q 233 313 203 313 m 214 -51 q 322 -23 272 -51 q 406 51 371 6 q 285 69 349 69 q 189 48 231 69 q 147 -14 147 26 q 163 -40 147 -29 q 214 -51 178 -51 m 467 -292 q 414 -265 428 -292 q 400 -218 400 -237 q 411 -164 400 -194 q 438 -105 422 -133 q 471 -57 454 -76 q 499 -37 488 -37 q 518 -57 510 -37 q 533 -104 526 -76 q 542 -158 539 -132 q 546 -199 546 -185 q 526 -262 546 -233 q 467 -292 507 -292 z "},"గ":{"ha":678,"x_min":56,"x_max":629,"o":"m 488 -18 q 472 1 472 -18 q 479 44 472 15 q 493 124 486 72 q 500 261 500 176 q 466 423 500 364 q 388 506 432 482 q 317 414 350 467 q 258 306 283 361 q 219 202 233 250 q 204 122 204 154 q 179 60 204 92 q 124 6 154 28 q 75 -17 93 -17 q 57 7 57 -17 q 77 158 57 82 q 131 304 97 235 q 207 430 165 374 q 292 524 249 486 q 201 502 244 519 q 125 469 157 485 q 81 453 93 453 q 65 463 74 453 q 56 494 56 474 q 76 594 56 543 q 125 700 96 646 q 188 792 150 744 q 276 883 225 840 q 396 958 336 932 q 489 983 456 983 q 517 974 510 983 q 525 950 525 965 q 514 901 525 929 q 490 851 503 874 q 471 822 478 829 q 433 810 460 811 q 365 798 406 810 q 275 743 325 786 q 216 681 242 715 q 171 614 190 646 q 361 667 268 667 q 510 616 451 667 q 599 481 569 565 q 629 293 629 396 q 624 161 629 208 q 611 78 619 114 q 585 44 608 67 q 533 1 561 21 q 488 -18 506 -18 z "},"ఘ":{"ha":1333,"x_min":21,"x_max":1306,"o":"m 229 457 q 203 469 211 457 q 196 497 196 482 q 207 549 196 517 q 234 617 218 582 q 264 675 250 651 q 326 767 289 719 q 415 858 364 815 q 535 933 475 907 q 628 958 594 958 q 656 949 649 958 q 664 925 664 940 q 653 876 664 904 q 629 826 642 849 q 610 797 617 804 q 572 785 599 786 q 504 773 544 785 q 414 718 464 761 q 342 640 372 683 q 293 557 313 596 q 262 492 271 514 q 247 464 253 471 q 229 457 242 457 m 147 -69 q 58 -40 96 -69 q 21 53 21 -11 q 44 156 21 103 q 108 253 67 208 q 204 324 149 297 q 325 351 260 351 q 410 319 379 351 q 446 236 442 288 q 515 146 463 176 q 628 115 567 115 q 753 156 701 115 q 804 267 804 196 q 784 349 804 308 q 728 418 764 389 q 643 468 692 449 q 542 506 594 488 q 524 533 524 511 q 539 579 524 554 q 578 623 554 604 q 628 642 603 642 q 733 615 682 642 q 824 544 783 589 q 888 445 864 500 q 913 333 913 390 q 902 249 913 290 q 872 172 892 208 q 933 130 896 142 q 1006 118 969 118 q 1094 135 1051 118 q 1163 190 1136 151 q 1189 293 1189 228 q 1169 388 1189 350 q 1122 451 1150 425 q 1067 493 1093 476 q 1055 505 1061 497 q 1049 526 1049 513 q 1065 577 1049 550 q 1104 624 1081 604 q 1153 644 1128 644 q 1228 608 1193 644 q 1284 509 1263 571 q 1306 371 1306 447 q 1276 215 1306 286 q 1194 92 1246 143 q 1079 12 1143 40 q 946 -17 1015 -17 q 854 -2 904 -17 q 768 53 804 13 q 664 -1 721 18 q 544 -19 607 -19 q 439 3 481 -19 q 375 57 397 26 q 269 -33 331 4 q 147 -69 207 -69 m 215 64 q 306 99 265 64 q 356 183 346 135 q 313 210 338 201 q 261 219 288 219 q 178 195 218 219 q 139 122 139 171 q 160 82 139 100 q 215 64 181 64 m 353 -267 q 300 -240 314 -267 q 286 -193 286 -212 q 297 -139 286 -169 q 324 -80 308 -108 q 357 -32 340 -51 q 385 -12 374 -12 q 404 -32 396 -12 q 419 -79 413 -51 q 428 -133 425 -107 q 432 -174 432 -160 q 413 -237 432 -208 q 353 -267 393 -267 z "},"ఙ":{"ha":917,"x_min":56,"x_max":903,"o":"m 574 656 q 549 678 551 656 q 542 739 546 703 q 535 810 539 775 q 529 872 532 846 q 526 907 526 899 q 544 951 526 932 q 583 981 561 971 q 619 992 606 992 q 663 960 644 992 q 679 894 682 929 q 669 823 676 864 q 647 744 661 782 q 615 681 633 706 q 574 656 597 656 m 203 -69 q 124 -39 151 -69 q 97 40 97 -8 q 117 129 97 85 q 165 217 136 174 q 221 301 193 260 q 199 296 211 297 q 176 294 188 294 q 85 336 114 294 q 56 438 56 378 q 73 535 56 485 q 122 628 90 585 q 200 699 154 672 q 301 726 246 726 q 392 691 364 726 q 425 607 421 656 q 563 613 492 610 q 699 617 633 615 q 814 618 765 618 q 825 613 819 618 q 831 601 831 608 q 816 565 831 589 q 779 522 801 542 q 732 500 757 501 q 692 501 722 500 q 610 503 663 503 q 520 501 574 503 q 413 497 467 500 q 368 400 396 446 q 312 311 340 354 q 263 226 283 268 q 243 139 243 183 q 293 75 243 75 q 356 97 325 75 q 411 148 386 119 q 451 199 436 176 q 481 232 471 224 q 503 240 490 240 q 522 231 518 240 q 529 211 526 222 q 578 142 542 168 q 661 115 615 115 q 744 140 706 115 q 782 206 782 164 q 770 249 782 233 q 747 275 758 264 q 735 299 735 286 q 743 331 735 310 q 767 376 751 353 q 801 417 782 400 q 843 433 821 433 q 888 403 872 433 q 903 322 903 374 q 875 190 903 251 q 801 81 847 128 q 698 7 756 33 q 579 -19 640 -19 q 494 0 531 -19 q 440 60 457 19 q 315 -38 378 -7 q 203 -69 251 -69 m 244 399 q 262 400 253 399 q 281 406 271 401 q 296 451 290 428 q 301 501 301 475 q 281 579 301 554 q 233 604 260 604 q 174 573 194 604 q 154 504 154 542 q 176 432 154 465 q 244 399 199 399 z "},"చ":{"ha":1046,"x_min":14,"x_max":1011,"o":"m 301 -69 q 197 51 197 -69 q 207 124 197 85 q 240 204 217 164 q 150 199 200 201 q 63 194 100 196 q 22 192 26 192 q 15 197 17 192 q 14 203 14 201 q 23 238 14 214 q 49 285 32 261 q 90 315 67 308 q 110 319 99 318 q 147 322 122 321 q 217 324 171 324 q 343 324 264 324 q 374 317 367 324 q 382 300 382 310 q 376 282 382 290 q 367 269 369 274 q 324 156 324 214 q 344 97 324 118 q 394 75 364 75 q 452 93 424 75 q 508 139 481 111 q 561 198 539 169 q 593 233 583 226 q 614 240 603 240 q 632 232 626 240 q 644 206 639 224 q 663 169 650 189 q 703 133 676 149 q 769 115 733 115 q 857 147 821 115 q 894 197 881 167 q 907 263 907 226 q 887 351 907 303 q 817 436 867 399 q 723 481 779 464 q 588 499 667 499 q 434 482 501 499 q 324 448 367 465 q 269 431 282 431 q 249 448 258 431 q 240 492 240 465 q 272 587 240 528 q 350 706 303 646 q 413 784 378 744 q 490 858 449 824 q 590 931 542 903 q 674 958 639 958 q 701 949 693 958 q 708 925 708 940 q 697 876 708 904 q 674 826 686 849 q 654 797 661 804 q 616 785 643 786 q 549 773 589 785 q 458 718 508 761 q 397 652 424 688 q 350 582 369 617 q 506 626 424 611 q 661 642 589 642 q 925 560 832 642 q 989 470 967 524 q 1011 347 1011 417 q 982 194 1011 265 q 904 74 953 124 q 808 6 861 31 q 699 -18 756 -18 q 613 2 651 -18 q 553 65 575 22 q 422 -37 489 -4 q 301 -69 354 -69 z "},"ఛ":{"ha":1053,"x_min":21,"x_max":1018,"o":"m 308 -69 q 204 51 204 -69 q 214 124 204 85 q 247 204 224 164 q 157 199 207 201 q 70 194 107 196 q 29 192 33 192 q 22 197 24 192 q 21 203 21 201 q 30 238 21 214 q 56 285 39 261 q 97 315 74 308 q 117 319 106 318 q 153 322 129 321 q 224 324 178 324 q 350 324 271 324 q 381 317 374 324 q 389 300 389 310 q 383 282 389 290 q 374 269 376 274 q 331 156 331 214 q 351 97 331 118 q 401 75 371 75 q 459 93 431 75 q 515 139 488 111 q 568 198 546 169 q 600 233 590 226 q 621 240 610 240 q 639 232 633 240 q 651 206 646 224 q 670 169 657 189 q 710 133 683 149 q 776 115 740 115 q 864 147 828 115 q 901 197 888 167 q 914 263 914 226 q 894 351 914 303 q 824 436 874 399 q 730 481 786 464 q 594 499 674 499 q 441 482 508 499 q 331 448 374 465 q 276 431 289 431 q 256 448 265 431 q 247 492 247 465 q 278 587 247 528 q 357 706 310 646 q 420 784 385 744 q 497 858 456 824 q 597 931 549 903 q 681 958 646 958 q 708 949 700 958 q 715 925 715 940 q 704 876 715 904 q 681 826 693 849 q 661 797 668 804 q 623 785 650 786 q 556 773 596 785 q 465 718 515 761 q 403 652 431 688 q 357 582 376 617 q 513 626 431 611 q 668 642 596 642 q 932 560 839 642 q 996 470 974 524 q 1018 347 1018 417 q 989 194 1018 265 q 911 74 960 124 q 815 6 868 31 q 706 -18 763 -18 q 620 2 658 -18 q 560 65 582 22 q 428 -37 496 -4 q 308 -69 361 -69 m 503 -267 q 450 -240 464 -267 q 436 -193 436 -212 q 447 -139 436 -169 q 474 -80 458 -108 q 507 -32 490 -51 q 535 -12 524 -12 q 554 -32 546 -12 q 569 -79 563 -51 q 578 -133 575 -107 q 582 -174 582 -160 q 563 -237 582 -208 q 503 -267 543 -267 z "},"జ":{"ha":917,"x_min":56,"x_max":903,"o":"m 203 -69 q 124 -39 151 -69 q 97 40 97 -8 q 117 129 97 85 q 165 217 136 174 q 221 301 193 260 q 199 296 211 297 q 176 294 188 294 q 85 336 114 294 q 56 438 56 378 q 73 535 56 485 q 122 628 90 585 q 200 699 154 672 q 301 726 246 726 q 426 572 426 726 q 524 532 464 532 q 581 550 554 532 q 626 595 608 568 q 644 650 644 622 q 633 693 644 678 q 609 719 621 708 q 597 743 597 731 q 612 783 597 757 q 651 829 626 808 q 706 850 676 850 q 750 834 735 850 q 765 767 765 818 q 740 632 765 696 q 671 518 714 568 q 572 440 628 468 q 456 411 517 411 q 382 425 411 411 q 323 326 356 374 q 267 233 290 279 q 243 139 243 188 q 293 75 243 75 q 356 97 325 75 q 411 148 386 119 q 451 199 436 176 q 481 232 471 224 q 503 240 490 240 q 522 233 517 240 q 528 214 526 225 q 577 138 539 161 q 661 115 615 115 q 744 140 706 115 q 782 206 782 164 q 770 249 782 233 q 747 275 758 264 q 735 299 735 286 q 743 331 735 310 q 767 376 751 353 q 801 417 782 400 q 843 433 821 433 q 888 403 872 433 q 903 322 903 374 q 875 190 903 251 q 801 81 847 128 q 698 7 756 33 q 579 -19 640 -19 q 494 0 531 -19 q 440 60 457 19 q 315 -38 378 -7 q 203 -69 251 -69 m 244 399 q 262 400 253 399 q 281 406 271 401 q 296 451 290 428 q 301 501 301 475 q 281 579 301 554 q 233 604 260 604 q 174 573 194 604 q 154 504 154 542 q 176 432 154 465 q 244 399 199 399 z "},"ఝ":{"ha":1468,"x_min":69,"x_max":1440,"o":"m 274 -18 q 156 9 200 -18 q 91 82 111 36 q 71 182 71 128 q 107 338 71 261 q 207 469 143 415 q 138 443 165 456 q 97 431 110 431 q 76 449 83 431 q 69 486 69 468 q 89 574 69 524 q 140 678 108 625 q 211 779 172 732 q 289 858 250 826 q 408 933 349 907 q 501 958 468 958 q 530 949 522 958 q 538 925 538 940 q 526 876 538 904 q 503 826 515 849 q 483 797 490 804 q 445 785 472 786 q 378 773 418 785 q 288 718 338 761 q 222 649 250 686 q 175 575 194 611 q 304 622 232 603 q 444 642 376 642 q 567 619 511 642 q 658 547 624 596 q 693 417 693 497 q 672 295 693 357 q 615 179 651 233 q 677 131 639 144 q 754 118 715 118 q 842 135 800 118 q 911 190 885 151 q 938 293 938 228 q 918 388 938 350 q 870 451 899 425 q 815 493 842 476 q 803 505 810 497 q 797 526 797 513 q 813 577 797 550 q 853 624 829 604 q 901 644 876 644 q 976 608 942 644 q 1033 509 1011 571 q 1054 371 1054 447 q 1041 266 1054 315 q 1004 174 1028 217 q 1066 131 1029 143 q 1140 118 1103 118 q 1228 135 1186 118 q 1297 190 1271 151 q 1324 293 1324 228 q 1304 388 1324 350 q 1256 451 1285 425 q 1201 493 1228 476 q 1190 505 1196 497 q 1183 526 1183 513 q 1199 577 1183 550 q 1239 624 1215 604 q 1288 644 1263 644 q 1363 608 1328 644 q 1419 509 1397 571 q 1440 371 1440 447 q 1410 215 1440 286 q 1329 92 1381 143 q 1214 12 1278 40 q 1081 -17 1150 -17 q 988 -2 1039 -17 q 901 54 938 13 q 803 2 856 21 q 694 -17 750 -17 q 597 0 651 -17 q 507 64 543 17 q 398 4 457 26 q 274 -18 339 -18 m 331 125 q 408 136 367 125 q 488 172 450 147 q 549 237 525 197 q 574 332 574 276 q 545 428 574 393 q 469 480 517 464 q 364 496 422 496 q 349 496 357 496 q 333 494 340 496 q 229 377 265 440 q 193 254 193 314 q 227 162 193 199 q 331 125 261 125 m 896 -267 q 843 -240 857 -267 q 829 -193 829 -212 q 840 -139 829 -169 q 867 -80 851 -108 q 900 -32 883 -51 q 928 -12 917 -12 q 947 -32 939 -12 q 962 -79 956 -51 q 972 -133 968 -107 q 975 -174 975 -160 q 956 -237 975 -208 q 896 -267 936 -267 z "},"ఞ":{"ha":1143,"x_min":35,"x_max":1178,"o":"m 938 656 q 913 678 915 656 q 906 739 910 703 q 899 810 903 775 q 893 872 896 846 q 890 907 890 899 q 908 951 890 932 q 947 981 925 971 q 983 992 969 992 q 1025 963 1007 992 q 1043 903 1043 935 q 1035 826 1043 868 q 1012 744 1026 783 q 978 681 997 706 q 938 656 960 656 m 714 -18 q 699 -13 703 -18 q 694 -3 696 -8 q 665 83 685 46 q 621 147 644 119 q 505 60 571 96 q 369 4 439 24 q 239 -15 300 -15 q 113 17 163 -15 q 63 110 63 49 q 108 222 63 167 q 238 313 154 276 q 431 349 321 349 q 520 342 475 349 q 607 322 565 335 q 644 400 631 361 q 658 468 658 439 q 634 531 658 510 q 574 553 610 553 q 503 528 533 553 q 449 472 472 504 q 406 417 425 440 q 368 392 385 392 q 339 403 347 392 q 326 428 331 414 q 313 464 322 444 q 285 497 304 483 q 226 511 265 511 q 158 489 181 511 q 103 422 135 467 q 79 413 96 413 q 50 424 65 413 q 35 453 35 435 q 55 506 35 474 q 109 570 75 538 q 188 625 143 603 q 283 647 233 647 q 362 630 324 647 q 428 575 400 613 q 536 666 476 636 q 647 696 596 696 q 726 674 692 696 q 775 607 760 651 q 912 612 842 610 q 1047 616 982 614 q 1161 618 1113 618 q 1172 613 1167 618 q 1178 601 1178 608 q 1163 565 1178 589 q 1126 520 1149 540 q 1079 500 1104 500 q 1040 501 1069 500 q 957 503 1010 503 q 878 501 922 503 q 781 497 835 500 q 749 394 774 447 q 689 290 725 342 q 791 212 751 258 q 831 108 831 165 q 790 18 831 54 q 751 -7 774 4 q 714 -18 729 -18 m 292 108 q 380 120 332 108 q 475 154 428 132 q 558 204 522 176 q 462 249 511 236 q 371 261 413 261 q 247 233 299 261 q 194 165 194 206 q 222 124 194 139 q 292 108 249 108 z "},"ట":{"ha":1085,"x_min":56,"x_max":1057,"o":"m 349 656 q 324 678 326 656 q 316 739 319 703 q 309 810 313 775 q 303 872 306 846 q 301 907 301 899 q 319 951 301 932 q 358 981 336 971 q 394 992 381 992 q 438 960 419 992 q 454 894 457 929 q 444 823 451 864 q 422 744 436 782 q 390 681 408 706 q 349 656 372 656 m 297 -19 q 176 6 232 -19 q 88 84 121 32 q 56 214 56 136 q 86 367 56 290 q 169 506 117 443 q 286 606 221 568 q 419 643 351 643 q 530 605 488 643 q 572 504 572 567 q 547 417 572 460 q 476 343 521 374 q 371 306 431 313 q 331 317 344 303 q 317 350 317 332 q 328 382 317 369 q 342 384 331 385 q 369 389 354 383 q 415 422 399 397 q 431 469 431 446 q 417 506 431 490 q 375 522 403 522 q 281 490 322 522 q 216 403 239 457 q 193 288 193 350 q 244 156 193 201 q 368 111 294 111 q 472 138 425 111 q 560 211 518 164 q 581 233 572 226 q 603 240 590 240 q 624 226 618 240 q 696 145 644 171 q 796 119 747 119 q 910 163 871 119 q 949 264 949 206 q 930 351 949 308 q 854 436 911 394 q 781 476 822 460 q 696 506 740 493 q 676 533 676 513 q 692 578 676 553 q 731 623 707 604 q 779 642 754 642 q 872 617 819 642 q 961 557 924 593 q 1034 451 1011 510 q 1057 331 1057 392 q 1033 201 1057 264 q 964 89 1008 139 q 859 10 919 39 q 725 -19 799 -19 q 628 1 675 -19 q 543 65 581 22 q 422 1 486 22 q 297 -19 358 -19 z "},"ఠ":{"ha":735,"x_min":69,"x_max":693,"o":"m 274 -18 q 156 9 200 -18 q 91 82 111 36 q 71 182 71 128 q 107 338 71 261 q 207 469 143 415 q 138 443 165 456 q 97 431 110 431 q 76 449 83 431 q 69 486 69 468 q 89 574 69 524 q 140 678 108 625 q 211 779 172 732 q 289 858 250 826 q 408 933 349 907 q 501 958 468 958 q 530 949 522 958 q 538 925 538 940 q 526 876 538 904 q 503 826 515 849 q 483 797 490 804 q 445 785 472 786 q 378 773 418 785 q 288 718 338 761 q 222 649 250 686 q 175 575 194 611 q 304 622 232 603 q 444 642 376 642 q 567 619 511 642 q 658 547 624 596 q 693 417 693 497 q 661 263 693 340 q 572 123 629 186 q 438 21 514 60 q 274 -18 361 -18 m 331 125 q 408 136 367 125 q 488 172 450 147 q 549 237 525 197 q 574 332 574 276 q 545 428 574 393 q 469 480 517 464 q 364 496 422 496 q 349 496 357 496 q 333 494 340 496 q 229 377 265 440 q 193 254 193 314 q 227 162 193 199 q 331 125 261 125 m 390 249 q 340 269 360 249 q 319 319 319 289 q 341 372 319 351 q 394 393 363 393 q 445 374 426 393 q 464 325 464 356 q 443 270 464 292 q 390 249 422 249 z "},"డ":{"ha":926,"x_min":49,"x_max":906,"o":"m 158 -69 q 74 -33 99 -69 q 49 58 49 3 q 69 178 49 115 q 123 302 89 242 q 201 414 157 363 q 296 499 246 465 q 181 454 221 478 q 122 431 142 431 q 101 447 111 431 q 90 486 90 464 q 111 571 90 518 q 158 674 132 624 q 221 766 183 718 q 310 857 258 814 q 429 931 369 906 q 522 957 489 957 q 551 948 543 957 q 558 924 558 939 q 547 875 558 903 q 524 825 536 847 q 504 796 511 803 q 466 784 493 785 q 399 772 439 783 q 308 717 358 760 q 244 648 272 686 q 197 574 217 610 q 312 608 250 593 q 435 633 374 624 q 546 642 496 642 q 576 629 565 642 q 586 600 586 617 q 574 564 586 582 q 536 538 563 546 q 363 447 442 507 q 236 313 283 388 q 189 157 189 238 q 203 99 189 122 q 249 75 217 75 q 303 94 272 75 q 367 144 335 113 q 424 211 399 175 q 467 240 444 240 q 490 218 483 240 q 552 149 506 172 q 651 125 599 125 q 766 153 732 125 q 800 214 800 182 q 780 262 800 242 q 725 282 760 282 q 685 276 703 282 q 656 258 668 269 q 631 250 646 250 q 607 259 617 250 q 597 286 597 268 q 606 321 597 303 q 635 364 614 340 q 690 405 657 388 q 767 422 724 422 q 865 383 824 422 q 906 265 906 343 q 877 156 906 207 q 801 66 849 106 q 696 4 754 26 q 578 -18 638 -18 q 481 2 526 -18 q 403 63 435 22 q 273 -37 339 -6 q 158 -69 207 -69 z "},"ఢ":{"ha":926,"x_min":49,"x_max":906,"o":"m 158 -69 q 74 -33 99 -69 q 49 58 49 3 q 69 178 49 115 q 123 302 89 242 q 201 414 157 363 q 296 499 246 465 q 181 454 221 478 q 122 431 142 431 q 101 447 111 431 q 90 486 90 464 q 111 571 90 518 q 158 674 132 624 q 221 766 183 718 q 310 857 258 814 q 429 931 369 906 q 522 957 489 957 q 551 948 543 957 q 558 924 558 939 q 547 875 558 903 q 524 825 536 847 q 504 796 511 803 q 466 784 493 785 q 399 772 439 783 q 308 717 358 760 q 244 648 272 686 q 197 574 217 610 q 312 608 250 593 q 435 633 374 624 q 546 642 496 642 q 576 629 565 642 q 586 600 586 617 q 574 564 586 582 q 536 538 563 546 q 363 447 442 507 q 236 313 283 388 q 189 157 189 238 q 203 99 189 122 q 249 75 217 75 q 303 94 272 75 q 367 144 335 113 q 424 211 399 175 q 467 240 444 240 q 490 218 483 240 q 552 149 506 172 q 651 125 599 125 q 766 153 732 125 q 800 214 800 182 q 780 262 800 242 q 725 282 760 282 q 685 276 703 282 q 656 258 668 269 q 631 250 646 250 q 607 259 617 250 q 597 286 597 268 q 606 321 597 303 q 635 364 614 340 q 690 405 657 388 q 767 422 724 422 q 865 383 824 422 q 906 265 906 343 q 877 156 906 207 q 801 66 849 106 q 696 4 754 26 q 578 -18 638 -18 q 481 2 526 -18 q 403 63 435 22 q 273 -37 339 -6 q 158 -69 207 -69 m 372 -267 q 319 -240 333 -267 q 306 -193 306 -212 q 317 -139 306 -169 q 344 -80 328 -108 q 376 -32 360 -51 q 404 -12 393 -12 q 424 -32 415 -12 q 438 -79 432 -51 q 448 -133 444 -107 q 451 -174 451 -160 q 432 -237 451 -208 q 372 -267 413 -267 z "},"ణ":{"ha":1042,"x_min":69,"x_max":1014,"o":"m 675 -19 q 557 15 606 -19 q 508 122 508 50 q 537 233 508 178 q 615 327 565 289 q 725 365 664 365 q 805 342 774 365 q 851 283 836 319 q 867 204 867 246 q 865 176 867 190 q 860 150 863 163 q 903 294 903 215 q 873 414 903 364 q 795 491 843 464 q 693 518 747 518 q 624 506 656 518 q 561 476 592 494 q 521 458 531 458 q 504 466 511 458 q 483 490 497 474 q 392 592 428 560 q 306 625 356 625 q 220 590 249 625 q 192 510 192 554 q 210 442 192 475 q 265 389 229 408 q 364 408 317 408 q 413 399 394 408 q 431 369 431 389 q 413 323 431 349 q 375 281 394 297 q 324 253 353 263 q 267 244 296 244 q 193 256 229 244 q 176 215 176 243 q 191 169 176 189 q 229 139 206 150 q 286 124 261 125 q 333 124 311 124 q 360 120 353 124 q 367 106 367 117 q 354 65 367 88 q 325 26 342 43 q 222 -18 281 -18 q 113 28 156 -18 q 71 143 71 75 q 133 289 71 226 q 85 356 100 317 q 69 443 69 396 q 114 595 69 532 q 226 692 158 658 q 365 726 294 726 q 494 694 431 726 q 604 585 557 663 q 701 629 653 615 q 793 643 750 643 q 951 578 888 643 q 1014 388 1014 514 q 989 239 1014 311 q 919 108 964 167 q 812 15 874 50 q 675 -19 750 -19 m 728 100 q 790 108 764 100 q 756 202 790 168 q 675 236 722 236 q 625 220 642 236 q 608 182 608 204 q 636 128 608 156 q 728 100 664 100 z "},"త":{"ha":1047,"x_min":21,"x_max":1021,"o":"m 400 -42 q 199 -12 285 -42 q 67 69 114 17 q 21 193 21 122 q 45 289 21 246 q 108 363 69 332 q 194 411 147 394 q 283 428 240 428 q 381 397 340 428 q 422 301 422 367 q 399 219 422 250 q 346 174 375 188 q 297 160 317 160 q 257 185 269 160 q 244 232 244 210 q 249 255 244 247 q 256 264 253 263 q 274 276 258 267 q 290 308 290 286 q 276 337 290 328 q 243 346 263 346 q 176 320 211 346 q 142 244 142 294 q 190 151 142 189 q 317 92 239 113 q 482 72 394 72 q 634 88 560 72 q 768 135 708 104 q 863 213 828 167 q 899 318 899 258 q 868 422 899 375 q 793 483 838 468 q 814 403 814 450 q 789 308 814 353 q 723 233 764 263 q 631 204 682 204 q 535 247 568 204 q 501 347 501 290 q 528 453 501 400 q 610 542 556 507 q 576 547 593 544 q 542 549 560 549 q 456 537 496 549 q 376 507 415 525 q 343 491 358 499 q 317 483 328 483 q 291 496 299 483 q 283 524 283 508 q 294 576 283 543 q 322 643 306 608 q 351 701 338 678 q 414 794 376 746 q 503 885 451 842 q 622 959 563 933 q 715 985 682 985 q 744 976 736 985 q 751 951 751 967 q 740 903 751 931 q 717 853 729 875 q 697 824 704 831 q 659 812 686 813 q 592 799 632 811 q 501 744 551 788 q 449 691 472 719 q 408 633 426 663 q 560 669 485 669 q 653 652 611 669 q 729 596 696 635 q 775 600 753 600 q 897 570 840 600 q 987 486 953 540 q 1021 358 1021 432 q 967 193 1021 267 q 822 67 913 119 q 622 -14 732 14 q 400 -42 513 -42 m 661 296 q 706 317 685 296 q 726 385 726 339 q 705 458 726 433 q 656 482 683 482 q 608 458 629 482 q 588 390 588 435 q 611 320 588 344 q 661 296 635 296 z "},"థ":{"ha":897,"x_min":49,"x_max":863,"o":"m 157 -69 q 75 -39 101 -69 q 49 47 49 -8 q 76 200 49 121 q 148 351 103 279 q 246 472 193 424 q 166 444 194 458 q 121 431 138 431 q 101 448 110 431 q 92 490 92 465 q 108 571 92 532 q 160 675 124 610 q 222 767 185 719 q 311 858 260 815 q 431 933 371 907 q 524 958 490 958 q 552 949 544 958 q 560 925 560 940 q 549 876 560 904 q 525 826 538 849 q 506 797 513 804 q 467 785 494 786 q 400 773 440 785 q 310 718 360 761 q 249 652 275 688 q 203 582 222 617 q 532 642 350 642 q 703 608 629 642 q 820 506 778 575 q 863 333 863 438 q 838 202 863 265 q 768 90 813 139 q 667 11 724 40 q 549 -18 611 -18 q 465 2 503 -18 q 404 65 426 22 q 273 -37 340 -4 q 157 -69 206 -69 m 247 75 q 302 94 271 75 q 365 144 333 113 q 422 211 397 175 q 465 240 443 240 q 489 218 482 240 q 544 140 507 164 q 621 115 582 115 q 718 157 678 115 q 758 256 758 199 q 719 382 758 328 q 614 467 679 436 q 468 499 549 499 q 413 497 439 499 q 363 493 386 496 q 276 393 315 454 q 213 267 236 332 q 189 153 189 203 q 202 97 189 118 q 247 75 215 75 m 490 281 q 440 301 460 281 q 419 351 419 321 q 441 404 419 383 q 494 425 463 425 q 545 406 526 425 q 564 357 564 388 q 543 302 564 324 q 490 281 522 281 m 375 -267 q 322 -240 336 -267 q 308 -193 308 -212 q 319 -139 308 -169 q 347 -80 331 -108 q 379 -32 363 -51 q 407 -12 396 -12 q 426 -32 418 -12 q 441 -79 435 -51 q 451 -133 447 -107 q 454 -174 454 -160 q 435 -237 454 -208 q 375 -267 415 -267 z "},"ద":{"ha":897,"x_min":49,"x_max":863,"o":"m 157 -69 q 75 -39 101 -69 q 49 47 49 -8 q 76 200 49 121 q 148 351 103 279 q 246 472 193 424 q 166 444 194 458 q 121 431 138 431 q 101 448 110 431 q 92 490 92 465 q 108 571 92 532 q 160 675 124 610 q 222 767 185 719 q 311 858 260 815 q 431 933 371 907 q 524 958 490 958 q 552 949 544 958 q 560 925 560 940 q 549 876 560 904 q 525 826 538 849 q 506 797 513 804 q 467 785 494 786 q 400 773 440 785 q 310 718 360 761 q 249 652 275 688 q 203 582 222 617 q 532 642 350 642 q 703 608 629 642 q 820 506 778 575 q 863 333 863 438 q 838 202 863 265 q 768 90 813 139 q 667 11 724 40 q 549 -18 611 -18 q 465 2 503 -18 q 404 65 426 22 q 273 -37 340 -4 q 157 -69 206 -69 m 247 75 q 302 94 271 75 q 365 144 333 113 q 422 211 397 175 q 465 240 443 240 q 489 218 482 240 q 544 140 507 164 q 621 115 582 115 q 718 157 678 115 q 758 256 758 199 q 719 382 758 328 q 614 467 679 436 q 468 499 549 499 q 413 497 439 499 q 363 493 386 496 q 276 393 315 454 q 213 267 236 332 q 189 153 189 203 q 202 97 189 118 q 247 75 215 75 z "},"ధ":{"ha":897,"x_min":49,"x_max":863,"o":"m 157 -69 q 75 -39 101 -69 q 49 47 49 -8 q 76 200 49 121 q 148 351 103 279 q 246 472 193 424 q 166 444 194 458 q 121 431 138 431 q 101 448 110 431 q 92 490 92 465 q 108 571 92 532 q 160 675 124 610 q 222 767 185 719 q 311 858 260 815 q 431 933 371 907 q 524 958 490 958 q 552 949 544 958 q 560 925 560 940 q 549 876 560 904 q 525 826 538 849 q 506 797 513 804 q 467 785 494 786 q 400 773 440 785 q 310 718 360 761 q 249 652 275 688 q 203 582 222 617 q 532 642 350 642 q 703 608 629 642 q 820 506 778 575 q 863 333 863 438 q 838 202 863 265 q 768 90 813 139 q 667 11 724 40 q 549 -18 611 -18 q 465 2 503 -18 q 404 65 426 22 q 273 -37 340 -4 q 157 -69 206 -69 m 247 75 q 302 94 271 75 q 365 144 333 113 q 422 211 397 175 q 465 240 443 240 q 489 218 482 240 q 544 140 507 164 q 621 115 582 115 q 718 157 678 115 q 758 256 758 199 q 719 382 758 328 q 614 467 679 436 q 468 499 549 499 q 413 497 439 499 q 363 493 386 496 q 276 393 315 454 q 213 267 236 332 q 189 153 189 203 q 202 97 189 118 q 247 75 215 75 m 375 -267 q 322 -240 336 -267 q 308 -193 308 -212 q 319 -139 308 -169 q 347 -80 331 -108 q 379 -32 363 -51 q 407 -12 396 -12 q 426 -32 418 -12 q 441 -79 435 -51 q 451 -133 447 -107 q 454 -174 454 -160 q 435 -237 454 -208 q 375 -267 415 -267 z "},"న":{"ha":664,"x_min":-35,"x_max":629,"o":"m 93 -265 q 35 -246 65 -265 q -15 -191 6 -226 q -35 -107 -35 -156 q -1 13 -35 -46 q 88 112 32 72 q 210 151 143 151 q 312 138 263 151 q 403 124 361 124 q 492 160 460 124 q 525 256 525 197 q 488 378 525 325 q 394 463 451 432 q 275 493 338 493 q 186 476 224 493 q 92 426 149 460 q 72 421 82 421 q 47 439 56 421 q 38 479 38 457 q 50 542 38 506 q 79 616 63 579 q 108 675 96 653 q 171 767 133 719 q 260 858 208 815 q 379 933 319 907 q 472 958 439 958 q 501 949 493 958 q 508 925 508 940 q 497 876 508 904 q 474 826 486 849 q 454 797 461 804 q 416 785 443 786 q 349 773 389 785 q 258 718 308 761 q 199 656 225 690 q 154 588 174 621 q 242 627 196 611 q 335 643 289 643 q 489 604 422 643 q 592 496 556 565 q 629 333 629 426 q 593 176 629 251 q 497 53 557 101 q 412 1 458 21 q 317 -18 365 -18 q 224 -6 260 -18 q 146 7 188 7 q 96 -6 119 7 q 72 -54 72 -18 q 90 -101 72 -85 q 133 -122 108 -117 q 172 -131 157 -128 q 192 -160 192 -132 q 179 -204 192 -179 q 145 -247 167 -229 q 93 -265 124 -265 z "},"ప":{"ha":947,"x_min":21,"x_max":913,"o":"m 229 457 q 203 469 211 457 q 196 497 196 482 q 207 549 196 517 q 234 617 218 582 q 264 675 250 651 q 326 767 289 719 q 415 858 364 815 q 535 933 475 907 q 628 958 594 958 q 656 949 649 958 q 664 925 664 940 q 653 876 664 904 q 629 826 642 849 q 610 797 617 804 q 572 785 599 786 q 504 773 544 785 q 414 718 464 761 q 342 640 372 683 q 293 557 313 596 q 262 492 271 514 q 247 464 253 471 q 229 457 242 457 m 147 -69 q 58 -40 96 -69 q 21 53 21 -11 q 44 156 21 103 q 108 253 67 208 q 204 324 149 297 q 325 351 260 351 q 410 319 379 351 q 446 236 442 288 q 515 146 463 176 q 628 115 567 115 q 753 156 701 115 q 804 267 804 196 q 784 349 804 308 q 728 418 764 389 q 643 468 692 449 q 542 506 594 488 q 524 533 524 511 q 539 579 524 554 q 578 623 554 604 q 628 642 603 642 q 733 615 682 642 q 824 544 783 589 q 888 445 864 500 q 913 333 913 390 q 863 156 913 236 q 729 28 813 75 q 544 -19 646 -19 q 439 3 481 -19 q 375 57 397 26 q 269 -33 331 4 q 147 -69 207 -69 m 215 64 q 306 99 265 64 q 356 183 346 135 q 313 210 338 201 q 261 219 288 219 q 178 195 218 219 q 139 122 139 171 q 160 82 139 100 q 215 64 181 64 z "},"ఫ":{"ha":947,"x_min":21,"x_max":913,"o":"m 229 457 q 203 469 211 457 q 196 497 196 482 q 207 549 196 517 q 234 617 218 582 q 264 675 250 651 q 326 767 289 719 q 415 858 364 815 q 535 933 475 907 q 628 958 594 958 q 656 949 649 958 q 664 925 664 940 q 653 876 664 904 q 629 826 642 849 q 610 797 617 804 q 572 785 599 786 q 504 773 544 785 q 414 718 464 761 q 342 640 372 683 q 293 557 313 596 q 262 492 271 514 q 247 464 253 471 q 229 457 242 457 m 147 -69 q 58 -40 96 -69 q 21 53 21 -11 q 44 156 21 103 q 108 253 67 208 q 204 324 149 297 q 325 351 260 351 q 410 319 379 351 q 446 236 442 288 q 515 146 463 176 q 628 115 567 115 q 753 156 701 115 q 804 267 804 196 q 784 349 804 308 q 728 418 764 389 q 643 468 692 449 q 542 506 594 488 q 524 533 524 511 q 539 579 524 554 q 578 623 554 604 q 628 642 603 642 q 733 615 682 642 q 824 544 783 589 q 888 445 864 500 q 913 333 913 390 q 863 156 913 236 q 729 28 813 75 q 544 -19 646 -19 q 439 3 481 -19 q 375 57 397 26 q 269 -33 331 4 q 147 -69 207 -69 m 215 64 q 306 99 265 64 q 356 183 346 135 q 313 210 338 201 q 261 219 288 219 q 178 195 218 219 q 139 122 139 171 q 160 82 139 100 q 215 64 181 64 m 353 -267 q 300 -240 314 -267 q 286 -193 286 -212 q 297 -139 286 -169 q 324 -80 308 -108 q 357 -32 340 -51 q 385 -12 374 -12 q 404 -32 396 -12 q 419 -79 413 -51 q 428 -133 425 -107 q 432 -174 432 -160 q 413 -237 432 -208 q 353 -267 393 -267 z "},"బ":{"ha":989,"x_min":56,"x_max":954,"o":"m 203 -69 q 124 -39 151 -69 q 97 40 97 -8 q 117 129 97 85 q 165 217 136 174 q 221 301 193 260 q 199 296 211 297 q 176 294 188 294 q 85 336 114 294 q 56 438 56 378 q 73 535 56 485 q 122 628 90 585 q 200 699 154 672 q 301 726 246 726 q 399 683 371 726 q 426 583 426 640 q 399 457 426 515 q 335 347 371 399 q 271 243 299 294 q 243 139 243 192 q 293 75 243 75 q 356 97 325 75 q 411 148 386 119 q 451 199 436 176 q 481 232 471 224 q 503 240 490 240 q 532 218 519 240 q 595 149 556 172 q 679 125 635 125 q 765 147 725 125 q 828 212 804 169 q 853 314 853 254 q 820 438 853 369 q 722 575 788 507 q 710 588 717 582 q 704 608 704 594 q 720 659 704 632 q 760 706 736 686 q 808 726 783 726 q 864 697 838 726 q 910 620 890 668 q 942 514 931 572 q 954 399 954 456 q 910 185 954 279 q 792 38 867 92 q 626 -17 718 -17 q 531 1 582 -17 q 446 65 479 18 q 317 -36 382 -3 q 203 -69 253 -69 m 244 399 q 262 400 253 399 q 281 406 271 401 q 296 451 290 428 q 301 501 301 475 q 281 579 301 554 q 233 604 260 604 q 174 573 194 604 q 154 504 154 542 q 176 432 154 465 q 244 399 199 399 z "},"భ":{"ha":1004,"x_min":56,"x_max":969,"o":"m 203 -69 q 124 -39 151 -69 q 97 40 97 -8 q 117 129 97 85 q 165 217 136 174 q 221 301 193 260 q 199 296 211 297 q 176 294 188 294 q 85 336 114 294 q 56 438 56 378 q 73 535 56 485 q 122 628 90 585 q 200 699 154 672 q 301 726 246 726 q 399 683 371 726 q 426 583 426 640 q 399 457 426 515 q 335 347 371 399 q 271 243 299 294 q 243 139 243 192 q 293 75 243 75 q 356 97 325 75 q 411 148 386 119 q 451 199 436 176 q 481 232 471 224 q 503 240 490 240 q 521 231 515 240 q 531 208 526 222 q 585 136 546 157 q 663 115 625 115 q 755 147 717 115 q 814 228 793 179 q 835 328 835 278 q 786 450 835 403 q 660 497 738 497 q 585 490 625 497 q 533 483 544 483 q 515 494 521 483 q 508 519 508 504 q 514 553 508 535 q 528 586 519 572 q 614 719 560 644 q 743 858 668 793 q 843 931 794 903 q 926 958 892 958 q 953 949 946 958 q 961 925 961 940 q 950 876 961 904 q 926 826 939 849 q 907 797 914 804 q 869 785 896 786 q 801 773 842 785 q 711 718 761 761 q 666 673 686 697 q 629 624 646 649 q 694 638 663 633 q 751 642 725 642 q 913 581 857 642 q 969 419 969 521 q 938 264 969 342 q 853 122 907 186 q 731 20 799 58 q 592 -18 664 -18 q 506 1 546 -18 q 442 61 465 21 q 315 -37 379 -6 q 203 -69 251 -69 m 244 399 q 262 400 253 399 q 281 406 271 401 q 296 451 290 428 q 301 501 301 475 q 281 579 301 554 q 233 604 260 604 q 174 573 194 604 q 154 504 154 542 q 176 432 154 465 q 244 399 199 399 m 404 -267 q 351 -240 365 -267 q 338 -193 338 -212 q 349 -139 338 -169 q 376 -80 360 -108 q 408 -32 392 -51 q 436 -12 425 -12 q 456 -32 447 -12 q 470 -79 464 -51 q 480 -133 476 -107 q 483 -174 483 -160 q 464 -237 483 -208 q 404 -267 444 -267 z "},"మ":{"ha":1288,"x_min":21,"x_max":1260,"o":"m 147 -69 q 58 -40 96 -69 q 21 53 21 -11 q 44 156 21 103 q 108 253 67 208 q 204 324 149 297 q 325 351 260 351 q 414 315 382 351 q 446 222 446 279 q 505 143 463 169 q 593 117 547 117 q 690 151 646 117 q 733 250 733 185 q 705 356 733 304 q 625 444 676 408 q 548 483 590 468 q 456 497 506 497 q 317 479 381 497 q 213 443 254 461 q 156 425 171 425 q 117 448 131 425 q 103 497 103 471 q 114 549 103 517 q 141 617 125 582 q 171 675 157 651 q 233 767 196 719 q 322 858 271 815 q 442 933 382 907 q 535 958 501 958 q 563 949 556 958 q 571 925 571 940 q 560 876 571 904 q 536 826 549 849 q 517 797 524 804 q 478 785 506 786 q 411 773 451 785 q 321 718 371 761 q 256 647 283 686 q 208 572 228 608 q 376 624 294 608 q 521 640 457 640 q 709 594 640 640 q 808 473 778 547 q 838 315 838 399 q 811 193 838 251 q 876 134 835 150 q 960 118 918 118 q 1048 135 1006 118 q 1117 190 1090 151 q 1143 293 1143 228 q 1123 387 1143 350 q 1074 449 1103 424 q 1021 493 1046 474 q 1009 506 1015 499 q 1003 526 1003 513 q 1019 577 1003 550 q 1058 624 1035 604 q 1107 644 1082 644 q 1182 608 1147 644 q 1238 509 1217 571 q 1260 371 1260 447 q 1230 215 1260 286 q 1149 92 1200 143 q 1033 12 1097 40 q 900 -17 969 -17 q 805 -1 857 -17 q 717 60 753 15 q 628 3 678 25 q 519 -18 578 -18 q 436 0 476 -18 q 371 53 396 18 q 266 -34 326 1 q 147 -69 206 -69 m 215 64 q 306 99 265 64 q 356 183 346 135 q 313 210 338 201 q 261 219 288 219 q 178 195 218 219 q 139 122 139 171 q 160 82 139 100 q 215 64 181 64 z "},"య":{"ha":1488,"x_min":50,"x_max":1460,"o":"m 244 -22 q 102 26 154 -22 q 50 174 50 74 q 85 329 50 251 q 197 474 121 407 q 188 472 192 472 q 181 471 183 471 q 161 489 161 471 q 179 535 161 507 q 224 589 197 564 q 275 621 251 614 q 418 642 350 642 q 585 589 518 642 q 651 419 651 536 q 635 311 651 368 q 588 200 619 254 q 646 135 607 156 q 729 114 685 114 q 833 140 783 114 q 916 213 883 165 q 949 326 949 261 q 924 426 949 392 q 862 473 899 460 q 786 486 825 486 q 767 485 776 486 q 749 483 757 483 q 731 494 738 483 q 725 519 725 506 q 731 553 725 535 q 744 586 736 572 q 831 719 776 644 q 960 858 885 793 q 1060 931 1011 903 q 1143 958 1108 958 q 1170 949 1163 958 q 1178 925 1178 940 q 1167 876 1178 904 q 1143 826 1156 849 q 1124 797 1131 804 q 1085 785 1113 786 q 1018 773 1058 785 q 928 718 978 761 q 883 673 903 697 q 846 624 863 649 q 857 625 851 625 q 868 625 863 625 q 966 601 919 625 q 1042 532 1013 578 q 1071 418 1071 486 q 1054 302 1071 358 q 1010 197 1038 246 q 1074 135 1032 153 q 1160 118 1117 118 q 1248 135 1206 118 q 1317 190 1290 151 q 1343 293 1343 228 q 1324 388 1343 350 q 1276 451 1304 425 q 1221 493 1247 476 q 1209 505 1215 497 q 1203 526 1203 513 q 1219 577 1203 550 q 1258 624 1235 604 q 1307 644 1282 644 q 1382 608 1347 644 q 1438 509 1417 571 q 1460 371 1460 447 q 1430 215 1460 286 q 1349 92 1400 143 q 1233 12 1297 40 q 1100 -17 1169 -17 q 997 2 1053 -17 q 906 75 940 21 q 794 7 854 32 q 675 -18 733 -18 q 573 5 621 -18 q 490 76 525 28 q 380 6 442 33 q 244 -22 318 -22 m 310 125 q 380 135 342 125 q 453 169 418 146 q 510 233 488 193 q 532 332 532 274 q 493 448 532 401 q 361 494 454 494 q 329 492 346 494 q 297 489 313 490 q 228 417 260 458 q 178 335 197 376 q 160 257 160 293 q 199 163 160 201 q 310 125 239 125 z "},"ర":{"ha":735,"x_min":69,"x_max":693,"o":"m 274 -18 q 156 9 200 -18 q 91 82 111 36 q 71 182 71 128 q 107 338 71 261 q 207 469 143 415 q 138 443 165 456 q 97 431 110 431 q 76 449 83 431 q 69 486 69 468 q 89 574 69 524 q 140 678 108 625 q 211 779 172 732 q 289 858 250 826 q 408 933 349 907 q 501 958 468 958 q 530 949 522 958 q 538 925 538 940 q 526 876 538 904 q 503 826 515 849 q 483 797 490 804 q 445 785 472 786 q 378 773 418 785 q 288 718 338 761 q 222 649 250 686 q 175 575 194 611 q 304 622 232 603 q 444 642 376 642 q 567 619 511 642 q 658 547 624 596 q 693 417 693 497 q 661 263 693 340 q 572 123 629 186 q 438 21 514 60 q 274 -18 361 -18 m 331 125 q 408 136 367 125 q 488 172 450 147 q 549 237 525 197 q 574 332 574 276 q 545 428 574 393 q 469 480 517 464 q 364 496 422 496 q 349 496 357 496 q 333 494 340 496 q 229 377 265 440 q 193 254 193 314 q 227 162 193 199 q 331 125 261 125 z "},"ల":{"ha":918,"x_min":56,"x_max":883,"o":"m 378 -21 q 215 10 288 -21 q 99 99 142 40 q 56 240 56 158 q 86 383 56 313 q 170 512 117 454 q 291 604 224 569 q 431 639 358 639 q 547 598 504 639 q 590 492 590 557 q 566 403 590 444 q 505 330 542 361 q 428 281 468 299 q 357 264 389 264 q 316 277 332 264 q 300 307 300 290 q 313 333 300 322 q 339 349 325 343 q 417 399 392 367 q 442 460 442 431 q 422 508 442 486 q 367 529 403 529 q 312 515 338 529 q 265 481 286 501 q 212 401 233 450 q 190 308 190 353 q 228 199 190 243 q 324 134 265 156 q 450 113 383 113 q 601 141 528 113 q 722 227 675 169 q 769 371 769 285 q 747 469 769 410 q 664 583 725 528 q 636 611 647 599 q 625 639 625 624 q 643 684 625 660 q 688 726 661 708 q 736 744 714 744 q 811 701 778 744 q 864 589 844 658 q 883 442 883 519 q 838 238 883 325 q 717 93 792 150 q 553 8 642 36 q 378 -21 464 -21 z "},"వ":{"ha":872,"x_min":21,"x_max":838,"o":"m 147 -69 q 58 -40 96 -69 q 21 53 21 -11 q 44 156 21 103 q 108 253 67 208 q 204 324 149 297 q 325 351 260 351 q 414 315 382 351 q 446 222 446 279 q 505 143 463 169 q 593 117 547 117 q 690 151 646 117 q 733 250 733 185 q 705 356 733 304 q 625 444 676 408 q 548 483 590 468 q 456 497 506 497 q 317 479 381 497 q 213 443 254 461 q 156 425 171 425 q 117 448 131 425 q 103 497 103 471 q 114 549 103 517 q 141 617 125 582 q 171 675 157 651 q 233 767 196 719 q 322 858 271 815 q 442 933 382 907 q 535 958 501 958 q 563 949 556 958 q 571 925 571 940 q 560 876 571 904 q 536 826 549 849 q 517 797 524 804 q 478 785 506 786 q 411 773 451 785 q 321 718 371 761 q 256 647 283 686 q 208 572 228 608 q 376 624 294 608 q 521 640 457 640 q 709 594 640 640 q 808 473 778 547 q 838 315 838 399 q 815 199 838 258 q 749 91 792 140 q 649 12 707 42 q 519 -18 590 -18 q 436 0 476 -18 q 371 53 396 18 q 266 -34 326 1 q 147 -69 206 -69 m 215 64 q 306 99 265 64 q 356 183 346 135 q 313 210 338 201 q 261 219 288 219 q 178 195 218 219 q 139 122 139 171 q 160 82 139 100 q 215 64 181 64 z "},"శ":{"ha":844,"x_min":21,"x_max":817,"o":"m 506 -42 q 385 -1 428 -42 q 343 101 343 39 q 369 213 343 154 q 421 324 394 272 q 294 310 358 324 q 186 264 231 296 q 144 222 161 246 q 128 168 128 199 q 162 110 128 126 q 232 94 196 94 q 247 85 243 94 q 251 65 251 76 q 239 21 251 46 q 204 -22 226 -4 q 153 -40 182 -40 q 85 -17 115 -40 q 38 42 56 6 q 21 121 21 79 q 47 237 21 186 q 117 326 74 288 q 274 414 181 383 q 467 450 367 444 q 436 499 467 486 q 372 513 406 513 q 332 509 349 513 q 304 506 315 506 q 284 516 290 506 q 278 542 278 526 q 294 607 278 565 q 341 699 311 649 q 410 799 371 750 q 493 886 449 849 q 613 960 553 935 q 706 986 672 986 q 734 977 726 986 q 742 953 742 968 q 731 904 742 932 q 707 854 719 876 q 688 825 694 832 q 649 813 676 814 q 582 801 622 813 q 492 746 542 789 q 442 694 464 722 q 401 638 419 665 q 442 642 422 642 q 522 618 490 642 q 553 538 553 594 q 550 497 553 519 q 543 451 547 475 q 681 426 619 449 q 780 360 743 404 q 817 246 817 315 q 792 143 817 194 q 726 50 768 92 q 627 -17 683 8 q 506 -42 571 -42 m 583 81 q 660 108 626 81 q 694 174 694 135 q 669 240 694 211 q 602 287 643 268 q 513 315 561 306 q 493 230 501 269 q 485 164 485 190 q 517 101 485 121 q 583 81 549 81 z "},"ష":{"ha":975,"x_min":21,"x_max":913,"o":"m 229 457 q 203 469 211 457 q 196 497 196 482 q 198 515 196 506 q 201 531 200 524 q 231 608 208 553 q 299 731 254 663 q 415 858 344 800 q 535 933 475 907 q 628 958 594 958 q 656 949 649 958 q 664 925 664 940 q 653 876 664 904 q 629 826 642 849 q 610 797 617 804 q 572 785 599 786 q 504 773 544 785 q 414 718 464 761 q 338 633 369 681 q 285 542 306 585 q 253 475 265 500 q 244 461 249 465 q 229 457 240 457 m 763 -172 q 735 -151 743 -172 q 728 -74 728 -129 q 728 -14 728 -42 q 732 36 729 14 q 643 -3 692 13 q 543 -19 594 -19 q 440 3 482 -19 q 375 57 397 26 q 269 -33 331 4 q 144 -69 207 -69 q 58 -40 94 -69 q 21 54 21 -11 q 44 156 21 104 q 108 253 68 208 q 203 324 149 297 q 317 351 257 351 q 409 321 378 351 q 446 236 440 290 q 512 148 461 181 q 629 115 563 115 q 712 131 672 115 q 777 179 751 146 q 803 267 803 213 q 780 357 803 319 q 722 421 757 394 q 650 465 688 447 q 583 492 613 482 q 542 506 553 501 q 524 532 524 513 q 540 583 524 558 q 583 625 557 608 q 638 642 610 642 q 722 619 675 642 q 813 554 769 596 q 885 457 857 513 q 913 335 913 401 q 878 196 913 265 q 878 109 878 153 q 875 25 878 65 q 869 -86 872 -50 q 850 -138 865 -122 q 797 -165 835 -154 q 763 -172 774 -172 m 215 64 q 306 99 265 64 q 356 183 346 135 q 313 210 338 201 q 261 219 288 219 q 178 194 217 219 q 139 126 139 169 q 162 79 139 94 q 215 64 185 64 z "},"స":{"ha":718,"x_min":-35,"x_max":676,"o":"m 125 457 q 99 469 107 457 q 92 497 92 482 q 94 515 92 506 q 97 531 96 524 q 128 612 106 557 q 196 733 151 667 q 311 858 240 800 q 431 933 371 907 q 524 958 490 958 q 552 949 544 958 q 560 925 560 940 q 549 876 560 904 q 525 826 538 849 q 506 797 513 804 q 467 785 494 786 q 400 773 440 785 q 310 718 360 761 q 231 628 263 678 q 179 538 199 579 q 149 475 160 496 q 140 461 144 465 q 125 457 136 457 m 93 -265 q 35 -246 65 -265 q -15 -190 6 -226 q -35 -107 -35 -154 q -17 -19 -35 -64 q 34 65 1 26 q 112 128 67 104 q 213 151 157 151 q 263 149 231 151 q 330 144 294 147 q 397 138 365 140 q 446 136 428 136 q 540 174 510 136 q 569 265 569 213 q 537 373 569 319 q 419 453 504 426 q 400 481 400 458 q 417 527 400 501 q 458 572 433 553 q 508 589 483 590 q 597 553 558 586 q 656 466 635 519 q 676 349 676 413 q 655 217 676 282 q 591 100 633 153 q 488 15 549 47 q 347 -17 426 -17 q 278 -10 317 -17 q 204 1 240 -4 q 146 7 168 7 q 96 -6 119 7 q 72 -54 72 -18 q 90 -101 72 -85 q 133 -122 108 -117 q 172 -131 157 -128 q 192 -160 192 -132 q 179 -204 192 -179 q 144 -247 167 -229 q 93 -265 122 -265 z "},"హ":{"ha":1406,"x_min":21,"x_max":1406,"o":"m 229 457 q 203 469 211 457 q 196 497 196 482 q 198 515 196 506 q 201 531 200 524 q 233 612 210 557 q 300 733 256 667 q 415 858 344 800 q 535 933 475 907 q 628 958 594 958 q 656 949 649 958 q 664 925 664 940 q 653 876 664 904 q 629 826 642 849 q 610 797 617 804 q 572 785 599 786 q 504 773 544 785 q 414 718 464 761 q 335 628 367 678 q 283 538 303 579 q 253 475 264 496 q 244 461 249 465 q 229 457 240 457 m 147 -69 q 58 -40 96 -69 q 21 53 21 -11 q 44 156 21 103 q 108 253 67 208 q 204 324 149 297 q 325 351 260 351 q 410 319 379 351 q 446 236 442 288 q 515 146 463 176 q 628 115 567 115 q 678 121 653 115 q 726 138 704 126 q 781 185 760 156 q 803 256 803 215 q 766 378 803 331 q 669 456 729 426 q 542 506 610 485 q 524 533 524 511 q 539 579 524 556 q 577 621 554 603 q 624 642 600 639 q 729 649 664 646 q 869 651 794 651 q 1026 649 947 651 q 1172 643 1106 647 q 1275 633 1238 639 q 1335 617 1306 629 q 1385 576 1365 606 q 1406 486 1406 546 q 1374 354 1406 414 q 1294 259 1343 294 q 1189 224 1244 224 q 1071 351 1071 224 q 1090 446 1071 400 q 1138 517 1110 492 q 1032 522 1086 521 q 925 524 978 524 q 863 524 894 524 q 803 522 832 524 q 885 440 857 494 q 913 333 913 386 q 888 208 913 268 q 822 101 864 149 q 740 34 788 61 q 641 -6 692 7 q 544 -19 590 -19 q 439 3 481 -19 q 375 57 397 26 q 269 -33 331 4 q 147 -69 207 -69 m 1232 357 q 1292 382 1272 357 q 1313 433 1313 407 q 1298 476 1313 457 q 1251 494 1283 494 q 1190 468 1213 494 q 1168 413 1168 442 q 1183 374 1168 390 q 1232 357 1199 357 m 215 64 q 306 99 265 64 q 356 183 346 135 q 313 210 338 201 q 261 219 288 219 q 178 195 218 219 q 139 122 139 171 q 160 82 139 100 q 215 64 181 64 z "},"ఱ":{"ha":1174,"x_min":56,"x_max":1153,"o":"m 301 -22 q 122 43 189 -22 q 56 217 56 108 q 85 368 56 289 q 165 517 114 447 q 283 629 217 586 q 425 672 350 672 q 526 636 494 672 q 558 550 558 600 q 545 482 558 517 q 506 418 532 447 q 560 419 533 419 q 613 419 588 419 q 656 419 632 419 q 706 418 679 419 q 701 453 701 433 q 740 576 701 525 q 836 653 779 626 q 949 679 893 679 q 1048 654 1001 679 q 1124 576 1094 629 q 1153 436 1153 522 q 1116 259 1153 342 q 1018 115 1079 176 q 881 18 957 53 q 728 -17 806 -17 q 626 3 675 -17 q 532 65 576 22 q 426 2 483 26 q 301 -22 369 -22 m 357 111 q 460 138 414 111 q 549 211 507 164 q 570 233 561 226 q 592 240 579 240 q 613 226 606 240 q 687 143 642 168 q 783 118 732 118 q 908 146 853 118 q 997 228 964 174 q 1029 364 1029 283 q 1005 467 1029 428 q 947 526 981 507 q 881 544 913 544 q 828 528 850 544 q 807 476 807 511 q 829 426 807 442 q 885 406 851 410 q 956 401 919 401 q 967 397 961 401 q 972 386 972 393 q 957 351 972 375 q 917 308 942 328 q 868 289 893 289 q 776 295 853 289 q 561 301 699 301 q 347 295 424 301 q 257 289 271 289 q 243 294 246 289 q 240 301 240 300 q 249 332 240 310 q 277 378 258 354 q 324 410 296 401 q 398 441 368 424 q 428 501 428 458 q 376 560 428 560 q 310 537 344 560 q 247 476 276 514 q 200 389 218 438 q 182 288 182 340 q 233 156 182 201 q 357 111 283 111 z "},"ళ":{"ha":1031,"x_min":28,"x_max":1003,"o":"m 714 -42 q 628 -24 669 -42 q 561 29 588 -7 q 535 119 535 65 q 549 197 535 151 q 581 286 563 242 q 420 282 494 285 q 285 279 346 279 q 97 333 167 279 q 28 492 28 386 q 57 619 28 558 q 140 718 86 679 q 265 757 193 757 q 351 738 311 757 q 416 681 392 719 q 440 583 440 642 q 375 399 440 494 q 406 397 390 397 q 439 397 422 397 q 544 400 496 397 q 635 404 593 403 q 653 441 644 422 q 663 478 663 460 q 608 529 663 517 q 570 549 582 536 q 558 576 558 561 q 581 641 558 600 q 640 728 604 682 q 714 817 675 775 q 785 888 753 860 q 885 960 836 932 q 968 988 933 988 q 995 978 988 988 q 1003 954 1003 969 q 992 906 1003 933 q 968 856 981 878 q 949 826 956 833 q 910 815 938 815 q 843 802 883 814 q 753 747 803 790 q 715 710 732 729 q 682 669 697 690 q 767 627 739 658 q 794 560 794 596 q 778 499 794 535 q 732 411 761 463 q 923 370 851 411 q 994 225 994 329 q 972 129 994 176 q 911 43 950 82 q 822 -19 872 4 q 714 -42 771 -42 m 292 408 q 315 494 315 454 q 282 591 315 553 q 210 629 249 629 q 156 606 178 629 q 135 549 135 583 q 180 454 135 486 q 292 408 225 422 m 779 83 q 846 103 817 83 q 875 163 875 124 q 844 239 875 213 q 767 276 813 265 q 678 288 722 288 q 658 192 658 232 q 697 110 658 138 q 779 83 736 83 z "},"ఴ":{"ha":1185,"x_min":56,"x_max":1164,"o":"m 297 -19 q 176 6 232 -19 q 88 84 121 32 q 56 214 56 136 q 85 367 56 292 q 166 504 114 443 q 287 602 218 565 q 433 639 356 639 q 550 598 507 639 q 593 492 593 557 q 569 403 593 444 q 508 330 544 361 q 431 281 471 299 q 360 264 392 264 q 319 277 335 264 q 303 307 303 290 q 315 333 303 322 q 342 349 328 343 q 419 399 394 367 q 444 460 444 431 q 425 508 444 486 q 369 529 406 529 q 315 515 340 529 q 268 481 289 501 q 211 393 232 446 q 190 288 190 340 q 242 158 190 206 q 368 111 294 111 q 472 138 425 111 q 560 211 518 164 q 581 233 572 226 q 603 240 590 240 q 625 224 617 240 q 698 142 653 167 q 794 118 743 118 q 919 146 864 118 q 1008 228 975 174 q 1040 364 1040 283 q 1016 467 1040 428 q 958 526 992 507 q 892 544 924 544 q 830 521 854 544 q 806 457 806 497 q 838 390 806 407 q 906 374 871 374 q 921 365 917 374 q 925 344 925 356 q 913 300 925 325 q 878 257 900 275 q 826 239 856 239 q 770 257 800 239 q 719 313 740 275 q 699 408 699 350 q 739 549 699 488 q 840 644 779 610 q 964 679 901 679 q 1060 654 1014 679 q 1135 576 1106 629 q 1164 436 1164 522 q 1126 258 1164 340 q 1027 114 1089 175 q 890 18 965 53 q 739 -17 815 -17 q 637 3 686 -17 q 543 65 588 22 q 422 1 486 22 q 297 -19 358 -19 z "},"ం":{"ha":588,"x_min":21,"x_max":525,"o":"m 229 82 q 122 123 161 82 q 83 238 83 164 q 67 211 75 219 q 46 203 60 203 q 25 216 29 203 q 21 243 21 229 q 40 345 21 288 q 99 458 60 403 q 200 548 139 513 q 344 583 261 583 q 456 557 417 583 q 510 490 494 531 q 525 408 525 450 q 501 289 525 347 q 437 184 478 231 q 342 110 396 138 q 229 82 289 82 m 261 228 q 331 241 292 228 q 400 283 371 254 q 429 354 429 311 q 406 413 429 385 q 314 442 383 442 q 207 415 249 442 q 139 350 165 388 q 174 260 139 293 q 261 228 210 228 z "},"ఁ":{"ha":526,"x_min":42,"x_max":464,"o":"m 322 -21 q 183 8 247 -21 q 81 94 119 36 q 42 242 42 153 q 74 393 42 321 q 159 522 106 465 q 278 612 213 579 q 408 644 343 644 q 440 636 432 644 q 449 617 449 628 q 436 585 449 599 q 388 560 424 572 q 290 510 342 544 q 203 424 239 475 q 168 307 168 374 q 234 160 168 210 q 400 110 300 110 q 464 76 464 110 q 454 40 464 61 q 406 -3 442 14 q 322 -21 371 -21 z "},"ః":{"ha":440,"x_min":21,"x_max":378,"o":"m 193 431 q 135 453 157 431 q 106 507 114 476 q 95 488 100 490 q 83 483 90 485 q 67 501 71 483 q 63 539 63 518 q 89 648 63 597 q 161 730 115 699 q 265 761 207 761 q 344 724 318 761 q 371 636 371 688 q 346 536 371 583 q 281 460 321 489 q 193 431 240 431 m 204 536 q 268 558 236 536 q 300 610 300 581 q 290 641 300 625 q 246 657 281 657 q 139 592 176 657 q 161 551 143 565 q 204 536 179 536 m 168 28 q 92 56 119 28 q 65 133 65 83 q 54 116 60 122 q 39 110 49 110 q 24 119 28 110 q 21 138 21 128 q 35 208 21 168 q 76 284 49 247 q 148 345 104 321 q 250 369 192 369 q 328 351 301 369 q 367 306 356 333 q 378 250 378 278 q 349 144 378 194 q 272 60 319 93 q 168 28 225 28 m 193 138 q 236 146 213 138 q 277 171 260 154 q 294 213 294 188 q 281 246 294 229 q 225 263 268 263 q 164 249 189 263 q 119 214 139 235 q 141 156 119 175 q 193 138 163 138 z "},"్":{"ha":0,"x_min":0,"x_max":576,"o":"m 111 578 q 33 604 67 578 q 0 690 0 631 q 22 757 0 725 q 74 813 43 789 q 19 849 36 824 q 1 906 1 875 q 72 1056 1 981 q 201 1131 132 1117 q 363 1146 269 1146 q 445 1146 403 1146 q 520 1146 488 1146 q 560 1144 553 1146 q 574 1138 571 1143 q 576 1131 576 1133 q 567 1091 576 1118 q 543 1041 558 1064 q 508 1018 528 1018 l 289 1022 q 203 1019 246 1024 q 133 1001 161 1015 q 106 960 106 988 q 132 917 106 933 q 188 890 158 901 q 210 883 199 886 q 221 865 221 879 q 203 831 221 847 q 164 800 186 815 q 124 766 142 785 q 106 724 106 747 q 186 682 106 682 l 229 682 q 242 667 242 682 q 225 618 242 642 q 175 585 206 593 q 111 578 144 578 z "},"ఽ":{"ha":1046,"x_min":56,"x_max":1039,"o":"m 385 1 q 268 3 326 1 q 162 16 210 6 q 85 51 114 26 q 56 118 56 75 q 110 230 56 179 q 308 336 165 281 q 410 374 372 361 q 466 400 449 388 q 483 432 483 413 q 441 493 483 474 q 340 513 399 513 q 269 508 306 513 q 201 499 232 504 q 157 491 179 496 q 124 486 135 486 q 103 507 103 486 q 116 551 103 528 q 150 594 129 575 q 190 621 171 614 q 269 638 222 632 q 367 643 315 643 q 492 633 436 643 q 583 592 549 622 q 614 551 604 574 q 624 501 624 528 q 596 410 624 449 q 524 344 568 372 q 430 297 481 317 q 333 260 379 276 q 245 223 282 242 q 208 185 208 204 q 242 147 208 158 q 330 132 275 135 q 450 129 385 129 l 988 129 q 1039 108 1039 129 q 1035 87 1039 100 q 1024 61 1031 74 q 992 21 1013 39 q 936 3 972 3 l 385 1 z "},"౦":{"ha":657,"x_min":42,"x_max":615,"o":"m 267 -22 q 97 47 153 -22 q 42 224 42 115 q 68 353 42 289 q 151 474 94 418 q 142 472 146 472 q 133 471 138 471 q 113 493 113 471 q 127 540 113 513 q 164 590 142 567 q 208 621 186 614 q 349 642 279 642 q 544 569 474 642 q 615 372 615 496 q 593 237 615 306 q 526 109 571 168 q 417 14 482 50 q 267 -22 353 -22 m 313 125 q 398 141 353 125 q 476 195 443 157 q 508 297 508 233 q 457 441 508 388 q 311 494 406 494 q 276 493 293 494 q 243 489 260 492 q 169 387 197 447 q 142 275 142 326 q 189 169 142 214 q 313 125 236 125 z "},"౧":{"ha":728,"x_min":42,"x_max":686,"o":"m 144 -17 q 89 13 113 -17 q 53 94 65 43 q 42 204 42 144 q 74 375 42 296 q 159 515 106 454 q 281 609 213 575 q 421 643 349 643 q 553 609 493 643 q 649 494 613 575 q 686 268 686 413 q 681 162 686 206 q 668 82 676 118 q 642 48 665 71 q 590 6 618 25 q 544 -14 563 -14 q 529 3 529 -14 q 542 113 538 64 q 547 201 547 161 q 538 315 547 258 q 508 416 529 371 q 450 488 488 461 q 354 515 413 515 q 257 483 294 515 q 201 396 219 450 q 183 276 183 342 q 219 86 183 179 q 232 42 232 56 q 226 23 232 31 q 207 7 219 15 q 144 -17 172 -17 z "},"౨":{"ha":1043,"x_min":42,"x_max":1001,"o":"m 410 -17 q 231 2 315 -17 q 94 56 146 21 q 42 140 42 90 q 53 191 42 165 q 83 233 65 217 q 115 250 100 250 q 140 234 126 250 q 176 203 154 218 q 330 135 242 160 q 510 110 418 110 q 636 117 574 110 q 752 147 699 125 q 840 213 806 169 q 879 318 879 261 q 860 396 879 360 q 808 454 840 432 q 813 423 811 439 q 815 390 815 407 q 793 281 815 333 q 728 197 771 229 q 625 164 686 164 q 558 181 590 164 q 503 233 525 197 q 482 324 482 268 q 519 463 482 401 q 619 561 556 525 q 765 597 683 597 q 894 567 842 597 q 974 485 946 536 q 1001 371 1001 433 q 974 241 1001 303 q 903 135 947 179 q 769 46 847 79 q 599 -2 690 13 q 410 -17 507 -17 m 657 267 q 707 290 685 267 q 729 365 729 314 q 705 445 729 418 q 651 472 681 472 q 599 446 622 472 q 575 371 575 419 q 601 293 575 319 q 657 267 626 267 z "},"౩":{"ha":713,"x_min":42,"x_max":671,"o":"m 317 -18 q 185 4 249 -18 q 82 63 122 26 q 42 138 42 99 q 49 175 42 158 q 65 203 56 192 q 93 227 76 215 q 124 239 110 239 q 144 226 136 239 q 174 192 151 213 q 236 146 201 165 q 309 118 269 128 q 396 108 349 108 q 455 115 426 108 q 506 135 483 121 q 543 170 531 150 q 556 211 556 190 q 521 280 556 249 q 421 311 486 311 l 318 311 q 296 328 296 311 q 305 367 296 343 q 329 410 314 392 q 361 429 344 429 q 450 460 426 429 q 474 521 474 492 q 440 581 474 561 q 361 600 407 600 q 249 572 297 600 q 156 500 200 544 q 115 478 133 478 q 93 489 101 478 q 85 514 85 500 q 117 581 85 544 q 203 650 150 617 q 317 705 256 683 q 436 726 378 726 q 566 692 513 726 q 619 593 619 657 q 591 503 619 547 q 518 435 563 460 q 587 422 557 435 q 632 393 617 410 q 662 344 653 371 q 671 285 671 317 q 642 168 671 228 q 564 67 613 108 q 447 1 513 21 q 317 -18 382 -18 z "},"౪":{"ha":794,"x_min":14,"x_max":767,"o":"m 489 -196 q 400 -178 442 -196 q 333 -124 358 -160 q 307 -40 307 -89 q 321 42 307 -4 q 353 135 335 89 q 178 153 251 138 q 61 219 104 169 q 25 290 36 250 q 14 374 14 331 q 34 501 14 439 q 87 603 54 563 q 157 643 119 643 q 179 626 179 643 q 165 580 179 610 q 135 512 150 550 q 121 432 121 474 q 131 378 121 406 q 163 326 140 351 q 258 269 203 285 q 408 254 314 254 q 438 321 428 292 q 449 383 449 350 q 422 466 449 442 q 368 503 394 490 q 340 519 346 514 q 333 539 333 525 q 356 608 333 574 q 428 643 379 643 q 503 615 471 643 q 555 545 536 588 q 574 460 574 503 q 551 356 574 408 q 504 257 528 304 q 593 250 547 257 q 678 225 639 243 q 742 172 718 207 q 767 79 767 136 q 728 -55 767 8 q 626 -157 689 -118 q 489 -196 563 -196 m 553 -71 q 618 -51 589 -71 q 647 13 647 -32 q 615 86 647 61 q 538 122 583 111 q 450 133 492 132 q 431 39 431 78 q 469 -44 431 -17 q 553 -71 508 -71 z "},"౫":{"ha":1056,"x_min":14,"x_max":1014,"o":"m 168 -193 q 57 -155 100 -193 q 14 -57 14 -117 q 49 50 14 1 q 147 142 85 99 q 289 228 208 186 q 460 315 369 271 q 426 430 454 385 q 357 498 397 475 q 274 521 317 521 q 209 508 236 521 q 163 481 182 494 q 126 468 143 468 q 106 476 117 468 q 96 499 96 483 q 119 546 96 521 q 183 593 143 571 q 270 629 222 615 q 365 643 318 643 q 578 365 578 643 q 646 398 611 381 q 711 433 681 415 q 652 526 671 482 q 633 608 633 569 q 654 696 633 653 q 711 774 675 739 q 792 831 747 810 q 882 853 836 853 q 976 820 938 853 q 1014 721 1014 788 q 978 590 1014 657 q 886 463 943 522 q 968 358 943 406 q 993 263 993 310 q 965 158 993 208 q 890 69 936 108 q 789 6 843 29 q 683 -18 735 -18 q 633 -6 653 -18 q 613 28 613 6 q 631 76 613 49 q 658 113 643 97 q 683 129 674 129 q 709 119 693 129 q 757 108 725 108 q 834 140 806 108 q 863 214 863 172 q 835 291 863 257 q 774 358 808 325 q 674 309 732 336 q 567 260 617 282 q 520 96 553 176 q 438 -50 488 15 q 319 -154 388 -115 q 168 -193 251 -193 m 825 521 q 866 581 851 550 q 881 647 881 613 q 861 710 881 690 q 817 731 842 731 q 768 711 789 731 q 747 663 747 692 q 769 594 747 632 q 825 521 790 557 m 231 -67 q 333 -28 289 -67 q 406 70 376 10 q 449 199 435 131 q 301 124 368 156 q 192 61 233 92 q 151 -7 151 31 q 174 -51 151 -35 q 231 -67 196 -67 z "},"౬":{"ha":857,"x_min":42,"x_max":843,"o":"m 356 -19 q 193 -4 264 -19 q 82 49 122 11 q 42 156 42 88 q 55 233 42 194 q 93 315 68 272 q 59 385 71 347 q 47 468 47 424 q 78 610 47 542 q 158 733 110 679 q 259 819 207 788 q 353 851 311 851 q 376 846 371 851 q 382 831 382 840 q 371 788 382 815 q 342 733 360 761 q 301 685 324 706 q 257 663 279 665 q 216 653 240 661 q 172 619 192 644 q 153 536 153 593 q 185 440 153 483 q 306 540 242 501 q 424 578 371 578 q 490 551 468 578 q 513 485 513 524 q 489 408 513 449 q 425 333 465 368 q 333 275 385 297 q 228 253 282 253 q 168 263 193 253 q 164 235 164 249 q 206 159 164 188 q 312 119 247 131 q 443 107 376 107 q 595 115 511 107 q 757 132 679 122 q 792 138 776 135 q 818 140 807 140 q 843 118 843 140 q 833 83 843 104 q 792 31 813 39 q 739 15 771 22 q 538 -12 636 -4 q 356 -19 440 -19 m 300 364 q 374 384 340 364 q 407 433 407 404 q 397 460 407 449 q 371 471 386 471 q 307 446 343 471 q 239 381 271 421 q 268 367 251 371 q 300 364 285 364 z "},"౭":{"ha":739,"x_min":42,"x_max":697,"o":"m 315 -22 q 178 -1 240 -22 q 78 62 115 19 q 42 169 42 104 q 67 260 42 222 q 130 323 92 297 q 207 363 168 349 q 274 382 246 376 q 412 403 365 399 q 486 421 458 407 q 530 456 517 436 q 543 499 543 476 q 501 576 543 540 q 397 611 460 611 q 284 589 331 611 q 205 538 238 567 q 149 486 172 508 q 108 464 126 464 q 81 474 94 464 q 68 503 68 483 q 73 526 68 513 q 89 554 78 539 q 175 635 119 596 q 306 701 231 675 q 468 728 381 728 q 592 701 542 728 q 669 633 643 675 q 694 543 694 592 q 665 444 694 493 q 575 361 636 394 q 455 317 515 328 q 344 297 394 307 q 238 269 279 285 q 197 206 197 254 q 221 149 197 175 q 283 106 244 122 q 367 89 321 89 q 497 111 440 89 q 608 158 553 133 q 644 167 628 167 q 683 153 668 167 q 697 122 697 139 q 676 88 697 101 q 499 5 594 32 q 315 -22 403 -22 z "},"౮":{"ha":1069,"x_min":42,"x_max":1056,"o":"m 356 -18 q 175 16 244 -18 q 74 109 106 50 q 42 242 42 168 q 70 372 42 303 q 144 501 99 440 q 245 599 190 561 q 354 638 300 638 q 378 632 372 638 q 383 617 383 626 q 372 574 383 601 q 343 519 361 547 q 303 472 325 492 q 258 449 281 451 q 217 439 242 447 q 174 405 193 431 q 154 322 154 379 q 191 210 154 257 q 289 140 228 164 q 422 115 350 115 q 554 140 493 115 q 652 215 615 164 q 689 343 689 265 q 683 404 689 369 q 660 478 678 439 q 601 556 642 518 q 574 583 585 571 q 563 611 563 596 q 589 665 563 631 q 665 717 631 717 q 700 717 669 717 q 776 720 731 718 q 870 724 821 722 q 961 726 919 725 q 1025 729 1003 728 q 1056 710 1056 729 q 1041 674 1056 701 q 1004 624 1026 647 q 957 600 982 600 q 888 600 943 600 q 758 597 832 600 q 790 508 776 558 q 803 414 803 457 q 763 229 803 310 q 658 94 724 149 q 514 10 593 39 q 356 -18 435 -18 z "},"౯":{"ha":885,"x_min":42,"x_max":871,"o":"m 244 -19 q 149 -1 194 -19 q 73 55 103 18 q 43 144 43 92 q 60 223 43 183 q 110 293 76 263 q 59 358 76 319 q 42 439 42 396 q 87 597 42 536 q 214 685 132 657 q 404 714 296 714 q 507 717 450 715 q 621 719 564 718 q 724 721 678 719 q 794 724 769 722 q 853 722 835 726 q 871 700 871 717 q 867 681 871 692 q 857 654 864 669 q 810 606 842 621 q 769 598 801 601 q 692 594 738 594 l 317 596 q 243 591 278 596 q 186 568 208 586 q 164 510 164 550 q 181 442 164 475 q 233 388 199 408 q 287 403 260 399 q 336 408 314 408 q 385 399 367 408 q 403 369 403 389 q 380 315 403 343 q 329 269 357 286 q 244 244 289 244 q 165 256 201 244 q 149 215 149 243 q 182 137 149 165 q 278 108 215 108 q 331 110 310 108 q 367 111 353 111 q 397 108 385 111 q 410 90 410 106 q 387 36 410 65 q 336 -7 364 7 q 244 -19 310 -19 z "}," ":{"ha":403,"x_min":0,"x_max":0,"o":""},"‌":{"ha":0,"x_min":-175,"x_max":179,"o":"m -7 -100 l -7 639 q -91 666 -53 642 q -152 730 -129 690 q -175 817 -175 769 q -151 905 -175 865 q -86 969 -126 944 q 3 993 -46 993 q 91 969 51 993 q 155 905 131 944 q 179 817 179 865 q 156 729 179 769 q 93 665 132 689 q 7 639 54 640 l 7 -100 l -7 -100 m 3 653 q 85 675 49 653 q 144 734 122 697 q 165 817 165 771 q 144 899 165 863 q 85 958 122 936 q 3 979 49 979 q -80 958 -43 979 q -139 899 -117 936 q -161 817 -161 863 q -113 701 -161 749 q 3 653 -65 653 z "},"‍":{"ha":0,"x_min":-278,"x_max":271,"o":"m -7 -100 l -7 839 q -145 733 -81 792 q -267 603 -210 674 l -278 611 q -17 849 -165 754 q -274 960 -135 921 l -271 974 q -4 857 -125 932 q 264 974 119 932 l 267 960 q 10 849 128 921 q 271 611 158 754 l 260 603 q 142 730 206 672 q 7 833 79 788 l 7 -100 l -7 -100 z "},"◌":{"ha":775,"x_min":56,"x_max":719,"o":"m 360 582 q 346 596 346 582 l 346 633 q 360 647 346 647 l 415 647 q 429 633 429 647 l 429 596 q 415 582 429 582 l 360 582 m 224 531 q 211 538 215 531 l 193 569 q 190 578 190 575 q 197 589 190 585 l 246 617 q 253 619 251 619 q 264 611 260 619 l 283 579 q 286 572 286 574 q 278 560 286 567 l 231 532 q 224 531 228 531 m 544 532 l 497 560 q 492 579 485 568 l 510 611 q 529 617 519 622 l 578 589 q 582 571 590 582 l 564 538 q 544 532 557 526 m 124 419 l 92 438 q 86 457 81 447 l 114 506 q 132 510 121 518 l 165 492 q 171 472 176 485 l 143 425 q 124 419 135 413 m 643 417 q 632 425 636 417 l 604 472 q 603 479 603 475 q 610 492 603 488 l 642 510 q 650 513 647 513 q 661 506 657 513 l 689 457 q 692 450 692 451 q 683 439 692 443 l 651 419 q 643 417 646 417 m 69 274 q 56 288 56 274 l 56 343 q 69 357 56 357 l 107 357 q 121 343 121 357 l 121 288 q 107 274 121 274 l 69 274 m 668 274 q 654 288 654 274 l 654 343 q 668 357 654 357 l 706 357 q 719 343 719 357 l 719 288 q 706 274 719 274 l 668 274 m 125 118 q 114 125 118 118 l 86 174 q 83 181 83 179 q 92 192 83 188 l 124 211 q 132 214 129 214 q 143 206 139 214 l 171 158 q 172 151 172 156 q 165 139 172 143 l 133 121 q 125 118 128 118 m 643 121 l 610 139 q 604 158 599 146 l 632 206 q 651 211 640 218 l 683 193 q 689 174 694 183 l 661 125 q 643 121 654 113 m 246 14 l 197 42 q 193 60 185 49 l 211 93 q 231 99 218 104 l 278 71 q 283 51 290 63 l 265 19 q 246 14 256 8 m 522 11 q 511 19 515 11 l 492 51 q 489 58 489 57 q 497 71 489 65 l 544 99 q 551 100 547 100 q 564 93 560 100 l 582 61 q 585 53 585 56 q 578 42 585 46 l 529 14 q 522 11 524 11 m 360 -17 q 346 -3 346 -17 l 346 35 q 360 49 346 49 l 415 49 q 429 35 429 49 l 429 -3 q 415 -17 429 -17 l 360 -17 z "},"A":{"ha":832,"x_min":14,"x_max":822,"o":"m 714 -15 q 641 22 671 -15 q 583 143 611 58 q 560 224 569 185 q 547 301 551 264 q 515 265 529 274 q 472 256 500 256 q 328 258 404 256 q 192 261 251 260 q 187 210 189 236 q 185 160 185 185 q 187 115 185 138 q 190 72 189 93 q 160 10 194 33 q 74 -14 125 -14 q 29 25 29 -14 q 42 96 29 49 q 53 151 49 128 q 57 188 57 174 q 33 240 57 226 q 14 269 14 251 q 22 310 14 286 q 42 353 29 333 q 65 382 54 374 q 89 392 75 388 q 124 397 103 396 q 245 666 178 553 q 389 841 313 779 q 544 903 465 903 q 615 870 593 903 q 638 761 638 838 l 638 699 q 658 440 638 558 q 710 249 679 322 q 794 121 740 171 q 817 97 811 107 q 822 75 822 86 q 806 33 822 54 q 765 -1 790 13 q 714 -15 740 -15 m 233 406 q 353 410 301 408 q 439 413 404 413 l 536 413 q 531 494 533 451 q 529 585 529 538 l 529 665 q 520 719 529 706 q 486 732 511 732 q 350 643 418 732 q 233 406 282 554 z "},"Æ":{"ha":1142,"x_min":14,"x_max":1094,"o":"m 779 -18 q 579 28 639 -18 q 519 183 519 74 q 522 228 519 199 q 531 297 525 258 q 475 254 504 254 q 192 258 336 254 q 185 213 186 240 q 183 150 183 185 l 183 72 q 149 10 182 33 q 63 -14 115 -14 q 19 24 19 -14 q 36 96 19 49 q 54 188 54 158 q 32 240 54 228 q 14 269 14 250 q 24 307 14 283 q 47 352 33 331 q 71 382 60 374 q 128 397 92 393 q 335 770 219 638 q 565 903 450 903 q 636 871 613 903 q 706 881 657 876 q 810 890 754 886 q 907 893 867 893 q 1058 888 1043 893 q 1094 849 1094 882 q 1065 772 1094 810 q 1033 742 1049 750 q 992 735 1017 733 q 918 739 963 738 q 813 740 874 740 q 681 736 742 740 q 683 712 683 724 q 683 686 683 700 q 682 638 683 668 q 678 574 681 607 q 672 515 676 542 q 921 524 767 524 q 990 518 975 524 q 1007 488 1007 514 q 980 410 1007 444 q 914 376 953 375 q 801 381 867 379 q 650 382 735 382 q 643 315 646 343 q 640 275 640 286 q 679 169 640 200 q 807 138 718 138 q 1015 183 911 138 q 1044 194 1036 194 q 1074 173 1060 194 q 1088 124 1088 151 q 1040 42 1088 72 q 924 -4 993 11 q 853 -15 889 -11 q 779 -18 817 -18 m 238 406 q 394 411 321 410 q 549 413 468 413 q 557 560 557 474 q 549 688 557 654 q 503 732 538 732 q 361 645 432 732 q 238 406 290 558 z "},"Á":{"ha":832,"x_min":14,"x_max":822,"o":"m 493 964 q 470 972 479 964 q 461 994 461 981 q 472 1025 461 1011 q 531 1116 500 1071 q 594 1193 561 1161 q 658 1225 626 1225 q 705 1204 681 1225 q 729 1154 729 1183 q 701 1096 729 1126 q 617 1031 665 1061 q 519 972 569 1000 q 493 964 507 964 m 714 -15 q 641 22 671 -15 q 583 143 611 58 q 560 224 569 185 q 547 301 551 264 q 515 265 529 274 q 472 256 500 256 q 328 258 404 256 q 192 261 251 260 q 187 210 189 236 q 185 160 185 185 q 187 115 185 138 q 190 72 189 93 q 160 10 194 33 q 74 -14 125 -14 q 29 25 29 -14 q 42 96 29 49 q 53 151 49 128 q 57 188 57 174 q 33 240 57 226 q 14 269 14 251 q 22 310 14 286 q 42 353 29 333 q 65 382 54 374 q 89 392 75 388 q 124 397 103 396 q 245 666 178 553 q 389 841 313 779 q 544 903 465 903 q 615 870 593 903 q 638 761 638 838 l 638 699 q 658 440 638 558 q 710 249 679 322 q 794 121 740 171 q 817 97 811 107 q 822 75 822 86 q 806 33 822 54 q 765 -1 790 13 q 714 -15 740 -15 m 233 406 q 353 410 301 408 q 439 413 404 413 l 536 413 q 531 494 533 451 q 529 585 529 538 l 529 665 q 520 719 529 706 q 486 732 511 732 q 350 643 418 732 q 233 406 282 554 z "},"Ă":{"ha":832,"x_min":14,"x_max":822,"o":"m 501 975 q 366 1028 417 975 q 315 1158 315 1082 q 329 1212 317 1196 q 361 1228 342 1228 q 399 1194 390 1228 q 439 1135 413 1158 q 511 1111 465 1111 q 585 1135 557 1111 q 626 1194 614 1158 q 665 1228 639 1228 q 699 1210 689 1228 q 708 1163 708 1192 q 681 1069 708 1111 q 606 1001 653 1026 q 501 975 558 975 m 714 -15 q 641 22 671 -15 q 583 143 611 58 q 560 224 569 185 q 547 301 551 264 q 515 265 529 274 q 472 256 500 256 q 328 258 404 256 q 192 261 251 260 q 187 210 189 236 q 185 160 185 185 q 187 115 185 138 q 190 72 189 93 q 160 10 194 33 q 74 -14 125 -14 q 29 25 29 -14 q 42 96 29 49 q 53 151 49 128 q 57 188 57 174 q 33 240 57 226 q 14 269 14 251 q 22 310 14 286 q 42 353 29 333 q 65 382 54 374 q 89 392 75 388 q 124 397 103 396 q 245 666 178 553 q 389 841 313 779 q 544 903 465 903 q 615 870 593 903 q 638 761 638 838 l 638 699 q 658 440 638 558 q 710 249 679 322 q 794 121 740 171 q 817 97 811 107 q 822 75 822 86 q 806 33 822 54 q 765 -1 790 13 q 714 -15 740 -15 m 233 406 q 353 410 301 408 q 439 413 404 413 l 536 413 q 531 494 533 451 q 529 585 529 538 l 529 665 q 520 719 529 706 q 486 732 511 732 q 350 643 418 732 q 233 406 282 554 z "},"Â":{"ha":832,"x_min":14,"x_max":822,"o":"m 340 971 q 319 980 328 971 q 311 1003 311 989 q 325 1046 311 1022 q 367 1102 340 1071 q 422 1161 394 1133 q 464 1201 450 1189 q 529 1231 500 1231 q 564 1222 547 1231 q 590 1201 581 1213 q 628 1160 604 1188 q 675 1102 651 1133 q 711 1043 699 1071 q 721 1007 721 1024 q 711 983 721 993 q 686 972 701 972 q 675 974 682 972 q 660 981 668 975 q 622 1006 647 988 q 569 1048 597 1025 q 521 1089 542 1071 q 464 1047 494 1069 q 408 1007 433 1025 q 368 981 382 989 q 340 971 350 971 m 714 -15 q 641 22 671 -15 q 583 143 611 58 q 560 224 569 185 q 547 301 551 264 q 515 265 529 274 q 472 256 500 256 q 328 258 404 256 q 192 261 251 260 q 187 210 189 236 q 185 160 185 185 q 187 115 185 138 q 190 72 189 93 q 160 10 194 33 q 74 -14 125 -14 q 29 25 29 -14 q 42 96 29 49 q 53 151 49 128 q 57 188 57 174 q 33 240 57 226 q 14 269 14 251 q 22 310 14 286 q 42 353 29 333 q 65 382 54 374 q 89 392 75 388 q 124 397 103 396 q 245 666 178 553 q 389 841 313 779 q 544 903 465 903 q 615 870 593 903 q 638 761 638 838 l 638 699 q 658 440 638 558 q 710 249 679 322 q 794 121 740 171 q 817 97 811 107 q 822 75 822 86 q 806 33 822 54 q 765 -1 790 13 q 714 -15 740 -15 m 233 406 q 353 410 301 408 q 439 413 404 413 l 536 413 q 531 494 533 451 q 529 585 529 538 l 529 665 q 520 719 529 706 q 486 732 511 732 q 350 643 418 732 q 233 406 282 554 z "},"Ä":{"ha":832,"x_min":14,"x_max":822,"o":"m 371 1000 q 312 1021 333 1000 q 290 1081 290 1042 q 316 1147 290 1121 q 382 1172 342 1172 q 439 1151 418 1172 q 460 1092 460 1131 q 435 1026 460 1053 q 371 1000 411 1000 m 647 1000 q 588 1021 610 1000 q 567 1081 567 1042 q 592 1147 567 1121 q 657 1172 618 1172 q 736 1092 736 1172 q 712 1026 736 1053 q 647 1000 688 1000 m 714 -15 q 641 22 671 -15 q 583 143 611 58 q 560 224 569 185 q 547 301 551 264 q 515 265 529 274 q 472 256 500 256 q 328 258 404 256 q 192 261 251 260 q 187 210 189 236 q 185 160 185 185 q 187 115 185 138 q 190 72 189 93 q 160 10 194 33 q 74 -14 125 -14 q 29 25 29 -14 q 42 96 29 49 q 53 151 49 128 q 57 188 57 174 q 33 240 57 226 q 14 269 14 251 q 22 310 14 286 q 42 353 29 333 q 65 382 54 374 q 89 392 75 388 q 124 397 103 396 q 245 666 178 553 q 389 841 313 779 q 544 903 465 903 q 615 870 593 903 q 638 761 638 838 l 638 699 q 658 440 638 558 q 710 249 679 322 q 794 121 740 171 q 817 97 811 107 q 822 75 822 86 q 806 33 822 54 q 765 -1 790 13 q 714 -15 740 -15 m 233 406 q 353 410 301 408 q 439 413 404 413 l 536 413 q 531 494 533 451 q 529 585 529 538 l 529 665 q 520 719 529 706 q 486 732 511 732 q 350 643 418 732 q 233 406 282 554 z "},"À":{"ha":832,"x_min":14,"x_max":822,"o":"m 539 964 q 513 972 525 964 q 415 1031 463 1000 q 332 1096 368 1061 q 303 1154 303 1125 q 327 1204 303 1183 q 374 1225 351 1225 q 406 1217 389 1225 q 438 1193 422 1210 q 501 1116 471 1161 q 561 1025 532 1071 q 571 994 571 1011 q 562 972 571 981 q 539 964 553 964 m 714 -15 q 641 22 671 -15 q 583 143 611 58 q 560 224 569 185 q 547 301 551 264 q 515 265 529 274 q 472 256 500 256 q 328 258 404 256 q 192 261 251 260 q 187 210 189 236 q 185 160 185 185 q 187 115 185 138 q 190 72 189 93 q 160 10 194 33 q 74 -14 125 -14 q 29 25 29 -14 q 42 96 29 49 q 53 151 49 128 q 57 188 57 174 q 33 240 57 226 q 14 269 14 251 q 22 310 14 286 q 42 353 29 333 q 65 382 54 374 q 89 392 75 388 q 124 397 103 396 q 245 666 178 553 q 389 841 313 779 q 544 903 465 903 q 615 870 593 903 q 638 761 638 838 l 638 699 q 658 440 638 558 q 710 249 679 322 q 794 121 740 171 q 817 97 811 107 q 822 75 822 86 q 806 33 822 54 q 765 -1 790 13 q 714 -15 740 -15 m 233 406 q 353 410 301 408 q 439 413 404 413 l 536 413 q 531 494 533 451 q 529 585 529 538 l 529 665 q 520 719 529 706 q 486 732 511 732 q 350 643 418 732 q 233 406 282 554 z "},"Ā":{"ha":832,"x_min":14,"x_max":822,"o":"m 344 1017 q 324 1029 332 1015 q 315 1065 315 1043 q 321 1103 315 1085 q 346 1128 326 1121 q 395 1135 358 1132 q 480 1141 432 1139 q 573 1144 528 1143 q 647 1146 618 1146 q 695 1138 678 1146 q 713 1103 713 1131 q 703 1045 713 1075 q 674 1017 693 1015 q 599 1020 644 1018 q 506 1021 554 1022 q 419 1019 467 1021 q 344 1017 371 1018 m 714 -15 q 641 22 671 -15 q 583 143 611 58 q 560 224 569 185 q 547 301 551 264 q 515 265 529 274 q 472 256 500 256 q 328 258 404 256 q 192 261 251 260 q 187 210 189 236 q 185 160 185 185 q 187 115 185 138 q 190 72 189 93 q 160 10 194 33 q 74 -14 125 -14 q 29 25 29 -14 q 42 96 29 49 q 53 151 49 128 q 57 188 57 174 q 33 240 57 226 q 14 269 14 251 q 22 310 14 286 q 42 353 29 333 q 65 382 54 374 q 89 392 75 388 q 124 397 103 396 q 245 666 178 553 q 389 841 313 779 q 544 903 465 903 q 615 870 593 903 q 638 761 638 838 l 638 699 q 658 440 638 558 q 710 249 679 322 q 794 121 740 171 q 817 97 811 107 q 822 75 822 86 q 806 33 822 54 q 765 -1 790 13 q 714 -15 740 -15 m 233 406 q 353 410 301 408 q 439 413 404 413 l 536 413 q 531 494 533 451 q 529 585 529 538 l 529 665 q 520 719 529 706 q 486 732 511 732 q 350 643 418 732 q 233 406 282 554 z "},"Ą":{"ha":832,"x_min":14,"x_max":822,"o":"m 600 -342 q 495 -304 531 -343 q 458 -206 460 -265 q 509 -71 457 -128 q 642 21 561 -14 q 583 143 611 60 q 560 224 569 185 q 547 301 551 264 q 515 265 529 274 q 472 256 500 256 q 328 258 404 256 q 192 261 251 260 q 187 210 189 236 q 185 160 185 185 q 187 115 185 138 q 190 72 189 93 q 160 10 194 33 q 74 -14 125 -14 q 29 25 29 -14 q 42 96 29 49 q 53 151 49 128 q 57 188 57 174 q 33 240 57 226 q 14 269 14 251 q 22 310 14 286 q 42 353 29 333 q 65 382 54 374 q 89 392 75 388 q 124 397 103 396 q 245 666 178 553 q 389 841 313 779 q 544 903 465 903 q 615 870 593 903 q 638 761 638 838 l 638 699 q 658 440 638 558 q 710 249 679 322 q 794 121 740 171 q 817 97 811 107 q 822 75 822 86 q 801 26 822 50 q 750 -8 779 3 q 675 -51 711 -25 q 615 -106 639 -76 q 592 -167 592 -136 q 611 -205 593 -193 q 651 -215 629 -217 q 681 -211 663 -215 q 717 -197 699 -207 q 735 -192 722 -192 q 759 -203 753 -192 q 765 -224 765 -215 q 749 -271 765 -243 q 684 -322 725 -304 q 600 -342 643 -340 m 233 406 q 353 410 301 408 q 439 413 404 413 l 536 413 q 531 494 533 451 q 529 585 529 538 l 529 665 q 520 719 529 706 q 486 732 511 732 q 350 643 418 732 q 233 406 282 554 z "},"Å":{"ha":832,"x_min":14,"x_max":822,"o":"m 506 967 q 397 1005 438 967 q 356 1111 356 1043 q 402 1232 356 1186 q 525 1278 449 1278 q 633 1240 593 1278 q 672 1135 672 1201 q 628 1014 672 1061 q 506 967 583 967 m 524 1065 q 569 1080 551 1065 q 588 1117 588 1094 q 565 1161 588 1143 q 506 1179 543 1179 q 458 1164 476 1179 q 440 1125 440 1149 q 463 1082 440 1099 q 524 1065 485 1065 m 714 -15 q 641 22 671 -15 q 583 143 611 58 q 560 224 569 185 q 547 301 551 264 q 515 265 529 274 q 472 256 500 256 q 328 258 404 256 q 192 261 251 260 q 187 210 189 236 q 185 160 185 185 q 187 115 185 138 q 190 72 189 93 q 160 10 194 33 q 74 -14 125 -14 q 29 25 29 -14 q 42 96 29 49 q 53 151 49 128 q 57 188 57 174 q 33 240 57 226 q 14 269 14 251 q 22 310 14 286 q 42 353 29 333 q 65 382 54 374 q 89 392 75 388 q 124 397 103 396 q 245 666 178 553 q 389 841 313 779 q 544 903 465 903 q 615 870 593 903 q 638 761 638 838 l 638 699 q 658 440 638 558 q 710 249 679 322 q 794 121 740 171 q 817 97 811 107 q 822 75 822 86 q 806 33 822 54 q 765 -1 790 13 q 714 -15 740 -15 m 233 406 q 353 410 301 408 q 439 413 404 413 l 536 413 q 531 494 533 451 q 529 585 529 538 l 529 665 q 520 719 529 706 q 486 732 511 732 q 350 643 418 732 q 233 406 282 554 z "},"Ã":{"ha":832,"x_min":14,"x_max":822,"o":"m 336 994 q 305 1015 317 994 q 293 1060 293 1035 q 327 1139 293 1103 q 421 1175 361 1175 q 529 1147 471 1175 q 575 1126 551 1136 q 619 1117 599 1117 q 651 1128 643 1117 q 664 1154 660 1140 q 672 1174 667 1165 q 688 1182 678 1182 q 720 1162 707 1182 q 733 1114 733 1142 q 697 1032 733 1069 q 604 994 661 994 q 553 1002 579 994 q 500 1022 526 1010 q 450 1047 474 1038 q 407 1056 426 1056 q 376 1044 385 1056 q 363 1021 367 1033 q 354 1003 360 1011 q 336 994 349 994 m 714 -15 q 641 22 671 -15 q 583 143 611 58 q 560 224 569 185 q 547 301 551 264 q 515 265 529 274 q 472 256 500 256 q 328 258 404 256 q 192 261 251 260 q 187 210 189 236 q 185 160 185 185 q 187 115 185 138 q 190 72 189 93 q 160 10 194 33 q 74 -14 125 -14 q 29 25 29 -14 q 42 96 29 49 q 53 151 49 128 q 57 188 57 174 q 33 240 57 226 q 14 269 14 251 q 22 310 14 286 q 42 353 29 333 q 65 382 54 374 q 89 392 75 388 q 124 397 103 396 q 245 666 178 553 q 389 841 313 779 q 544 903 465 903 q 615 870 593 903 q 638 761 638 838 l 638 699 q 658 440 638 558 q 710 249 679 322 q 794 121 740 171 q 817 97 811 107 q 822 75 822 86 q 806 33 822 54 q 765 -1 790 13 q 714 -15 740 -15 m 233 406 q 353 410 301 408 q 439 413 404 413 l 536 413 q 531 494 533 451 q 529 585 529 538 l 529 665 q 520 719 529 706 q 486 732 511 732 q 350 643 418 732 q 233 406 282 554 z "},"B":{"ha":747,"x_min":60,"x_max":688,"o":"m 299 -17 q 133 38 183 -17 q 83 183 83 93 q 88 240 83 207 q 99 321 92 274 q 115 442 110 389 q 121 560 121 496 q 117 679 121 633 q 82 665 93 665 q 60 715 60 665 q 77 781 60 754 q 135 832 94 808 q 237 875 175 857 q 369 893 299 893 q 544 840 485 893 q 604 701 604 788 q 581 599 604 646 q 514 515 557 551 q 688 315 688 488 q 635 146 688 222 q 492 26 582 69 q 299 -17 404 -17 m 354 138 q 467 155 417 138 q 549 206 518 172 q 579 283 579 239 q 539 364 579 340 q 446 388 499 388 q 390 383 424 388 q 358 381 376 381 q 308 406 328 381 q 288 468 288 431 q 311 501 288 494 q 481 656 481 546 q 360 743 481 743 q 250 728 315 743 q 243 585 250 660 q 222 431 236 511 q 209 337 214 375 q 204 275 204 299 q 242 169 204 200 q 354 138 279 138 z "},"C":{"ha":788,"x_min":63,"x_max":758,"o":"m 390 -18 q 217 26 292 -18 q 103 153 143 71 q 63 347 63 235 q 97 553 63 454 q 197 729 132 651 q 354 853 263 807 q 561 899 446 899 q 703 872 647 899 q 758 794 758 846 q 745 745 758 769 q 711 704 732 721 q 668 688 690 688 q 646 694 654 688 q 572 731 608 719 q 489 743 536 743 q 322 698 390 743 q 219 579 254 653 q 183 419 183 506 q 215 272 183 336 q 304 172 247 208 q 438 136 361 136 q 556 160 499 136 q 658 228 614 185 q 697 246 678 246 q 721 232 714 246 q 728 204 728 218 q 714 151 728 181 q 671 92 700 121 q 544 11 619 40 q 390 -18 469 -18 z "},"Ć":{"ha":788,"x_min":63,"x_max":758,"o":"m 474 964 q 442 994 442 964 q 451 1025 442 1011 q 510 1116 479 1071 q 575 1193 542 1161 q 639 1225 606 1225 q 685 1204 661 1225 q 710 1154 710 1183 q 682 1096 710 1126 q 598 1031 646 1061 q 500 972 550 1000 q 474 964 486 964 m 390 -18 q 217 26 292 -18 q 103 153 143 71 q 63 347 63 235 q 97 553 63 454 q 197 729 132 651 q 354 853 263 807 q 561 899 446 899 q 703 872 647 899 q 758 794 758 846 q 745 745 758 769 q 711 704 732 721 q 668 688 690 688 q 646 694 654 688 q 572 731 608 719 q 489 743 536 743 q 322 698 390 743 q 219 579 254 653 q 183 419 183 506 q 215 272 183 336 q 304 172 247 208 q 438 136 361 136 q 556 160 499 136 q 658 228 614 185 q 697 246 678 246 q 721 232 714 246 q 728 204 728 218 q 714 151 728 181 q 671 92 700 121 q 544 11 619 40 q 390 -18 469 -18 z "},"Č":{"ha":788,"x_min":63,"x_max":758,"o":"m 496 964 q 462 974 478 964 q 435 993 446 983 q 397 1034 421 1007 q 351 1093 374 1061 q 315 1151 328 1125 q 307 1172 310 1163 q 304 1188 304 1182 q 315 1213 304 1203 q 339 1222 325 1222 q 365 1215 351 1222 q 403 1188 379 1207 q 456 1146 428 1168 q 504 1106 483 1124 q 590 1170 544 1138 q 657 1215 636 1203 q 685 1224 676 1224 q 706 1215 697 1224 q 715 1192 715 1206 q 712 1172 715 1183 q 700 1150 708 1161 q 658 1093 686 1125 q 603 1034 631 1061 q 561 993 576 1007 q 496 964 526 964 m 390 -18 q 217 26 292 -18 q 103 153 143 71 q 63 347 63 235 q 97 553 63 454 q 197 729 132 651 q 354 853 263 807 q 561 899 446 899 q 703 872 647 899 q 758 794 758 846 q 745 745 758 769 q 711 704 732 721 q 668 688 690 688 q 646 694 654 688 q 572 731 608 719 q 489 743 536 743 q 322 698 390 743 q 219 579 254 653 q 183 419 183 506 q 215 272 183 336 q 304 172 247 208 q 438 136 361 136 q 556 160 499 136 q 658 228 614 185 q 697 246 678 246 q 721 232 714 246 q 728 204 728 218 q 714 151 728 181 q 671 92 700 121 q 544 11 619 40 q 390 -18 469 -18 z "},"Ç":{"ha":788,"x_min":63,"x_max":758,"o":"m 346 -342 q 286 -326 311 -342 q 261 -283 261 -311 q 282 -262 261 -262 q 357 -246 328 -262 q 386 -196 386 -229 q 350 -146 386 -160 q 327 -131 338 -139 q 317 -112 317 -122 q 331 -85 317 -103 q 372 -18 354 -58 q 147 86 231 -11 q 63 347 63 183 q 97 553 63 454 q 197 729 132 651 q 354 853 263 807 q 561 899 446 899 q 703 872 647 899 q 758 794 758 846 q 745 745 758 769 q 711 704 732 721 q 668 688 690 688 q 646 694 654 688 q 572 731 608 719 q 489 743 536 743 q 322 698 390 743 q 219 579 254 653 q 183 419 183 506 q 215 272 183 336 q 304 172 247 208 q 438 136 361 136 q 556 160 499 136 q 658 228 614 185 q 697 246 678 246 q 721 232 714 246 q 728 204 728 218 q 714 151 728 181 q 671 92 700 121 q 485 -8 597 19 q 460 -39 474 -24 q 431 -69 446 -54 q 519 -168 515 -86 q 497 -255 522 -215 q 431 -318 471 -294 q 346 -342 390 -342 z "},"D":{"ha":839,"x_min":60,"x_max":783,"o":"m 283 -18 q 189 -8 232 -18 q 118 28 146 1 q 90 72 97 47 q 83 125 83 96 q 92 219 83 172 q 114 396 104 301 q 124 571 124 490 q 122 628 124 596 q 115 688 119 660 q 97 680 106 683 q 81 676 88 676 q 64 689 68 676 q 60 717 60 701 q 78 785 60 757 q 140 836 97 814 q 260 880 186 861 q 411 899 335 899 q 684 797 585 899 q 783 507 783 694 q 751 305 783 400 q 654 137 718 210 q 497 23 590 64 q 283 -18 404 -18 m 328 138 q 453 157 390 138 q 566 215 515 176 q 647 315 617 254 q 678 460 678 375 q 640 618 678 556 q 540 711 603 681 q 401 742 478 742 q 319 735 360 742 q 254 721 278 728 q 247 597 253 657 q 232 479 240 536 q 219 363 224 419 q 214 250 214 306 q 242 159 214 181 q 328 138 271 138 z "},"Ď":{"ha":840,"x_min":60,"x_max":783,"o":"m 411 964 q 377 974 393 964 q 350 993 361 983 q 312 1034 336 1007 q 265 1093 288 1061 q 229 1151 242 1125 q 221 1172 224 1163 q 218 1188 218 1182 q 228 1213 218 1203 q 253 1222 239 1222 q 265 1221 258 1222 q 281 1215 272 1219 q 319 1188 294 1207 q 371 1146 343 1168 q 418 1106 399 1124 q 506 1170 460 1138 q 572 1215 551 1203 q 600 1224 589 1224 q 621 1215 613 1224 q 629 1192 629 1206 q 615 1150 629 1172 q 573 1093 600 1125 q 519 1034 546 1061 q 476 993 492 1007 q 411 964 439 964 m 283 -18 q 189 -8 232 -18 q 118 28 146 1 q 90 72 97 47 q 83 125 83 96 q 92 219 83 172 q 114 396 104 301 q 124 571 124 490 q 122 628 124 596 q 115 688 119 660 q 97 680 106 683 q 81 676 88 676 q 64 689 68 676 q 60 717 60 701 q 78 785 60 757 q 140 836 97 814 q 260 880 186 861 q 411 899 335 899 q 684 797 585 899 q 783 507 783 694 q 751 305 783 400 q 654 137 718 210 q 497 23 590 64 q 283 -18 404 -18 m 328 138 q 453 157 390 138 q 566 215 515 176 q 647 315 617 254 q 678 460 678 375 q 640 618 678 556 q 540 711 603 681 q 401 742 478 742 q 319 735 360 742 q 254 721 278 728 q 247 597 253 657 q 232 479 240 536 q 219 363 224 419 q 214 250 214 306 q 242 159 214 181 q 328 138 271 138 z "},"Đ":{"ha":840,"x_min":22,"x_max":783,"o":"m 283 -18 q 187 -8 228 -18 q 118 28 146 3 q 91 71 99 47 q 83 125 83 94 q 92 219 83 165 q 106 315 100 271 q 114 394 111 358 l 78 394 q 36 400 50 394 q 22 421 22 406 q 39 468 22 449 q 71 486 56 488 l 121 483 q 124 532 124 506 q 125 576 125 558 q 122 633 125 606 q 115 688 119 661 q 81 676 90 676 q 60 717 60 676 q 140 836 60 792 q 264 881 189 864 q 411 899 339 899 q 685 796 586 899 q 783 507 783 693 q 724 243 783 363 q 551 51 665 124 q 283 -18 438 -18 m 328 138 q 498 174 418 139 q 628 282 578 208 q 678 460 678 353 q 599 669 678 597 q 401 742 521 742 q 254 721 336 742 q 233 483 253 633 q 344 488 294 486 q 435 490 394 490 q 475 482 464 490 q 486 454 486 474 q 471 408 486 426 q 439 390 456 390 l 222 397 q 214 250 214 310 q 241 161 214 185 q 328 138 268 138 z "},"Ḍ":{"ha":840,"x_min":60,"x_max":783,"o":"m 283 -18 q 189 -8 232 -18 q 118 28 146 1 q 90 72 97 47 q 83 125 83 96 q 92 219 83 172 q 114 396 104 301 q 124 571 124 490 q 122 628 124 596 q 115 688 119 660 q 97 680 106 683 q 81 676 88 676 q 64 689 68 676 q 60 717 60 701 q 78 785 60 757 q 140 836 97 814 q 260 880 186 861 q 411 899 335 899 q 684 797 585 899 q 783 507 783 694 q 751 305 783 400 q 654 137 718 210 q 497 23 590 64 q 283 -18 404 -18 m 328 138 q 453 157 390 138 q 566 215 515 176 q 647 315 617 254 q 678 460 678 375 q 640 618 678 556 q 540 711 603 681 q 401 742 478 742 q 319 735 360 742 q 254 721 278 728 q 247 597 253 657 q 232 479 240 536 q 219 363 224 419 q 214 250 214 306 q 242 159 214 181 q 328 138 271 138 m 354 -271 q 292 -249 315 -271 q 268 -186 268 -226 q 296 -116 268 -143 q 367 -89 324 -89 q 429 -111 407 -89 q 451 -174 451 -133 q 425 -243 451 -215 q 354 -271 399 -271 z "},"E":{"ha":701,"x_min":60,"x_max":654,"o":"m 339 -18 q 144 24 207 -18 q 81 183 81 67 q 84 240 81 207 q 94 321 88 274 q 111 442 106 389 q 117 560 117 496 q 115 640 117 601 q 107 714 113 679 q 79 710 86 710 q 64 715 68 710 q 60 733 60 719 q 67 791 60 763 q 86 838 74 819 q 158 876 110 871 q 251 885 196 881 q 363 891 306 889 q 467 893 421 893 q 618 888 594 893 q 654 849 654 882 q 625 772 654 807 q 594 742 610 751 q 551 735 579 733 q 444 740 490 739 q 381 742 399 742 q 315 740 349 742 q 246 736 281 739 q 242 632 246 688 q 231 515 238 576 q 375 522 294 519 q 518 524 456 524 q 556 518 546 524 q 567 489 567 513 q 555 440 567 467 q 524 393 543 413 q 506 380 515 385 q 479 376 496 375 q 344 381 419 379 q 211 381 268 382 q 203 322 206 349 q 200 275 200 296 q 239 168 200 199 q 367 138 278 138 q 472 147 421 138 q 575 183 522 157 q 604 194 594 194 q 634 173 619 194 q 649 126 649 151 q 626 69 649 96 q 565 22 603 42 q 463 -8 522 3 q 339 -18 403 -18 z "},"É":{"ha":701,"x_min":60,"x_max":654,"o":"m 354 964 q 331 972 340 964 q 322 994 322 981 q 333 1025 322 1011 q 392 1116 361 1071 q 456 1193 424 1161 q 519 1225 488 1225 q 567 1204 543 1225 q 590 1154 590 1183 q 584 1126 590 1142 q 563 1096 578 1111 q 480 1031 528 1061 q 382 972 432 1000 q 354 964 368 964 m 339 -18 q 144 24 207 -18 q 81 183 81 67 q 84 240 81 207 q 94 321 88 274 q 111 442 106 389 q 117 560 117 496 q 115 640 117 601 q 107 714 113 679 q 79 710 86 710 q 64 715 68 710 q 60 733 60 719 q 67 791 60 763 q 86 838 74 819 q 158 876 110 871 q 251 885 196 881 q 363 891 306 889 q 467 893 421 893 q 618 888 594 893 q 654 849 654 882 q 625 772 654 807 q 594 742 610 751 q 551 735 579 733 q 444 740 490 739 q 381 742 399 742 q 315 740 349 742 q 246 736 281 739 q 242 632 246 688 q 231 515 238 576 q 375 522 294 519 q 518 524 456 524 q 556 518 546 524 q 567 489 567 513 q 555 440 567 467 q 524 393 543 413 q 506 380 515 385 q 479 376 496 375 q 344 381 419 379 q 211 381 268 382 q 203 322 206 349 q 200 275 200 296 q 239 168 200 199 q 367 138 278 138 q 472 147 421 138 q 575 183 522 157 q 604 194 594 194 q 634 173 619 194 q 649 126 649 151 q 626 69 649 96 q 565 22 603 42 q 463 -8 522 3 q 339 -18 403 -18 z "},"Ě":{"ha":701,"x_min":60,"x_max":654,"o":"m 378 964 q 344 974 360 964 q 317 993 328 983 q 278 1034 303 1007 q 231 1093 254 1061 q 196 1151 208 1125 q 188 1172 190 1163 q 185 1188 185 1182 q 195 1213 185 1203 q 219 1222 206 1222 q 232 1221 225 1222 q 247 1215 239 1219 q 285 1188 261 1207 q 338 1146 310 1168 q 385 1106 365 1124 q 472 1170 426 1138 q 539 1215 518 1203 q 567 1224 556 1224 q 588 1215 579 1224 q 596 1192 596 1206 q 582 1150 596 1172 q 540 1093 567 1125 q 485 1034 513 1061 q 443 993 458 1007 q 378 964 406 964 m 339 -18 q 144 24 207 -18 q 81 183 81 67 q 84 240 81 207 q 94 321 88 274 q 111 442 106 389 q 117 560 117 496 q 115 640 117 601 q 107 714 113 679 q 79 710 86 710 q 64 715 68 710 q 60 733 60 719 q 67 791 60 763 q 86 838 74 819 q 158 876 110 871 q 251 885 196 881 q 363 891 306 889 q 467 893 421 893 q 618 888 594 893 q 654 849 654 882 q 625 772 654 807 q 594 742 610 751 q 551 735 579 733 q 444 740 490 739 q 381 742 399 742 q 315 740 349 742 q 246 736 281 739 q 242 632 246 688 q 231 515 238 576 q 375 522 294 519 q 518 524 456 524 q 556 518 546 524 q 567 489 567 513 q 555 440 567 467 q 524 393 543 413 q 506 380 515 385 q 479 376 496 375 q 344 381 419 379 q 211 381 268 382 q 203 322 206 349 q 200 275 200 296 q 239 168 200 199 q 367 138 278 138 q 472 147 421 138 q 575 183 522 157 q 604 194 594 194 q 634 173 619 194 q 649 126 649 151 q 626 69 649 96 q 565 22 603 42 q 463 -8 522 3 q 339 -18 403 -18 z "},"Ê":{"ha":701,"x_min":60,"x_max":654,"o":"m 339 -18 q 144 24 207 -18 q 81 183 81 67 q 84 240 81 207 q 94 321 88 274 q 111 442 106 389 q 117 560 117 496 q 115 640 117 601 q 107 714 113 679 q 79 710 86 710 q 64 715 68 710 q 60 733 60 719 q 67 791 60 763 q 86 838 74 819 q 158 876 110 871 q 251 885 196 881 q 363 891 306 889 q 467 893 421 893 q 618 888 594 893 q 654 849 654 882 q 625 772 654 807 q 594 742 610 751 q 551 735 579 733 q 444 740 490 739 q 381 742 399 742 q 315 740 349 742 q 246 736 281 739 q 242 632 246 688 q 231 515 238 576 q 375 522 294 519 q 518 524 456 524 q 556 518 546 524 q 567 489 567 513 q 555 440 567 467 q 524 393 543 413 q 506 380 515 385 q 479 376 496 375 q 344 381 419 379 q 211 381 268 382 q 203 322 206 349 q 200 275 200 296 q 239 168 200 199 q 367 138 278 138 q 472 147 421 138 q 575 183 522 157 q 604 194 594 194 q 634 173 619 194 q 649 126 649 151 q 626 69 649 96 q 565 22 603 42 q 463 -8 522 3 q 339 -18 403 -18 z "},"Ë":{"ha":701,"x_min":60,"x_max":654,"o":"m 339 -18 q 144 24 207 -18 q 81 183 81 67 q 84 240 81 207 q 94 321 88 274 q 111 442 106 389 q 117 560 117 496 q 115 640 117 601 q 107 714 113 679 q 79 710 86 710 q 64 715 68 710 q 60 733 60 719 q 67 791 60 763 q 86 838 74 819 q 158 876 110 871 q 251 885 196 881 q 363 891 306 889 q 467 893 421 893 q 618 888 594 893 q 654 849 654 882 q 625 772 654 807 q 594 742 610 751 q 551 735 579 733 q 444 740 490 739 q 381 742 399 742 q 315 740 349 742 q 246 736 281 739 q 242 632 246 688 q 231 515 238 576 q 375 522 294 519 q 518 524 456 524 q 556 518 546 524 q 567 489 567 513 q 555 440 567 467 q 524 393 543 413 q 506 380 515 385 q 479 376 496 375 q 344 381 419 379 q 211 381 268 382 q 203 322 206 349 q 200 275 200 296 q 239 168 200 199 q 367 138 278 138 q 472 147 421 138 q 575 183 522 157 q 604 194 594 194 q 634 173 619 194 q 649 126 649 151 q 626 69 649 96 q 565 22 603 42 q 463 -8 522 3 q 339 -18 403 -18 z "},"Ė":{"ha":701,"x_min":60,"x_max":654,"o":"m 339 -18 q 144 24 207 -18 q 81 183 81 67 q 84 240 81 207 q 94 321 88 274 q 111 442 106 389 q 117 560 117 496 q 115 640 117 601 q 107 714 113 679 q 79 710 86 710 q 64 715 68 710 q 60 733 60 719 q 67 791 60 763 q 86 838 74 819 q 158 876 110 871 q 251 885 196 881 q 363 891 306 889 q 467 893 421 893 q 618 888 594 893 q 654 849 654 882 q 625 772 654 807 q 594 742 610 751 q 551 735 579 733 q 444 740 490 739 q 381 742 399 742 q 315 740 349 742 q 246 736 281 739 q 242 632 246 688 q 231 515 238 576 q 375 522 294 519 q 518 524 456 524 q 556 518 546 524 q 567 489 567 513 q 555 440 567 467 q 524 393 543 413 q 506 380 515 385 q 479 376 496 375 q 344 381 419 379 q 211 381 268 382 q 203 322 206 349 q 200 275 200 296 q 239 168 200 199 q 367 138 278 138 q 472 147 421 138 q 575 183 522 157 q 604 194 594 194 q 634 173 619 194 q 649 126 649 151 q 626 69 649 96 q 565 22 603 42 q 463 -8 522 3 q 339 -18 403 -18 z "},"È":{"ha":701,"x_min":60,"x_max":654,"o":"m 339 -18 q 144 24 207 -18 q 81 183 81 67 q 84 240 81 207 q 94 321 88 274 q 111 442 106 389 q 117 560 117 496 q 115 640 117 601 q 107 714 113 679 q 79 710 86 710 q 64 715 68 710 q 60 733 60 719 q 67 791 60 763 q 86 838 74 819 q 158 876 110 871 q 251 885 196 881 q 363 891 306 889 q 467 893 421 893 q 618 888 594 893 q 654 849 654 882 q 625 772 654 807 q 594 742 610 751 q 551 735 579 733 q 444 740 490 739 q 381 742 399 742 q 315 740 349 742 q 246 736 281 739 q 242 632 246 688 q 231 515 238 576 q 375 522 294 519 q 518 524 456 524 q 556 518 546 524 q 567 489 567 513 q 555 440 567 467 q 524 393 543 413 q 506 380 515 385 q 479 376 496 375 q 344 381 419 379 q 211 381 268 382 q 203 322 206 349 q 200 275 200 296 q 239 168 200 199 q 367 138 278 138 q 472 147 421 138 q 575 183 522 157 q 604 194 594 194 q 634 173 619 194 q 649 126 649 151 q 626 69 649 96 q 565 22 603 42 q 463 -8 522 3 q 339 -18 403 -18 z "},"Ē":{"ha":701,"x_min":60,"x_max":654,"o":"m 339 -18 q 144 24 207 -18 q 81 183 81 67 q 84 240 81 207 q 94 321 88 274 q 111 442 106 389 q 117 560 117 496 q 115 640 117 601 q 107 714 113 679 q 79 710 86 710 q 64 715 68 710 q 60 733 60 719 q 67 791 60 763 q 86 838 74 819 q 158 876 110 871 q 251 885 196 881 q 363 891 306 889 q 467 893 421 893 q 618 888 594 893 q 654 849 654 882 q 625 772 654 807 q 594 742 610 751 q 551 735 579 733 q 444 740 490 739 q 381 742 399 742 q 315 740 349 742 q 246 736 281 739 q 242 632 246 688 q 231 515 238 576 q 375 522 294 519 q 518 524 456 524 q 556 518 546 524 q 567 489 567 513 q 555 440 567 467 q 524 393 543 413 q 506 380 515 385 q 479 376 496 375 q 344 381 419 379 q 211 381 268 382 q 203 322 206 349 q 200 275 200 296 q 239 168 200 199 q 367 138 278 138 q 472 147 421 138 q 575 183 522 157 q 604 194 594 194 q 634 173 619 194 q 649 126 649 151 q 626 69 649 96 q 565 22 603 42 q 463 -8 522 3 q 339 -18 403 -18 z "},"Ę":{"ha":701,"x_min":60,"x_max":654,"o":"m 417 -318 q 317 -282 353 -318 q 282 -190 282 -246 q 311 -90 282 -132 q 396 -18 340 -49 q 220 -6 290 -18 q 115 50 150 7 q 81 183 81 93 q 84 240 81 207 q 94 321 88 274 q 111 442 106 389 q 117 560 117 496 q 115 640 117 601 q 107 714 113 679 q 79 710 86 710 q 64 715 68 710 q 60 733 60 719 q 67 791 60 763 q 86 838 74 819 q 158 876 110 871 q 251 885 196 881 q 363 891 306 889 q 467 893 421 893 q 618 888 594 893 q 654 849 654 882 q 625 772 654 807 q 594 742 610 751 q 551 735 579 733 q 444 740 490 739 q 381 742 399 742 q 315 740 349 742 q 246 736 281 739 q 242 632 246 688 q 231 515 238 576 q 375 522 294 519 q 518 524 456 524 q 556 518 546 524 q 567 489 567 513 q 555 440 567 467 q 524 393 543 413 q 506 380 515 385 q 479 376 496 375 q 344 381 419 379 q 211 381 268 382 q 203 322 206 349 q 200 275 200 296 q 239 168 200 199 q 367 138 278 138 q 472 147 421 138 q 575 183 522 157 q 604 194 594 194 q 634 173 619 194 q 649 126 649 151 q 626 69 649 96 q 565 22 603 42 q 465 -44 497 -11 q 428 -94 442 -67 q 414 -146 414 -122 q 434 -181 414 -172 q 476 -189 454 -189 q 505 -184 488 -189 q 539 -169 522 -179 q 561 -162 550 -162 q 583 -173 578 -162 q 589 -192 589 -183 q 587 -213 589 -201 q 576 -240 585 -225 q 507 -298 551 -278 q 417 -318 463 -318 z "},"Ð":{"ha":840,"x_min":22,"x_max":783,"o":"m 283 -18 q 187 -8 228 -18 q 118 28 146 3 q 91 71 99 47 q 83 125 83 94 q 92 219 83 165 q 106 315 100 271 q 114 394 111 358 l 78 394 q 36 400 50 394 q 22 421 22 406 q 39 468 22 449 q 71 486 56 488 l 121 483 q 124 532 124 506 q 125 576 125 558 q 122 633 125 606 q 115 688 119 661 q 81 676 90 676 q 60 717 60 676 q 140 836 60 792 q 264 881 189 864 q 411 899 339 899 q 685 796 586 899 q 783 507 783 693 q 724 243 783 363 q 551 51 665 124 q 283 -18 438 -18 m 328 138 q 498 174 418 139 q 628 282 578 208 q 678 460 678 353 q 599 669 678 597 q 401 742 521 742 q 254 721 336 742 q 233 483 253 633 q 344 488 294 486 q 435 490 394 490 q 475 482 464 490 q 486 454 486 474 q 471 408 486 426 q 439 390 456 390 l 222 397 q 214 250 214 310 q 241 161 214 185 q 328 138 268 138 z "},"F":{"ha":643,"x_min":60,"x_max":647,"o":"m 144 -14 q 110 -8 128 -14 q 81 18 93 -3 q 69 82 69 39 q 75 155 69 110 q 90 272 81 200 q 106 395 97 318 q 115 557 115 472 q 113 637 115 594 q 101 714 110 679 q 76 710 85 710 q 64 715 68 710 q 60 733 60 719 q 66 790 60 761 q 86 838 72 818 q 119 865 100 857 q 158 876 138 874 q 247 884 193 881 q 359 890 300 888 q 467 893 418 893 q 563 892 532 893 q 611 888 594 890 q 647 849 647 882 q 638 806 647 825 q 617 772 629 788 q 584 741 601 750 q 539 735 567 732 q 474 740 515 738 q 381 742 433 742 q 322 740 358 742 q 246 736 286 739 q 238 628 244 689 q 222 506 231 568 q 313 510 260 508 q 421 514 365 513 q 519 515 476 515 q 556 509 544 515 q 567 482 567 503 q 555 431 567 458 q 524 385 543 404 q 485 367 506 365 q 387 371 450 369 q 254 372 324 372 l 210 372 q 205 312 207 342 q 203 257 203 282 q 213 172 203 208 q 250 108 222 135 q 268 67 268 90 q 233 11 268 36 q 144 -14 199 -14 z "},"G":{"ha":890,"x_min":63,"x_max":861,"o":"m 400 -18 q 228 25 304 -18 q 107 150 151 68 q 63 349 63 232 q 98 552 63 454 q 199 728 133 650 q 357 853 264 807 q 564 899 450 899 q 703 872 647 899 q 758 794 758 846 q 745 745 758 769 q 711 704 732 721 q 668 688 690 688 q 646 694 654 688 q 482 743 574 743 q 318 698 385 743 q 217 579 251 653 q 183 419 183 506 q 256 214 183 290 q 451 138 329 138 q 550 153 504 138 q 625 197 596 168 q 654 268 654 226 q 629 332 654 310 q 564 365 604 354 q 476 378 524 375 q 427 386 443 381 q 411 419 411 392 q 432 475 411 453 q 483 500 453 497 q 583 506 525 504 q 705 509 642 508 q 824 510 768 510 q 851 503 842 510 q 861 478 861 497 q 851 426 861 454 q 822 379 840 399 q 781 360 804 360 l 758 360 q 766 328 763 346 q 769 289 769 311 q 740 173 769 228 q 660 75 711 118 q 542 7 608 32 q 400 -18 475 -18 z "},"Ğ":{"ha":890,"x_min":63,"x_max":861,"o":"m 482 975 q 346 1028 397 975 q 294 1158 294 1082 q 309 1212 296 1196 q 342 1228 322 1228 q 379 1194 371 1228 q 418 1135 392 1158 q 490 1111 444 1111 q 565 1135 536 1111 q 607 1194 593 1158 q 646 1228 619 1228 q 678 1210 669 1228 q 688 1163 688 1192 q 660 1069 688 1111 q 585 1001 632 1026 q 482 975 539 975 m 400 -18 q 228 25 304 -18 q 107 150 151 68 q 63 349 63 232 q 98 552 63 454 q 199 728 133 650 q 357 853 264 807 q 564 899 450 899 q 703 872 647 899 q 758 794 758 846 q 745 745 758 769 q 711 704 732 721 q 668 688 690 688 q 646 694 654 688 q 482 743 574 743 q 318 698 385 743 q 217 579 251 653 q 183 419 183 506 q 256 214 183 290 q 451 138 329 138 q 550 153 504 138 q 625 197 596 168 q 654 268 654 226 q 629 332 654 310 q 564 365 604 354 q 476 378 524 375 q 427 386 443 381 q 411 419 411 392 q 432 475 411 453 q 483 500 453 497 q 583 506 525 504 q 705 509 642 508 q 824 510 768 510 q 851 503 842 510 q 861 478 861 497 q 851 426 861 454 q 822 379 840 399 q 781 360 804 360 l 758 360 q 766 328 763 346 q 769 289 769 311 q 740 173 769 228 q 660 75 711 118 q 542 7 608 32 q 400 -18 475 -18 z "},"Ģ":{"ha":890,"x_min":63,"x_max":861,"o":"m 400 -18 q 228 25 304 -18 q 107 150 151 68 q 63 349 63 232 q 98 552 63 454 q 199 728 133 650 q 357 853 264 807 q 564 899 450 899 q 703 872 647 899 q 758 794 758 846 q 745 745 758 769 q 711 704 732 721 q 668 688 690 688 q 646 694 654 688 q 482 743 574 743 q 318 698 385 743 q 217 579 251 653 q 183 419 183 506 q 256 214 183 290 q 451 138 329 138 q 550 153 504 138 q 625 197 596 168 q 654 268 654 226 q 629 332 654 310 q 564 365 604 354 q 476 378 524 375 q 427 386 443 381 q 411 419 411 392 q 432 475 411 453 q 483 500 453 497 q 583 506 525 504 q 705 509 642 508 q 824 510 768 510 q 851 503 842 510 q 861 478 861 497 q 851 426 861 454 q 822 379 840 399 q 781 360 804 360 l 758 360 q 766 328 763 346 q 769 289 769 311 q 740 173 769 228 q 660 75 711 118 q 542 7 608 32 q 400 -18 475 -18 m 350 -446 q 318 -419 318 -446 q 350 -376 318 -400 q 392 -326 375 -354 q 410 -268 410 -299 q 404 -254 410 -260 q 383 -240 399 -249 q 356 -210 364 -229 q 347 -174 347 -192 q 372 -112 347 -139 q 443 -85 397 -85 q 508 -110 482 -85 q 535 -190 535 -135 q 497 -322 535 -262 q 417 -417 460 -381 q 379 -440 396 -435 q 350 -446 363 -446 z "},"H":{"ha":885,"x_min":68,"x_max":825,"o":"m 128 -15 q 74 24 74 -15 q 78 53 74 35 q 119 349 107 199 q 86 343 99 343 q 72 368 72 343 q 89 443 72 401 q 128 504 106 485 q 124 627 128 578 q 111 714 121 676 q 81 786 101 751 q 68 815 68 806 q 87 851 68 833 q 133 881 106 868 q 183 893 160 893 q 242 853 228 893 q 257 750 257 814 q 251 663 256 719 q 239 522 247 606 q 410 531 326 528 q 569 533 493 533 l 672 533 l 672 572 q 640 785 672 693 q 631 818 631 808 q 666 869 631 846 q 740 893 701 893 q 798 862 783 893 q 813 774 813 831 q 806 672 813 736 q 786 517 799 608 q 767 356 774 419 q 760 244 760 293 q 807 108 760 153 q 825 67 825 88 q 788 10 825 35 q 697 -14 750 -14 q 644 4 664 -14 q 625 82 625 22 q 629 144 625 103 q 643 250 633 186 q 653 328 649 290 q 661 399 658 365 q 642 379 651 386 q 618 374 633 372 q 519 378 568 376 q 421 381 469 381 q 228 368 319 381 q 226 335 226 358 q 225 297 225 313 q 231 174 225 238 q 242 60 236 110 q 208 5 246 25 q 128 -15 171 -15 z "},"Ḥ":{"ha":885,"x_min":68,"x_max":825,"o":"m 128 -15 q 74 24 74 -15 q 78 53 74 35 q 119 349 107 199 q 86 343 99 343 q 72 368 72 343 q 89 443 72 401 q 128 504 106 485 q 124 627 128 578 q 111 714 121 676 q 81 786 101 751 q 68 815 68 806 q 87 851 68 833 q 133 881 106 868 q 183 893 160 893 q 242 853 228 893 q 257 750 257 814 q 251 663 256 719 q 239 522 247 606 q 410 531 326 528 q 569 533 493 533 l 672 533 l 672 572 q 640 785 672 693 q 631 818 631 808 q 666 869 631 846 q 740 893 701 893 q 798 862 783 893 q 813 774 813 831 q 806 672 813 736 q 786 517 799 608 q 767 356 774 419 q 760 244 760 293 q 807 108 760 153 q 825 67 825 88 q 788 10 825 35 q 697 -14 750 -14 q 644 4 664 -14 q 625 82 625 22 q 629 144 625 103 q 643 250 633 186 q 653 328 649 290 q 661 399 658 365 q 642 379 651 386 q 618 374 633 372 q 519 378 568 376 q 421 381 469 381 q 228 368 319 381 q 226 335 226 358 q 225 297 225 313 q 231 174 225 238 q 242 60 236 110 q 208 5 246 25 q 128 -15 171 -15 m 424 -249 q 361 -226 385 -249 q 338 -164 338 -203 q 365 -94 338 -121 q 436 -67 393 -67 q 499 -88 476 -67 q 521 -150 521 -110 q 494 -221 521 -193 q 424 -249 468 -249 z "},"I":{"ha":357,"x_min":78,"x_max":288,"o":"m 164 -14 q 110 4 131 -14 q 89 78 89 22 q 94 150 89 106 q 106 239 100 194 q 128 410 121 338 q 135 557 135 482 q 127 686 135 626 q 89 789 119 746 q 78 817 78 807 q 97 852 78 833 q 142 883 115 871 q 193 896 169 896 q 251 858 236 896 q 265 763 265 819 q 261 676 265 728 q 252 577 257 625 q 243 503 247 529 q 228 365 233 429 q 222 257 222 301 q 233 168 222 204 q 269 108 243 132 q 288 71 288 92 q 253 12 288 38 q 164 -14 219 -14 z "},"Í":{"ha":357,"x_min":78,"x_max":379,"o":"m 143 964 q 111 994 111 964 q 121 1025 111 1011 q 180 1116 149 1071 q 244 1193 211 1161 q 308 1225 275 1225 q 355 1204 331 1225 q 379 1154 379 1183 q 350 1096 379 1125 q 267 1031 315 1061 q 169 972 219 1000 q 143 964 156 964 m 164 -14 q 110 4 131 -14 q 89 78 89 22 q 94 150 89 106 q 106 239 100 194 q 128 410 121 338 q 135 557 135 482 q 127 686 135 626 q 89 789 119 746 q 78 817 78 807 q 97 852 78 833 q 142 883 115 871 q 193 896 169 896 q 251 858 236 896 q 265 763 265 819 q 261 676 265 728 q 252 577 257 625 q 243 503 247 529 q 228 365 233 429 q 222 257 222 301 q 233 168 222 204 q 269 108 243 132 q 288 71 288 92 q 253 12 288 38 q 164 -14 219 -14 z "},"Î":{"ha":357,"x_min":17,"x_max":360,"o":"m 40 967 q 24 976 31 967 q 17 999 17 986 q 28 1042 17 1019 q 62 1097 40 1067 q 104 1155 83 1128 q 135 1193 125 1182 q 169 1219 153 1213 q 197 1226 185 1226 q 258 1194 231 1226 q 287 1156 269 1182 q 322 1098 304 1129 q 350 1039 340 1067 q 360 1003 360 1019 q 351 978 360 989 q 331 968 343 968 q 321 969 326 968 q 308 976 315 971 q 276 1001 297 983 q 233 1041 256 1019 q 192 1079 210 1063 q 120 1018 158 1049 q 64 976 82 988 q 40 967 49 967 m 164 -14 q 110 4 131 -14 q 89 78 89 22 q 94 150 89 106 q 106 239 100 194 q 128 410 121 338 q 135 557 135 482 q 127 686 135 626 q 89 789 119 746 q 78 817 78 807 q 97 852 78 833 q 142 883 115 871 q 193 896 169 896 q 251 858 236 896 q 265 763 265 819 q 261 676 265 728 q 252 577 257 625 q 243 503 247 529 q 228 365 233 429 q 222 257 222 301 q 233 168 222 204 q 269 108 243 132 q 288 71 288 92 q 253 12 288 38 q 164 -14 219 -14 z "},"Ï":{"ha":357,"x_min":-7,"x_max":378,"o":"m 74 997 q 15 1018 36 997 q -7 1078 -7 1039 q 19 1144 -7 1118 q 83 1169 44 1169 q 163 1089 163 1169 q 138 1024 163 1050 q 74 997 114 997 m 288 997 q 230 1018 251 997 q 208 1078 208 1039 q 234 1144 208 1118 q 299 1169 260 1169 q 378 1089 378 1169 q 353 1024 378 1050 q 288 997 329 997 m 164 -14 q 110 4 131 -14 q 89 78 89 22 q 94 150 89 106 q 106 239 100 194 q 128 410 121 338 q 135 557 135 482 q 127 686 135 626 q 89 789 119 746 q 78 817 78 807 q 97 852 78 833 q 142 883 115 871 q 193 896 169 896 q 251 858 236 896 q 265 763 265 819 q 261 676 265 728 q 252 577 257 625 q 243 503 247 529 q 228 365 233 429 q 222 257 222 301 q 233 168 222 204 q 269 108 243 132 q 288 71 288 92 q 253 12 288 38 q 164 -14 219 -14 z "},"İ":{"ha":357,"x_min":78,"x_max":288,"o":"m 182 994 q 118 1017 142 994 q 94 1079 94 1039 q 122 1149 94 1122 q 193 1176 150 1176 q 256 1154 233 1176 q 279 1092 279 1132 q 253 1022 279 1050 q 182 994 226 994 m 164 -14 q 110 4 131 -14 q 89 78 89 22 q 94 150 89 106 q 106 239 100 194 q 128 410 121 338 q 135 557 135 482 q 127 686 135 626 q 89 789 119 746 q 78 817 78 807 q 97 852 78 833 q 142 883 115 871 q 193 896 169 896 q 251 858 236 896 q 265 763 265 819 q 261 676 265 728 q 252 577 257 625 q 243 503 247 529 q 228 365 233 429 q 222 257 222 301 q 233 168 222 204 q 269 108 243 132 q 288 71 288 92 q 253 12 288 38 q 164 -14 219 -14 z "},"Ì":{"ha":357,"x_min":19,"x_max":288,"o":"m 232 956 q 210 964 221 956 q 122 1022 164 992 q 47 1088 79 1053 q 19 1147 19 1118 q 39 1196 19 1175 q 88 1217 58 1217 q 118 1210 101 1217 q 154 1179 135 1204 q 203 1107 178 1150 q 251 1017 229 1064 q 261 986 261 1003 q 232 956 261 956 m 164 -14 q 110 4 131 -14 q 89 78 89 22 q 94 150 89 106 q 106 239 100 194 q 128 410 121 338 q 135 557 135 482 q 127 686 135 626 q 89 789 119 746 q 78 817 78 807 q 97 852 78 833 q 142 883 115 871 q 193 896 169 896 q 251 858 236 896 q 265 763 265 819 q 261 676 265 728 q 252 577 257 625 q 243 503 247 529 q 228 365 233 429 q 222 257 222 301 q 233 168 222 204 q 269 108 243 132 q 288 71 288 92 q 253 12 288 38 q 164 -14 219 -14 z "},"Ī":{"ha":357,"x_min":28,"x_max":346,"o":"m 57 1017 q 37 1030 46 1017 q 28 1065 28 1043 q 34 1104 28 1088 q 58 1128 40 1121 q 113 1138 75 1135 q 197 1144 151 1142 q 281 1146 242 1146 q 328 1139 311 1146 q 346 1106 346 1132 q 336 1045 346 1075 q 307 1017 326 1015 q 248 1021 278 1019 q 179 1022 218 1022 q 117 1021 151 1022 q 57 1017 83 1019 m 164 -14 q 110 4 131 -14 q 89 78 89 22 q 94 150 89 106 q 106 239 100 194 q 128 410 121 338 q 135 557 135 482 q 127 686 135 626 q 89 789 119 746 q 78 817 78 807 q 97 852 78 833 q 142 883 115 871 q 193 896 169 896 q 251 858 236 896 q 265 763 265 819 q 261 676 265 728 q 252 577 257 625 q 243 503 247 529 q 228 365 233 429 q 222 257 222 301 q 233 168 222 204 q 269 108 243 132 q 288 71 288 92 q 253 12 288 38 q 164 -14 219 -14 z "},"Į":{"ha":357,"x_min":-15,"x_max":296,"o":"m 117 -349 q 19 -305 53 -349 q -15 -201 -15 -261 q 20 -88 -15 -140 q 111 3 56 -36 q 95 31 101 14 q 89 78 89 49 q 94 150 89 106 q 106 239 100 194 q 128 410 121 338 q 135 557 135 482 q 127 686 135 626 q 89 789 119 746 q 78 817 78 807 q 97 852 78 833 q 142 883 115 871 q 193 896 169 896 q 251 858 236 896 q 265 763 265 819 q 261 676 265 728 q 252 577 257 625 q 243 503 247 529 q 228 365 233 429 q 222 257 222 301 q 233 168 222 204 q 269 108 243 132 q 288 71 288 92 q 274 32 288 49 q 242 4 261 15 q 152 -67 190 -21 q 114 -160 114 -112 q 131 -203 114 -190 q 168 -215 147 -215 q 210 -205 190 -215 q 242 -185 229 -194 q 255 -179 249 -181 q 267 -178 261 -178 q 290 -191 285 -178 q 296 -215 296 -204 q 285 -251 296 -231 q 215 -322 263 -296 q 117 -349 167 -349 z "},"J":{"ha":710,"x_min":29,"x_max":657,"o":"m 275 -18 q 92 38 154 -18 q 29 201 29 94 q 56 322 29 278 q 104 388 82 365 q 136 412 124 407 q 157 417 149 417 q 185 407 175 417 q 196 382 196 397 q 192 365 196 372 q 185 351 189 357 q 156 258 156 314 q 200 165 156 194 q 315 136 244 136 q 458 191 414 136 q 510 339 503 246 q 513 415 513 372 q 514 497 514 458 q 490 740 511 643 q 415 744 456 743 q 339 746 375 746 q 143 728 214 746 q 104 722 119 722 q 88 727 93 722 q 83 750 83 732 q 92 799 83 775 q 114 840 100 822 q 150 870 129 861 q 201 882 171 879 q 312 890 249 886 q 456 893 375 893 q 563 890 522 893 q 621 885 604 888 q 649 872 640 882 q 657 840 657 863 q 651 800 657 821 q 633 764 644 779 q 627 427 636 578 q 572 172 618 276 q 275 -18 486 -18 z "},"K":{"ha":799,"x_min":68,"x_max":783,"o":"m 128 -15 q 81 1 90 -15 q 76 49 71 18 q 113 272 97 151 q 128 515 128 393 q 122 664 128 599 q 81 786 115 729 q 72 802 75 794 q 68 815 68 810 q 88 851 68 833 q 136 881 108 868 q 189 893 164 893 q 237 871 222 893 q 254 816 251 849 q 257 750 257 783 q 253 676 257 717 q 246 586 250 635 q 232 447 239 522 q 225 289 225 371 q 232 137 225 196 q 242 60 239 78 q 228 19 246 36 q 182 -6 210 3 q 128 -15 154 -15 m 657 -12 q 551 15 601 -12 q 456 88 500 43 q 376 185 411 132 q 315 289 340 238 q 276 379 289 340 q 264 444 264 417 q 286 518 264 475 q 339 599 304 551 q 419 697 374 646 q 513 793 464 749 q 613 865 563 838 q 706 893 663 893 q 762 870 744 893 q 779 818 779 847 q 769 768 779 794 q 743 724 760 742 q 704 706 726 706 q 678 709 690 706 q 649 713 667 713 q 606 706 631 713 q 553 679 582 699 q 494 630 529 663 q 424 556 460 597 q 357 467 388 514 q 410 372 376 419 q 479 282 443 324 q 605 172 544 207 q 753 138 665 138 q 777 129 771 138 q 783 103 783 121 q 753 25 783 63 q 657 -12 724 -12 z "},"Ķ":{"ha":799,"x_min":68,"x_max":783,"o":"m 128 -15 q 81 1 90 -15 q 76 49 71 18 q 113 272 97 151 q 128 515 128 393 q 122 664 128 599 q 81 786 115 729 q 72 802 75 794 q 68 815 68 810 q 88 851 68 833 q 136 881 108 868 q 189 893 164 893 q 237 871 222 893 q 254 816 251 849 q 257 750 257 783 q 253 676 257 717 q 246 586 250 635 q 232 447 239 522 q 225 289 225 371 q 232 137 225 196 q 242 60 239 78 q 228 19 246 36 q 182 -6 210 3 q 128 -15 154 -15 m 657 -12 q 551 15 601 -12 q 456 88 500 43 q 376 185 411 132 q 315 289 340 238 q 276 379 289 340 q 264 444 264 417 q 286 518 264 475 q 339 599 304 551 q 419 697 374 646 q 513 793 464 749 q 613 865 563 838 q 706 893 663 893 q 762 870 744 893 q 779 818 779 847 q 769 768 779 794 q 743 724 760 742 q 704 706 726 706 q 681 708 689 706 q 649 713 664 713 q 606 706 631 713 q 553 679 582 699 q 494 630 529 663 q 424 556 460 597 q 357 467 388 514 q 410 372 376 419 q 479 282 443 324 q 605 172 544 207 q 753 138 665 138 q 777 129 771 138 q 783 103 783 121 q 753 25 783 63 q 657 -12 724 -12 m 290 -432 q 260 -407 260 -432 q 268 -385 260 -394 q 290 -362 276 -375 q 333 -312 317 -340 q 350 -254 350 -285 q 345 -242 350 -247 q 324 -226 340 -236 q 297 -197 306 -217 q 288 -160 288 -178 q 313 -99 288 -126 q 383 -72 338 -72 q 450 -97 424 -72 q 476 -178 476 -122 q 439 -309 476 -250 q 357 -404 401 -368 q 321 -426 338 -421 q 290 -432 304 -432 z "},"L":{"ha":647,"x_min":68,"x_max":633,"o":"m 322 -18 q 176 3 228 -18 q 106 61 125 24 q 86 150 86 99 q 90 206 86 175 q 100 278 94 238 q 125 549 125 431 q 119 681 125 626 q 82 786 113 736 q 72 803 76 794 q 68 818 68 813 q 88 853 68 835 q 135 883 107 871 q 188 896 163 896 q 247 858 235 896 q 258 751 258 821 q 253 667 258 725 q 236 521 247 610 q 219 372 225 435 q 214 272 214 310 q 227 188 214 217 q 271 149 240 160 q 357 138 301 138 q 471 148 417 138 q 576 181 525 158 q 589 185 583 183 q 599 186 594 186 q 622 171 611 186 q 633 128 633 156 q 567 32 633 67 q 322 -18 478 -18 z "},"Ĺ":{"ha":647,"x_min":68,"x_max":633,"o":"m 142 964 q 110 994 110 964 q 119 1025 110 1011 q 178 1116 147 1071 q 243 1193 210 1161 q 307 1225 274 1225 q 353 1204 329 1225 q 378 1154 378 1183 q 350 1096 378 1126 q 266 1031 314 1061 q 168 972 218 1000 q 142 964 154 964 m 322 -18 q 176 3 228 -18 q 106 61 125 24 q 86 150 86 99 q 90 206 86 175 q 100 278 94 238 q 125 549 125 431 q 119 681 125 626 q 82 786 113 736 q 72 803 76 794 q 68 818 68 813 q 88 853 68 835 q 135 883 107 871 q 188 896 163 896 q 247 858 235 896 q 258 751 258 821 q 253 667 258 725 q 236 521 247 610 q 219 372 225 435 q 214 272 214 310 q 227 188 214 217 q 271 149 240 160 q 357 138 301 138 q 471 148 417 138 q 576 181 525 158 q 589 185 583 183 q 599 186 594 186 q 622 171 611 186 q 633 128 633 156 q 567 32 633 67 q 322 -18 478 -18 z "},"Ľ":{"ha":647,"x_min":68,"x_max":633,"o":"m 385 621 q 362 628 371 621 q 353 650 353 636 q 361 683 353 665 q 374 756 374 715 q 366 808 374 789 q 351 843 358 828 q 343 876 343 858 q 366 926 343 908 q 414 944 389 944 q 467 908 451 944 q 483 831 483 871 q 468 736 483 786 q 433 656 453 686 q 385 621 410 621 m 322 -18 q 176 3 228 -18 q 106 61 125 24 q 86 150 86 99 q 90 206 86 175 q 100 278 94 238 q 125 549 125 431 q 119 681 125 626 q 82 786 113 736 q 72 803 76 794 q 68 818 68 813 q 88 853 68 835 q 135 883 107 871 q 188 896 163 896 q 247 858 235 896 q 258 751 258 821 q 253 667 258 725 q 236 521 247 610 q 219 372 225 435 q 214 272 214 310 q 227 188 214 217 q 271 149 240 160 q 357 138 301 138 q 471 148 417 138 q 576 181 525 158 q 589 185 583 183 q 599 186 594 186 q 622 171 611 186 q 633 128 633 156 q 567 32 633 67 q 322 -18 478 -18 z "},"Ļ":{"ha":647,"x_min":68,"x_max":633,"o":"m 322 -18 q 176 3 228 -18 q 106 61 125 24 q 86 150 86 99 q 90 206 86 175 q 100 278 94 238 q 125 549 125 431 q 119 681 125 626 q 82 786 113 736 q 72 803 76 794 q 68 818 68 813 q 88 853 68 835 q 135 883 107 871 q 188 896 163 896 q 247 858 235 896 q 258 751 258 821 q 253 667 258 725 q 236 521 247 610 q 219 372 225 435 q 214 272 214 310 q 227 188 214 217 q 271 149 240 160 q 357 138 301 138 q 471 148 417 138 q 576 181 525 158 q 589 185 583 183 q 599 186 594 186 q 622 171 611 186 q 633 128 633 156 q 567 32 633 67 q 322 -18 478 -18 m 238 -446 q 207 -419 207 -446 q 238 -376 207 -399 q 281 -326 264 -354 q 297 -268 297 -299 q 292 -254 297 -260 q 271 -240 286 -249 q 244 -210 253 -229 q 235 -174 235 -192 q 260 -112 235 -139 q 331 -85 285 -85 q 397 -110 371 -85 q 422 -190 422 -135 q 385 -322 422 -262 q 304 -417 347 -381 q 267 -440 285 -435 q 238 -446 250 -446 z "},"Ŀ":{"ha":660,"x_min":68,"x_max":633,"o":"m 322 -18 q 176 3 228 -18 q 106 61 125 24 q 86 150 86 99 q 90 206 86 175 q 100 278 94 238 q 125 549 125 431 q 119 681 125 626 q 82 786 113 736 q 72 803 76 794 q 68 818 68 813 q 88 853 68 835 q 135 883 107 871 q 188 896 163 896 q 247 858 235 896 q 258 751 258 821 q 253 667 258 725 q 236 521 247 610 q 219 372 225 435 q 214 272 214 310 q 227 188 214 217 q 271 149 240 160 q 357 138 301 138 q 471 148 417 138 q 576 181 525 158 q 589 185 583 183 q 599 186 594 186 q 622 171 611 186 q 633 128 633 156 q 567 32 633 67 q 322 -18 478 -18 m 497 404 q 432 427 456 404 q 408 492 408 450 q 437 566 408 538 q 511 594 465 594 q 576 572 553 594 q 600 507 600 549 q 572 434 600 464 q 497 404 544 404 z "},"Ḷ":{"ha":647,"x_min":68,"x_max":633,"o":"m 322 -18 q 176 3 228 -18 q 106 61 125 24 q 86 150 86 99 q 90 206 86 175 q 100 278 94 238 q 125 549 125 431 q 119 681 125 626 q 82 786 113 736 q 72 803 76 794 q 68 818 68 813 q 88 853 68 835 q 135 883 107 871 q 188 896 163 896 q 247 858 235 896 q 258 751 258 821 q 253 667 258 725 q 236 521 247 610 q 219 372 225 435 q 214 272 214 310 q 227 188 214 217 q 271 149 240 160 q 357 138 301 138 q 471 148 417 138 q 576 181 525 158 q 589 185 583 183 q 599 186 594 186 q 622 171 611 186 q 633 128 633 156 q 567 32 633 67 q 322 -18 478 -18 m 324 -271 q 261 -249 285 -271 q 238 -186 238 -226 q 265 -116 238 -143 q 336 -89 293 -89 q 399 -111 376 -89 q 421 -174 421 -133 q 394 -243 421 -215 q 324 -271 368 -271 z "},"Ḹ":{"ha":647,"x_min":-19,"x_max":633,"o":"m 10 1017 q -11 1029 -3 1015 q -19 1065 -19 1043 q -14 1103 -19 1085 q 11 1128 -8 1121 q 60 1135 24 1132 q 145 1141 97 1139 q 238 1144 193 1143 q 313 1146 283 1146 q 360 1138 343 1146 q 378 1103 378 1131 q 368 1045 378 1075 q 339 1017 358 1015 q 265 1020 310 1018 q 171 1021 219 1022 q 84 1019 132 1021 q 10 1017 36 1018 m 322 -18 q 176 3 228 -18 q 106 61 125 24 q 86 150 86 99 q 90 206 86 175 q 100 278 94 238 q 125 549 125 431 q 119 681 125 626 q 82 786 113 736 q 72 803 76 794 q 68 818 68 813 q 88 853 68 835 q 135 883 107 871 q 188 896 163 896 q 247 858 235 896 q 258 751 258 821 q 253 667 258 725 q 236 521 247 610 q 219 372 225 435 q 214 272 214 310 q 227 188 214 217 q 271 149 240 160 q 357 138 301 138 q 471 148 417 138 q 576 181 525 158 q 589 185 583 183 q 599 186 594 186 q 622 171 611 186 q 633 128 633 156 q 567 32 633 67 q 322 -18 478 -18 m 324 -271 q 261 -249 285 -271 q 238 -186 238 -226 q 265 -116 238 -143 q 336 -89 293 -89 q 399 -111 376 -89 q 421 -174 421 -133 q 394 -243 421 -215 q 324 -271 368 -271 z "},"Ł":{"ha":644,"x_min":14,"x_max":633,"o":"m 322 -18 q 176 3 228 -18 q 106 61 125 24 q 86 150 86 99 q 90 206 86 175 q 100 278 94 238 l 108 331 q 69 308 85 317 q 43 300 54 300 q 19 318 25 300 q 14 350 14 336 q 36 393 14 379 q 121 446 60 410 q 125 549 125 500 q 119 681 125 626 q 82 786 113 736 q 72 803 76 794 q 68 818 68 813 q 88 853 68 835 q 135 883 107 871 q 188 896 163 896 q 247 858 235 896 q 258 751 258 821 q 253 667 258 725 q 236 521 247 610 q 282 553 258 538 q 325 583 306 569 q 352 597 340 592 q 374 601 364 601 q 401 584 393 601 q 408 549 408 567 q 403 522 408 533 q 383 501 399 510 q 317 461 365 489 q 222 406 268 433 q 214 272 214 321 q 227 188 214 217 q 271 149 240 160 q 357 138 301 138 q 471 148 417 138 q 576 181 525 158 q 589 185 583 183 q 599 186 594 186 q 622 171 611 186 q 633 128 633 156 q 567 32 633 67 q 322 -18 478 -18 z "},"M":{"ha":1197,"x_min":61,"x_max":1147,"o":"m 107 -14 q 71 1 81 -14 q 61 35 61 17 q 78 232 61 121 q 121 453 96 343 q 170 626 143 546 q 218 758 197 707 q 288 869 249 831 q 381 907 328 907 q 450 881 419 907 q 486 789 481 856 q 506 626 494 708 q 531 477 517 544 q 560 374 544 410 q 596 342 572 342 q 642 375 622 342 q 681 458 660 406 q 722 570 701 511 q 757 678 742 629 q 798 784 775 731 q 857 873 821 838 q 947 908 893 908 q 1019 874 997 908 q 1040 767 1040 840 q 1036 647 1040 710 q 1033 573 1035 611 q 1031 494 1031 535 q 1037 363 1031 432 q 1062 232 1043 293 q 1118 129 1081 171 q 1138 107 1129 119 q 1147 79 1147 94 q 1110 16 1147 44 q 1026 -12 1074 -12 q 963 15 983 -12 q 929 90 942 43 q 910 215 915 149 q 904 344 904 282 q 912 528 904 444 q 919 653 919 613 q 915 685 919 675 q 894 696 911 696 q 862 678 875 696 q 840 631 849 661 q 800 506 822 572 q 753 375 778 439 q 701 261 729 311 q 633 183 669 203 q 558 163 596 163 q 470 199 500 163 q 426 281 440 236 q 393 437 408 340 q 371 654 378 533 q 338 706 368 706 q 285 656 304 706 q 253 538 268 606 q 228 398 238 471 q 219 254 219 325 q 224 150 219 194 q 229 67 229 106 q 208 21 229 39 q 157 -6 186 3 q 107 -14 128 -14 z "},"Ṁ":{"ha":1197,"x_min":61,"x_max":1147,"o":"m 650 965 q 586 988 610 965 q 563 1050 563 1010 q 590 1120 563 1093 q 661 1147 618 1147 q 724 1125 701 1147 q 747 1063 747 1103 q 721 993 747 1021 q 650 965 694 965 m 107 -14 q 71 1 81 -14 q 61 35 61 17 q 78 232 61 121 q 121 453 96 343 q 170 626 143 546 q 218 758 197 707 q 288 869 249 831 q 381 907 328 907 q 450 881 419 907 q 486 789 481 856 q 506 626 494 708 q 531 477 517 544 q 560 374 544 410 q 596 342 572 342 q 642 375 622 342 q 681 458 660 406 q 722 570 701 511 q 757 678 742 629 q 798 784 775 731 q 857 873 821 838 q 947 908 893 908 q 1019 874 997 908 q 1040 767 1040 840 q 1036 647 1040 710 q 1033 573 1035 611 q 1031 494 1031 535 q 1037 363 1031 432 q 1062 232 1043 293 q 1118 129 1081 171 q 1138 107 1129 119 q 1147 79 1147 94 q 1110 16 1147 44 q 1026 -12 1074 -12 q 963 15 983 -12 q 929 90 942 43 q 910 215 915 149 q 904 344 904 282 q 912 528 904 444 q 919 653 919 613 q 915 685 919 675 q 894 696 911 696 q 862 678 875 696 q 840 631 849 661 q 800 506 822 572 q 753 375 778 439 q 701 261 729 311 q 633 183 669 203 q 558 163 596 163 q 470 199 500 163 q 426 281 440 236 q 393 437 408 340 q 371 654 378 533 q 338 706 368 706 q 285 656 304 706 q 253 538 268 606 q 228 398 238 471 q 219 254 219 325 q 224 150 219 194 q 229 67 229 106 q 208 21 229 39 q 157 -6 186 3 q 107 -14 128 -14 z "},"Ṃ":{"ha":1197,"x_min":61,"x_max":1147,"o":"m 107 -14 q 71 1 81 -14 q 61 35 61 17 q 78 232 61 121 q 121 453 96 343 q 170 626 143 546 q 218 758 197 707 q 288 869 249 831 q 381 907 328 907 q 450 881 419 907 q 486 789 481 856 q 506 626 494 708 q 531 477 517 544 q 560 374 544 410 q 596 342 572 342 q 642 375 622 342 q 681 458 660 406 q 722 570 701 511 q 757 678 742 629 q 798 784 775 731 q 857 873 821 838 q 947 908 893 908 q 1019 874 997 908 q 1040 767 1040 840 q 1036 647 1040 710 q 1033 573 1035 611 q 1031 494 1031 535 q 1037 363 1031 432 q 1062 232 1043 293 q 1118 129 1081 171 q 1138 107 1129 119 q 1147 79 1147 94 q 1110 16 1147 44 q 1026 -12 1074 -12 q 963 15 983 -12 q 929 90 942 43 q 910 215 915 149 q 904 344 904 282 q 912 528 904 444 q 919 653 919 613 q 915 685 919 675 q 894 696 911 696 q 862 678 875 696 q 840 631 849 661 q 800 506 822 572 q 753 375 778 439 q 701 261 729 311 q 633 183 669 203 q 558 163 596 163 q 470 199 500 163 q 426 281 440 236 q 393 437 408 340 q 371 654 378 533 q 338 706 368 706 q 285 656 304 706 q 253 538 268 606 q 228 398 238 471 q 219 254 219 325 q 224 150 219 194 q 229 67 229 106 q 208 21 229 39 q 157 -6 186 3 q 107 -14 128 -14 m 567 -221 q 504 -199 528 -221 q 481 -137 481 -176 q 508 -67 481 -94 q 579 -40 535 -40 q 642 -62 619 -40 q 664 -124 664 -83 q 638 -194 664 -167 q 567 -221 611 -221 z "},"N":{"ha":900,"x_min":64,"x_max":840,"o":"m 138 -14 q 85 2 107 -14 q 64 78 64 18 q 70 152 64 108 q 83 243 76 196 q 106 390 94 310 q 117 549 117 469 q 111 676 117 632 q 99 749 106 721 q 94 776 96 764 q 92 804 92 789 q 120 872 92 849 q 183 894 149 894 q 242 877 218 894 q 283 840 265 860 q 499 558 403 706 q 658 254 594 410 q 671 243 665 243 q 682 254 679 243 q 707 549 707 417 q 701 674 707 628 q 685 747 694 721 q 668 788 676 772 q 661 805 664 797 q 658 819 658 813 q 676 853 658 836 q 718 882 693 871 q 767 893 743 893 q 815 871 800 893 q 835 816 831 849 q 840 750 840 783 q 833 653 840 713 q 817 524 826 593 q 802 389 808 456 q 796 271 796 322 q 798 214 796 242 q 803 160 800 186 q 807 99 807 125 q 781 17 807 47 q 711 -12 756 -12 q 651 6 681 -12 q 606 64 621 24 q 459 362 546 217 q 278 613 372 507 q 253 626 263 626 q 235 596 239 626 q 221 481 228 543 q 210 359 214 418 q 206 258 206 300 q 214 177 206 211 q 239 111 222 143 q 254 61 254 83 q 224 10 254 35 q 138 -14 193 -14 z "},"Ń":{"ha":900,"x_min":64,"x_max":840,"o":"m 444 964 q 413 994 413 964 q 422 1025 413 1011 q 481 1116 450 1071 q 546 1193 513 1161 q 610 1225 576 1225 q 656 1204 632 1225 q 681 1154 681 1183 q 651 1096 681 1125 q 569 1031 617 1061 q 471 972 521 1000 q 444 964 457 964 m 138 -14 q 85 2 107 -14 q 64 78 64 18 q 70 152 64 108 q 83 243 76 196 q 106 390 94 310 q 117 549 117 469 q 111 676 117 632 q 99 749 106 721 q 94 776 96 764 q 92 804 92 789 q 120 872 92 849 q 183 894 149 894 q 242 877 218 894 q 283 840 265 860 q 499 558 403 706 q 658 254 594 410 q 671 243 665 243 q 682 254 679 243 q 707 549 707 417 q 701 674 707 628 q 685 747 694 721 q 668 788 676 772 q 661 805 664 797 q 658 819 658 813 q 676 853 658 836 q 718 882 693 871 q 767 893 743 893 q 815 871 800 893 q 835 816 831 849 q 840 750 840 783 q 833 653 840 713 q 817 524 826 593 q 802 389 808 456 q 796 271 796 322 q 798 214 796 242 q 803 160 800 186 q 807 99 807 125 q 781 17 807 47 q 711 -12 756 -12 q 651 6 681 -12 q 606 64 621 24 q 459 362 546 217 q 278 613 372 507 q 253 626 263 626 q 235 596 239 626 q 221 481 228 543 q 210 359 214 418 q 206 258 206 300 q 214 177 206 211 q 239 111 222 143 q 254 61 254 83 q 224 10 254 35 q 138 -14 193 -14 z "},"Ň":{"ha":900,"x_min":64,"x_max":840,"o":"m 467 964 q 433 974 449 964 q 406 993 417 983 q 368 1034 392 1007 q 322 1093 344 1061 q 285 1151 299 1125 q 277 1172 279 1163 q 275 1188 275 1182 q 285 1213 275 1203 q 310 1222 296 1222 q 336 1215 322 1222 q 374 1188 350 1207 q 426 1146 399 1168 q 475 1106 454 1124 q 561 1170 515 1138 q 628 1215 607 1203 q 656 1224 647 1224 q 676 1215 668 1224 q 685 1192 685 1206 q 682 1172 685 1183 q 671 1150 679 1161 q 629 1093 657 1125 q 574 1034 601 1061 q 532 993 547 1007 q 467 964 497 964 m 138 -14 q 85 2 107 -14 q 64 78 64 18 q 70 152 64 108 q 83 243 76 196 q 106 390 94 310 q 117 549 117 469 q 111 676 117 632 q 99 749 106 721 q 94 776 96 764 q 92 804 92 789 q 120 872 92 849 q 183 894 149 894 q 242 877 218 894 q 283 840 265 860 q 499 558 403 706 q 658 254 594 410 q 671 243 665 243 q 682 254 679 243 q 707 549 707 417 q 701 674 707 628 q 685 747 694 721 q 668 788 676 772 q 661 805 664 797 q 658 819 658 813 q 676 853 658 836 q 718 882 693 871 q 767 893 743 893 q 815 871 800 893 q 835 816 831 849 q 840 750 840 783 q 833 653 840 713 q 817 524 826 593 q 802 389 808 456 q 796 271 796 322 q 798 214 796 242 q 803 160 800 186 q 807 99 807 125 q 781 17 807 47 q 711 -12 756 -12 q 651 6 681 -12 q 606 64 621 24 q 459 362 546 217 q 278 613 372 507 q 253 626 263 626 q 235 596 239 626 q 221 481 228 543 q 210 359 214 418 q 206 258 206 300 q 214 177 206 211 q 239 111 222 143 q 254 61 254 83 q 224 10 254 35 q 138 -14 193 -14 z "},"Ņ":{"ha":900,"x_min":64,"x_max":840,"o":"m 138 -14 q 85 2 107 -14 q 64 78 64 18 q 70 152 64 108 q 83 243 76 196 q 106 390 94 310 q 117 549 117 469 q 111 676 117 632 q 99 749 106 721 q 94 776 96 764 q 92 804 92 789 q 120 872 92 849 q 183 894 149 894 q 242 877 218 894 q 283 840 265 860 q 499 558 403 706 q 658 254 594 410 q 671 243 665 243 q 682 254 679 243 q 707 549 707 417 q 701 674 707 628 q 685 747 694 721 q 668 788 676 772 q 661 805 664 797 q 658 819 658 813 q 676 853 658 836 q 718 882 693 871 q 767 893 743 893 q 815 871 800 893 q 835 816 831 849 q 840 750 840 783 q 833 653 840 713 q 817 524 826 593 q 802 389 808 456 q 796 271 796 322 q 798 214 796 242 q 803 160 800 186 q 807 99 807 125 q 781 17 807 47 q 711 -12 756 -12 q 651 6 681 -12 q 606 64 621 24 q 459 362 546 217 q 278 613 372 507 q 253 626 263 626 q 235 596 239 626 q 221 481 228 543 q 210 359 214 418 q 206 258 206 300 q 214 177 206 211 q 239 111 222 143 q 254 61 254 83 q 224 10 254 35 q 138 -14 193 -14 m 350 -446 q 318 -419 318 -446 q 350 -376 318 -400 q 392 -326 375 -354 q 410 -268 410 -299 q 404 -254 410 -260 q 383 -240 399 -249 q 356 -210 364 -229 q 347 -174 347 -192 q 372 -112 347 -139 q 443 -85 397 -85 q 508 -110 482 -85 q 535 -190 535 -135 q 497 -322 535 -262 q 417 -417 460 -381 q 379 -440 396 -435 q 350 -446 363 -446 z "},"Ṅ":{"ha":900,"x_min":64,"x_max":840,"o":"m 458 982 q 396 1004 419 982 q 372 1065 372 1026 q 400 1135 372 1108 q 471 1163 428 1163 q 533 1141 511 1163 q 556 1079 556 1119 q 529 1009 556 1036 q 458 982 503 982 m 138 -14 q 85 2 107 -14 q 64 78 64 18 q 70 152 64 108 q 83 243 76 196 q 106 390 94 310 q 117 549 117 469 q 111 676 117 632 q 99 749 106 721 q 94 776 96 764 q 92 804 92 789 q 120 872 92 849 q 183 894 149 894 q 242 877 218 894 q 283 840 265 860 q 499 558 403 706 q 658 254 594 410 q 671 243 665 243 q 682 254 679 243 q 707 549 707 417 q 701 674 707 628 q 685 747 694 721 q 668 788 676 772 q 661 805 664 797 q 658 819 658 813 q 676 853 658 836 q 718 882 693 871 q 767 893 743 893 q 815 871 800 893 q 835 816 831 849 q 840 750 840 783 q 833 653 840 713 q 817 524 826 593 q 802 389 808 456 q 796 271 796 322 q 798 214 796 242 q 803 160 800 186 q 807 99 807 125 q 781 17 807 47 q 711 -12 756 -12 q 651 6 681 -12 q 606 64 621 24 q 459 362 546 217 q 278 613 372 507 q 253 626 263 626 q 235 596 239 626 q 221 481 228 543 q 210 359 214 418 q 206 258 206 300 q 214 177 206 211 q 239 111 222 143 q 254 61 254 83 q 224 10 254 35 q 138 -14 193 -14 z "},"Ṇ":{"ha":900,"x_min":64,"x_max":840,"o":"m 138 -14 q 85 2 107 -14 q 64 78 64 18 q 70 152 64 108 q 83 243 76 196 q 106 390 94 310 q 117 549 117 469 q 111 676 117 632 q 99 749 106 721 q 94 776 96 764 q 92 804 92 789 q 120 872 92 849 q 183 894 149 894 q 242 877 218 894 q 283 840 265 860 q 499 558 403 706 q 658 254 594 410 q 671 243 665 243 q 682 254 679 243 q 707 549 707 417 q 701 674 707 628 q 685 747 694 721 q 668 788 676 772 q 661 805 664 797 q 658 819 658 813 q 676 853 658 836 q 718 882 693 871 q 767 893 743 893 q 815 871 800 893 q 835 816 831 849 q 840 750 840 783 q 833 653 840 713 q 817 524 826 593 q 802 389 808 456 q 796 271 796 322 q 798 214 796 242 q 803 160 800 186 q 807 99 807 125 q 781 17 807 47 q 711 -12 756 -12 q 651 6 681 -12 q 606 64 621 24 q 459 362 546 217 q 278 613 372 507 q 253 626 263 626 q 235 596 239 626 q 221 481 228 543 q 210 359 214 418 q 206 258 206 300 q 214 177 206 211 q 239 111 222 143 q 254 61 254 83 q 224 10 254 35 q 138 -14 193 -14 m 431 -244 q 368 -222 392 -244 q 344 -160 344 -200 q 372 -90 344 -117 q 443 -62 399 -62 q 506 -85 483 -62 q 528 -147 528 -107 q 501 -217 528 -189 q 431 -244 475 -244 z "},"Ñ":{"ha":900,"x_min":64,"x_max":840,"o":"m 286 994 q 256 1015 267 994 q 244 1060 244 1035 q 278 1139 244 1103 q 372 1175 311 1175 q 481 1147 422 1175 q 526 1126 503 1136 q 571 1117 550 1117 q 602 1128 593 1117 q 615 1154 611 1140 q 623 1174 618 1165 q 639 1182 628 1182 q 670 1162 657 1182 q 683 1114 683 1142 q 647 1032 683 1069 q 554 994 611 994 q 503 1002 529 994 q 450 1022 476 1010 q 400 1047 424 1038 q 357 1056 376 1056 q 326 1044 335 1056 q 314 1021 317 1033 q 306 1003 311 1011 q 286 994 300 994 m 138 -14 q 85 2 107 -14 q 64 78 64 18 q 70 152 64 108 q 83 243 76 196 q 106 390 94 310 q 117 549 117 469 q 111 676 117 632 q 99 749 106 721 q 94 776 96 764 q 92 804 92 789 q 120 872 92 849 q 183 894 149 894 q 242 877 218 894 q 283 840 265 860 q 499 558 403 706 q 658 254 594 410 q 671 243 665 243 q 682 254 679 243 q 707 549 707 417 q 701 674 707 628 q 685 747 694 721 q 668 788 676 772 q 661 805 664 797 q 658 819 658 813 q 676 853 658 836 q 718 882 693 871 q 767 893 743 893 q 815 871 800 893 q 835 816 831 849 q 840 750 840 783 q 833 653 840 713 q 817 524 826 593 q 802 389 808 456 q 796 271 796 322 q 798 214 796 242 q 803 160 800 186 q 807 99 807 125 q 781 17 807 47 q 711 -12 756 -12 q 651 6 681 -12 q 606 64 621 24 q 459 362 546 217 q 278 613 372 507 q 253 626 263 626 q 235 596 239 626 q 221 481 228 543 q 210 359 214 418 q 206 258 206 300 q 214 177 206 211 q 239 111 222 143 q 254 61 254 83 q 224 10 254 35 q 138 -14 193 -14 z "},"O":{"ha":883,"x_min":65,"x_max":828,"o":"m 382 -18 q 153 66 239 -18 q 68 314 68 150 q 88 467 68 388 q 156 624 108 546 q 106 600 129 600 q 65 664 65 600 q 85 738 65 710 q 122 782 104 765 q 200 835 153 808 q 311 881 247 863 q 454 899 375 899 q 734 794 640 899 q 828 503 828 689 q 796 299 828 393 q 705 133 764 204 q 564 22 646 63 q 382 -18 482 -18 m 431 138 q 567 169 500 138 q 678 272 635 201 q 722 454 722 342 q 682 623 722 560 q 580 715 642 686 q 450 743 518 743 q 358 730 399 743 q 285 701 317 717 q 217 566 249 646 q 185 397 185 486 q 219 251 185 308 q 310 165 254 193 q 431 138 367 138 z "},"Œ":{"ha":1325,"x_min":65,"x_max":1278,"o":"m 382 -18 q 153 66 239 -18 q 68 314 68 150 q 88 467 68 388 q 156 624 108 546 q 106 600 129 600 q 65 664 65 600 q 85 738 65 710 q 122 782 104 765 q 200 835 153 808 q 311 881 247 863 q 454 899 375 899 q 629 867 556 899 q 750 776 703 835 q 772 842 753 815 q 842 876 790 869 q 1089 893 990 893 q 1242 888 1215 893 q 1278 849 1278 882 q 1249 772 1278 810 q 1216 742 1232 750 q 1175 735 1200 733 q 1102 739 1143 738 q 1010 740 1061 740 q 868 736 933 740 l 868 700 q 864 619 868 665 q 853 515 860 572 q 981 520 907 518 q 1150 522 1056 522 q 1180 516 1171 522 q 1189 490 1189 510 q 1177 440 1189 467 q 1147 394 1165 413 q 1108 376 1128 376 q 1006 381 1061 379 q 888 382 951 382 l 833 382 q 825 322 828 349 q 822 275 822 296 q 861 168 822 199 q 989 138 900 138 q 1063 142 1032 138 q 1124 156 1094 146 q 1189 181 1153 165 q 1226 194 1222 194 q 1257 173 1243 194 q 1271 126 1271 151 q 1248 69 1271 96 q 1188 22 1225 42 q 1085 -8 1144 3 q 961 -18 1026 -18 q 782 14 844 -18 q 707 135 719 46 q 565 23 647 64 q 382 -18 483 -18 m 431 138 q 567 169 500 138 q 678 272 635 201 q 722 454 722 342 q 682 623 722 560 q 580 715 642 686 q 450 743 518 743 q 358 730 399 743 q 285 701 317 717 q 217 566 249 646 q 185 397 185 486 q 219 251 185 308 q 310 165 254 193 q 431 138 367 138 z "},"Ó":{"ha":883,"x_min":65,"x_max":828,"o":"m 457 964 q 434 972 443 964 q 425 994 425 981 q 436 1025 425 1011 q 495 1116 464 1071 q 558 1193 526 1161 q 622 1225 590 1225 q 669 1204 644 1225 q 693 1154 693 1183 q 665 1096 693 1126 q 581 1031 629 1061 q 483 972 533 1000 q 457 964 471 964 m 382 -18 q 153 66 239 -18 q 68 314 68 150 q 88 467 68 388 q 156 624 108 546 q 106 600 129 600 q 65 664 65 600 q 85 738 65 710 q 122 782 104 765 q 200 835 153 808 q 311 881 247 863 q 454 899 375 899 q 734 794 640 899 q 828 503 828 689 q 796 299 828 393 q 705 133 764 204 q 564 22 646 63 q 382 -18 482 -18 m 431 138 q 567 169 500 138 q 678 272 635 201 q 722 454 722 342 q 682 623 722 560 q 580 715 642 686 q 450 743 518 743 q 358 730 399 743 q 285 701 317 717 q 217 566 249 646 q 185 397 185 486 q 219 251 185 308 q 310 165 254 193 q 431 138 367 138 z "},"Ô":{"ha":883,"x_min":65,"x_max":828,"o":"m 304 971 q 283 980 292 971 q 275 1003 275 989 q 289 1046 275 1022 q 331 1102 304 1071 q 386 1161 358 1133 q 428 1201 414 1189 q 493 1231 464 1231 q 528 1222 511 1231 q 554 1201 544 1213 q 593 1160 569 1188 q 640 1102 617 1133 q 675 1043 663 1071 q 683 1024 682 1033 q 685 1007 685 1014 q 675 983 685 993 q 650 972 665 972 q 639 974 646 972 q 624 981 632 975 q 586 1006 611 988 q 533 1048 561 1025 q 485 1089 506 1071 q 428 1047 458 1069 q 372 1007 397 1025 q 332 981 346 989 q 304 971 314 971 m 382 -18 q 153 66 239 -18 q 68 314 68 150 q 88 467 68 388 q 156 624 108 546 q 106 600 129 600 q 65 664 65 600 q 85 738 65 710 q 122 782 104 765 q 200 835 153 808 q 311 881 247 863 q 454 899 375 899 q 734 794 640 899 q 828 503 828 689 q 796 299 828 393 q 705 133 764 204 q 564 22 646 63 q 382 -18 482 -18 m 431 138 q 567 169 500 138 q 678 272 635 201 q 722 454 722 342 q 682 623 722 560 q 580 715 642 686 q 450 743 518 743 q 358 730 399 743 q 285 701 317 717 q 217 566 249 646 q 185 397 185 486 q 219 251 185 308 q 310 165 254 193 q 431 138 367 138 z "},"Ö":{"ha":883,"x_min":65,"x_max":828,"o":"m 335 1000 q 276 1021 297 1000 q 254 1081 254 1042 q 280 1147 254 1121 q 346 1172 306 1172 q 403 1151 382 1172 q 424 1092 424 1131 q 399 1026 424 1053 q 335 1000 375 1000 m 611 1000 q 552 1021 574 1000 q 531 1081 531 1042 q 556 1147 531 1121 q 621 1172 582 1172 q 700 1092 700 1172 q 676 1026 700 1053 q 611 1000 651 1000 m 382 -18 q 153 66 239 -18 q 68 314 68 150 q 88 467 68 388 q 156 624 108 546 q 106 600 129 600 q 65 664 65 600 q 85 738 65 710 q 122 782 104 765 q 200 835 153 808 q 311 881 247 863 q 454 899 375 899 q 734 794 640 899 q 828 503 828 689 q 796 299 828 393 q 705 133 764 204 q 564 22 646 63 q 382 -18 482 -18 m 431 138 q 567 169 500 138 q 678 272 635 201 q 722 454 722 342 q 682 623 722 560 q 580 715 642 686 q 450 743 518 743 q 358 730 399 743 q 285 701 317 717 q 217 566 249 646 q 185 397 185 486 q 219 251 185 308 q 310 165 254 193 q 431 138 367 138 z "},"Ò":{"ha":883,"x_min":65,"x_max":828,"o":"m 503 964 q 476 972 489 964 q 379 1031 426 1000 q 296 1096 332 1061 q 267 1154 267 1125 q 291 1204 267 1183 q 338 1225 315 1225 q 369 1217 353 1225 q 401 1193 386 1210 q 465 1116 435 1161 q 525 1025 496 1071 q 535 994 535 1011 q 526 972 535 981 q 503 964 517 964 m 382 -18 q 153 66 239 -18 q 68 314 68 150 q 88 467 68 388 q 156 624 108 546 q 106 600 129 600 q 65 664 65 600 q 85 738 65 710 q 122 782 104 765 q 200 835 153 808 q 311 881 247 863 q 454 899 375 899 q 734 794 640 899 q 828 503 828 689 q 796 299 828 393 q 705 133 764 204 q 564 22 646 63 q 382 -18 482 -18 m 431 138 q 567 169 500 138 q 678 272 635 201 q 722 454 722 342 q 682 623 722 560 q 580 715 642 686 q 450 743 518 743 q 358 730 399 743 q 285 701 317 717 q 217 566 249 646 q 185 397 185 486 q 219 251 185 308 q 310 165 254 193 q 431 138 367 138 z "},"Ω":{"ha":1006,"x_min":40,"x_max":967,"o":"m 275 -14 q 162 -7 215 -14 q 74 21 108 0 q 40 85 40 42 q 52 147 40 121 q 79 172 64 172 q 99 164 86 172 q 149 142 114 154 q 268 124 183 131 q 143 288 193 197 q 94 483 93 378 q 128 647 96 569 q 220 785 161 725 q 359 878 279 844 q 532 913 439 913 q 737 858 650 913 q 871 712 824 803 q 917 511 918 621 q 890 364 917 438 q 823 228 864 290 q 736 124 782 167 q 857 142 822 131 q 908 164 892 154 q 928 172 921 172 q 955 147 943 172 q 967 85 967 121 q 933 21 967 42 q 844 -7 899 0 q 729 -14 790 -14 q 651 -8 690 -14 q 594 19 611 -1 q 579 75 579 39 q 610 126 579 101 q 740 278 688 188 q 793 467 793 368 q 760 615 794 549 q 664 719 726 681 q 515 758 601 758 q 362 717 428 758 q 258 608 296 676 q 219 457 221 540 q 274 271 219 353 q 404 126 328 189 q 433 75 433 101 q 428 44 433 60 q 417 19 424 29 q 360 -8 400 -1 q 275 -14 319 -14 z "},"Ő":{"ha":883,"x_min":65,"x_max":828,"o":"m 319 965 q 292 992 294 965 q 300 1021 292 1008 q 353 1116 324 1069 q 413 1197 382 1163 q 472 1238 442 1238 q 515 1222 492 1238 q 539 1182 539 1206 q 534 1152 539 1169 q 517 1118 529 1135 q 438 1044 482 1079 q 349 976 394 1008 q 319 965 331 965 m 536 972 q 510 1000 510 972 q 513 1015 510 1007 q 519 1029 517 1022 q 581 1118 549 1074 q 646 1194 613 1163 q 710 1228 679 1228 q 751 1210 729 1228 q 772 1168 772 1193 q 765 1139 772 1156 q 743 1107 758 1122 q 660 1040 707 1072 q 564 981 613 1008 q 549 974 556 975 q 536 972 543 972 m 382 -18 q 153 66 239 -18 q 68 314 68 150 q 88 467 68 388 q 156 624 108 546 q 106 600 129 600 q 65 664 65 600 q 85 738 65 710 q 122 782 104 765 q 200 835 153 808 q 311 881 247 863 q 454 899 375 899 q 734 794 640 899 q 828 503 828 689 q 796 299 828 393 q 705 133 764 204 q 564 22 646 63 q 382 -18 482 -18 m 431 138 q 567 169 500 138 q 678 272 635 201 q 722 454 722 342 q 682 623 722 560 q 580 715 642 686 q 450 743 518 743 q 358 730 399 743 q 285 701 317 717 q 217 566 249 646 q 185 397 185 486 q 219 251 185 308 q 310 165 254 193 q 431 138 367 138 z "},"Ō":{"ha":883,"x_min":65,"x_max":828,"o":"m 308 1017 q 279 1065 279 1017 q 285 1103 279 1085 q 310 1128 290 1121 q 359 1135 322 1132 q 444 1141 396 1139 q 537 1144 492 1143 q 611 1146 582 1146 q 659 1138 642 1146 q 676 1103 676 1131 q 667 1046 676 1075 q 638 1017 657 1017 q 563 1019 608 1017 q 469 1021 518 1022 q 383 1019 431 1021 q 308 1017 335 1017 m 382 -18 q 153 66 239 -18 q 68 314 68 150 q 88 467 68 388 q 156 624 108 546 q 106 600 129 600 q 65 664 65 600 q 85 738 65 710 q 122 782 104 765 q 200 835 153 808 q 311 881 247 863 q 454 899 375 899 q 734 794 640 899 q 828 503 828 689 q 796 299 828 393 q 705 133 764 204 q 564 22 646 63 q 382 -18 482 -18 m 431 138 q 567 169 500 138 q 678 272 635 201 q 722 454 722 342 q 682 623 722 560 q 580 715 642 686 q 450 743 518 743 q 358 730 399 743 q 285 701 317 717 q 217 566 249 646 q 185 397 185 486 q 219 251 185 308 q 310 165 254 193 q 431 138 367 138 z "},"Ø":{"ha":883,"x_min":65,"x_max":828,"o":"m 169 -94 q 118 -77 142 -94 q 94 -36 94 -60 q 112 16 94 -15 q 147 72 129 47 q 68 314 68 158 q 156 624 68 478 q 106 600 129 600 q 65 664 65 600 q 81 732 65 704 q 122 782 97 760 q 262 865 178 831 q 454 899 346 899 q 555 889 507 899 q 646 860 603 879 q 674 940 661 917 q 726 963 688 963 q 774 951 754 963 q 794 915 794 939 q 782 867 794 896 q 765 832 775 853 q 740 786 754 811 q 828 503 828 685 q 772 239 828 358 q 614 50 715 119 q 382 -18 513 -18 q 309 -12 343 -18 q 246 6 275 -7 q 228 -45 236 -25 q 215 -75 219 -65 q 169 -94 203 -94 m 244 217 q 340 363 285 278 q 456 542 396 449 q 568 721 515 636 q 450 743 515 743 q 285 701 367 743 q 213 558 242 638 q 185 397 185 479 q 244 217 185 288 m 431 138 q 572 171 506 138 q 682 276 639 204 q 713 357 703 313 q 722 454 722 401 q 657 657 722 586 q 499 421 581 547 q 332 154 417 294 q 431 138 376 138 z "},"Õ":{"ha":883,"x_min":65,"x_max":828,"o":"m 300 994 q 269 1015 281 994 q 257 1060 257 1035 q 291 1139 257 1103 q 385 1175 325 1175 q 493 1147 435 1175 q 539 1126 515 1136 q 583 1117 563 1117 q 615 1128 607 1117 q 628 1154 624 1140 q 636 1174 631 1165 q 651 1182 642 1182 q 684 1162 671 1182 q 697 1114 697 1142 q 661 1032 697 1069 q 568 994 625 994 q 517 1002 543 994 q 464 1022 490 1010 q 414 1047 438 1038 q 371 1056 390 1056 q 340 1044 349 1056 q 326 1021 331 1033 q 318 1003 324 1011 q 300 994 313 994 m 382 -18 q 153 66 239 -18 q 68 314 68 150 q 88 467 68 388 q 156 624 108 546 q 106 600 129 600 q 65 664 65 600 q 85 738 65 710 q 122 782 104 765 q 200 835 153 808 q 311 881 247 863 q 454 899 375 899 q 734 794 640 899 q 828 503 828 689 q 796 299 828 393 q 705 133 764 204 q 564 22 646 63 q 382 -18 482 -18 m 431 138 q 567 169 500 138 q 678 272 635 201 q 722 454 722 342 q 682 623 722 560 q 580 715 642 686 q 450 743 518 743 q 358 730 399 743 q 285 701 317 717 q 217 566 249 646 q 185 397 185 486 q 219 251 185 308 q 310 165 254 193 q 431 138 367 138 z "},"P":{"ha":718,"x_min":60,"x_max":693,"o":"m 156 -14 q 122 -8 139 -14 q 93 18 104 -3 q 82 82 82 39 q 88 170 82 117 q 104 285 94 224 q 120 417 114 347 q 126 557 126 486 q 125 617 126 585 q 119 679 124 649 q 101 670 110 674 q 83 667 92 667 q 60 713 60 667 q 78 783 60 754 q 147 838 97 811 q 262 881 196 864 q 396 899 328 899 q 612 828 531 899 q 693 639 693 757 q 664 506 693 567 q 587 399 635 444 q 483 330 539 354 q 372 306 426 306 q 303 328 321 306 q 285 394 285 351 q 290 433 285 415 q 311 450 294 450 q 324 449 315 450 q 340 444 332 447 q 364 440 349 443 q 399 438 379 438 q 523 481 475 438 q 571 592 571 524 q 518 703 571 663 q 382 743 465 743 q 319 738 351 743 q 256 725 288 733 q 236 517 251 633 q 222 380 228 447 q 215 257 215 313 q 224 172 215 208 q 261 108 233 135 q 281 67 281 89 q 246 11 281 36 q 156 -14 211 -14 z "},"Q":{"ha":876,"x_min":60,"x_max":1004,"o":"m 849 -244 q 698 -208 768 -244 q 572 -116 628 -171 q 472 -7 515 -61 q 422 -15 447 -12 q 371 -18 396 -18 q 213 17 282 -18 q 103 114 143 51 q 61 258 64 176 q 138 451 60 369 q 260 521 203 521 q 304 501 289 521 q 338 440 319 481 q 416 298 371 369 q 517 156 461 226 q 658 268 603 188 q 711 461 714 349 q 671 618 710 556 q 570 712 632 681 q 436 743 508 743 q 302 713 360 743 q 204 642 244 683 q 140 567 164 601 q 125 556 135 558 q 108 553 115 553 q 80 569 88 553 q 72 611 72 586 q 98 709 71 658 q 176 803 125 760 q 296 872 226 846 q 450 899 365 899 q 717 792 621 899 q 815 500 813 685 q 758 229 818 346 q 594 47 697 113 q 678 -20 631 11 q 778 -69 725 -51 q 881 -87 831 -87 q 947 -79 918 -87 q 981 -71 975 -71 q 998 -91 992 -71 q 1004 -131 1004 -111 q 958 -217 1004 -190 q 849 -244 911 -244 m 382 139 q 304 256 333 200 q 247 376 275 311 q 225 393 238 393 q 188 367 206 393 q 171 303 169 340 q 231 193 172 239 q 382 139 290 147 z "},"R":{"ha":775,"x_min":60,"x_max":750,"o":"m 156 -14 q 122 -8 139 -14 q 93 18 104 -3 q 82 82 82 39 q 87 153 82 110 q 97 239 92 197 q 117 392 108 308 q 126 557 126 475 q 125 618 126 586 q 119 679 124 650 q 101 672 111 675 q 83 668 90 668 q 65 683 69 668 q 60 717 60 697 q 81 788 60 761 q 146 838 103 815 q 267 884 203 869 q 390 899 332 899 q 543 868 476 899 q 647 782 610 838 q 685 649 685 726 q 647 506 685 568 q 549 403 608 443 q 429 351 490 364 q 477 282 451 317 q 529 219 503 247 q 690 138 608 138 q 729 140 713 138 q 744 134 738 142 q 750 104 750 126 q 739 51 750 78 q 701 6 728 24 q 629 -12 675 -12 q 526 24 575 -12 q 435 116 476 60 q 360 235 393 172 q 306 350 328 297 q 296 380 300 365 q 292 408 292 394 q 307 447 292 432 q 338 463 318 458 q 397 467 358 467 q 517 507 471 467 q 563 611 563 547 q 510 713 563 681 q 383 744 458 744 q 256 725 322 744 q 236 518 251 635 q 222 381 228 449 q 215 257 215 313 q 224 172 215 208 q 261 108 233 135 q 281 67 281 89 q 246 11 281 36 q 156 -14 211 -14 z "},"Ŕ":{"ha":775,"x_min":60,"x_max":750,"o":"m 365 964 q 342 972 351 964 q 333 994 333 981 q 344 1025 333 1011 q 403 1116 372 1071 q 467 1193 433 1161 q 499 1217 482 1210 q 531 1225 517 1225 q 577 1204 553 1225 q 601 1154 601 1183 q 574 1096 601 1126 q 490 1031 538 1061 q 392 972 442 1000 q 365 964 379 964 m 156 -14 q 122 -8 139 -14 q 93 18 104 -3 q 82 82 82 39 q 87 153 82 110 q 97 239 92 197 q 117 392 108 308 q 126 557 126 475 q 125 618 126 586 q 119 679 124 650 q 101 672 111 675 q 83 668 90 668 q 65 683 69 668 q 60 717 60 697 q 81 788 60 761 q 146 838 103 815 q 267 884 203 869 q 390 899 332 899 q 543 868 476 899 q 647 782 610 838 q 685 649 685 726 q 647 506 685 568 q 549 403 608 443 q 429 351 490 364 q 477 282 451 317 q 529 219 503 247 q 690 138 608 138 q 729 140 713 138 q 744 134 738 142 q 750 104 750 126 q 739 51 750 78 q 701 6 728 24 q 629 -12 675 -12 q 526 24 575 -12 q 435 116 476 60 q 360 235 393 172 q 306 350 328 297 q 296 380 300 365 q 292 408 292 394 q 307 447 292 432 q 338 463 318 458 q 397 467 358 467 q 517 507 471 467 q 563 611 563 547 q 510 713 563 681 q 383 744 458 744 q 256 725 322 744 q 236 518 251 635 q 222 381 228 449 q 215 257 215 313 q 224 172 215 208 q 261 108 233 135 q 281 67 281 89 q 246 11 281 36 q 156 -14 211 -14 z "},"Ř":{"ha":775,"x_min":60,"x_max":750,"o":"m 388 964 q 353 974 369 964 q 326 993 338 983 q 289 1034 313 1007 q 242 1093 265 1061 q 207 1151 219 1125 q 199 1172 201 1163 q 196 1188 196 1182 q 206 1213 196 1203 q 231 1222 217 1222 q 243 1221 236 1222 q 257 1215 250 1219 q 295 1188 271 1207 q 347 1146 319 1168 q 396 1106 375 1124 q 482 1170 436 1138 q 550 1215 528 1203 q 578 1224 567 1224 q 598 1215 589 1224 q 607 1192 607 1206 q 603 1172 607 1183 q 592 1150 600 1161 q 550 1093 578 1125 q 495 1034 522 1061 q 453 993 468 1007 q 388 964 418 964 m 156 -14 q 122 -8 139 -14 q 93 18 104 -3 q 82 82 82 39 q 87 153 82 110 q 97 239 92 197 q 117 392 108 308 q 126 557 126 475 q 125 618 126 586 q 119 679 124 650 q 101 672 111 675 q 83 668 90 668 q 65 683 69 668 q 60 717 60 697 q 81 788 60 761 q 146 838 103 815 q 267 884 203 869 q 390 899 332 899 q 543 868 476 899 q 647 782 610 838 q 685 649 685 726 q 647 506 685 568 q 549 403 608 443 q 429 351 490 364 q 477 282 451 317 q 529 219 503 247 q 690 138 608 138 q 729 140 713 138 q 744 134 738 142 q 750 104 750 126 q 739 51 750 78 q 701 6 728 24 q 629 -12 675 -12 q 526 24 575 -12 q 435 116 476 60 q 360 235 393 172 q 306 350 328 297 q 296 380 300 365 q 292 408 292 394 q 307 447 292 432 q 338 463 318 458 q 397 467 358 467 q 517 507 471 467 q 563 611 563 547 q 510 713 563 681 q 383 744 458 744 q 256 725 322 744 q 236 518 251 635 q 222 381 228 449 q 215 257 215 313 q 224 172 215 208 q 261 108 233 135 q 281 67 281 89 q 246 11 281 36 q 156 -14 211 -14 z "},"Ŗ":{"ha":775,"x_min":60,"x_max":750,"o":"m 156 -14 q 122 -8 139 -14 q 93 18 104 -3 q 82 82 82 39 q 87 153 82 110 q 97 239 92 197 q 117 392 108 308 q 126 557 126 475 q 125 618 126 586 q 119 679 124 650 q 101 672 111 675 q 83 668 90 668 q 65 683 69 668 q 60 717 60 697 q 81 788 60 761 q 146 838 103 815 q 267 884 203 869 q 390 899 332 899 q 543 868 476 899 q 647 782 610 838 q 685 649 685 726 q 647 506 685 568 q 549 403 608 443 q 429 351 490 364 q 477 282 451 317 q 529 219 503 247 q 690 138 608 138 q 729 140 713 138 q 744 134 738 142 q 750 104 750 126 q 739 51 750 78 q 701 6 728 24 q 629 -12 675 -12 q 526 24 575 -12 q 435 116 476 60 q 360 235 393 172 q 306 350 328 297 q 296 380 300 365 q 292 408 292 394 q 307 447 292 432 q 338 463 318 458 q 397 467 358 467 q 517 507 471 467 q 563 611 563 547 q 510 713 563 681 q 383 744 458 744 q 256 725 322 744 q 236 518 251 635 q 222 381 228 449 q 215 257 215 313 q 224 172 215 208 q 261 108 233 135 q 281 67 281 89 q 246 11 281 36 q 156 -14 211 -14 m 293 -446 q 263 -419 263 -446 q 293 -376 263 -400 q 336 -326 319 -354 q 353 -268 353 -299 q 348 -254 353 -260 q 326 -240 343 -249 q 299 -210 308 -229 q 290 -174 290 -192 q 315 -112 290 -139 q 386 -85 340 -85 q 453 -110 426 -85 q 479 -190 479 -135 q 441 -322 479 -262 q 360 -417 403 -381 q 324 -440 340 -435 q 293 -446 307 -446 z "},"Ṛ":{"ha":775,"x_min":60,"x_max":750,"o":"m 156 -14 q 122 -8 139 -14 q 93 18 104 -3 q 82 82 82 39 q 87 153 82 110 q 97 239 92 197 q 117 392 108 308 q 126 557 126 475 q 125 618 126 586 q 119 679 124 650 q 101 672 111 675 q 83 668 90 668 q 65 683 69 668 q 60 717 60 697 q 81 788 60 761 q 146 838 103 815 q 267 884 203 869 q 390 899 332 899 q 543 868 476 899 q 647 782 610 838 q 685 649 685 726 q 647 506 685 568 q 549 403 608 443 q 429 351 490 364 q 477 282 451 317 q 529 219 503 247 q 690 138 608 138 q 729 140 713 138 q 744 134 738 142 q 750 104 750 126 q 739 51 750 78 q 701 6 728 24 q 629 -12 675 -12 q 526 24 575 -12 q 435 116 476 60 q 360 235 393 172 q 306 350 328 297 q 296 380 300 365 q 292 408 292 394 q 307 447 292 432 q 338 463 318 458 q 397 467 358 467 q 517 507 471 467 q 563 611 563 547 q 510 713 563 681 q 383 744 458 744 q 256 725 322 744 q 236 518 251 635 q 222 381 228 449 q 215 257 215 313 q 224 172 215 208 q 261 108 233 135 q 281 67 281 89 q 246 11 281 36 q 156 -14 211 -14 m 381 -261 q 317 -239 340 -261 q 293 -178 293 -217 q 321 -107 293 -133 q 392 -81 349 -81 q 455 -102 432 -81 q 478 -164 478 -124 q 451 -233 478 -206 q 381 -261 425 -261 z "},"Ṝ":{"ha":775,"x_min":60,"x_max":750,"o":"m 217 1017 q 195 1029 204 1015 q 186 1065 186 1043 q 192 1103 186 1085 q 217 1128 199 1121 q 267 1135 229 1132 q 351 1141 304 1139 q 444 1144 399 1143 q 518 1146 489 1146 q 567 1138 550 1146 q 583 1103 583 1131 q 574 1045 583 1075 q 546 1017 565 1015 q 472 1020 517 1018 q 378 1021 426 1022 q 290 1019 339 1021 q 217 1017 242 1018 m 156 -14 q 122 -8 139 -14 q 93 18 104 -3 q 82 82 82 39 q 87 153 82 110 q 97 239 92 197 q 117 392 108 308 q 126 557 126 475 q 125 618 126 586 q 119 679 124 650 q 101 672 111 675 q 83 668 90 668 q 65 683 69 668 q 60 717 60 697 q 81 788 60 761 q 146 838 103 815 q 267 884 203 869 q 390 899 332 899 q 543 868 476 899 q 647 782 610 838 q 685 649 685 726 q 647 506 685 568 q 549 403 608 443 q 429 351 490 364 q 477 282 451 317 q 529 219 503 247 q 690 138 608 138 q 729 140 713 138 q 744 134 738 142 q 750 104 750 126 q 739 51 750 78 q 701 6 728 24 q 629 -12 675 -12 q 526 24 575 -12 q 435 116 476 60 q 360 235 393 172 q 306 350 328 297 q 296 380 300 365 q 292 408 292 394 q 307 447 292 432 q 338 463 318 458 q 397 467 358 467 q 517 507 471 467 q 563 611 563 547 q 510 713 563 681 q 383 744 458 744 q 256 725 322 744 q 236 518 251 635 q 222 381 228 449 q 215 257 215 313 q 224 172 215 208 q 261 108 233 135 q 281 67 281 89 q 246 11 281 36 q 156 -14 211 -14 m 381 -261 q 317 -239 340 -261 q 293 -178 293 -217 q 321 -107 293 -133 q 392 -81 349 -81 q 455 -102 432 -81 q 478 -164 478 -124 q 451 -233 478 -206 q 381 -261 425 -261 z "},"S":{"ha":686,"x_min":19,"x_max":636,"o":"m 272 -18 q 147 2 204 -18 q 54 58 89 22 q 19 143 19 94 q 35 199 19 175 q 76 224 50 224 q 111 211 93 224 q 201 158 146 181 q 318 135 256 135 q 452 167 400 135 q 504 256 504 200 q 456 332 504 308 q 321 376 407 356 q 198 415 257 392 q 101 481 139 439 q 63 594 63 524 q 86 702 63 649 q 156 800 110 756 q 267 872 201 844 q 414 899 332 899 q 526 885 475 899 q 606 846 576 871 q 636 785 636 821 q 621 736 636 757 q 585 703 606 715 q 549 692 564 692 q 511 704 535 692 q 424 737 472 725 q 340 749 376 749 q 230 719 272 749 q 188 649 188 689 q 241 574 188 604 q 433 511 294 544 q 581 442 528 486 q 633 304 633 399 q 588 146 633 219 q 462 27 543 72 q 272 -18 381 -18 z "},"Ś":{"ha":686,"x_min":19,"x_max":636,"o":"m 340 964 q 308 994 308 964 q 318 1025 308 1011 q 377 1116 346 1071 q 442 1193 408 1161 q 506 1225 472 1225 q 552 1204 528 1225 q 576 1154 576 1183 q 549 1096 576 1126 q 465 1031 513 1061 q 367 972 417 1000 q 340 964 353 964 m 272 -18 q 147 2 204 -18 q 54 58 89 22 q 19 143 19 94 q 35 199 19 175 q 76 224 50 224 q 111 211 93 224 q 201 158 146 181 q 318 135 256 135 q 452 167 400 135 q 504 256 504 200 q 456 332 504 308 q 321 376 407 356 q 198 415 257 392 q 101 481 139 439 q 63 594 63 524 q 86 702 63 649 q 156 800 110 756 q 267 872 201 844 q 414 899 332 899 q 526 885 475 899 q 606 846 576 871 q 636 785 636 821 q 621 736 636 757 q 585 703 606 715 q 549 692 564 692 q 511 704 535 692 q 424 737 472 725 q 340 749 376 749 q 230 719 272 749 q 188 649 188 689 q 241 574 188 604 q 433 511 294 544 q 581 442 528 486 q 633 304 633 399 q 588 146 633 219 q 462 27 543 72 q 272 -18 381 -18 z "},"Š":{"ha":686,"x_min":19,"x_max":636,"o":"m 363 964 q 328 974 344 964 q 301 993 313 983 q 264 1034 288 1007 q 217 1093 240 1061 q 182 1151 194 1125 q 174 1172 176 1163 q 171 1188 171 1182 q 181 1213 171 1203 q 206 1222 192 1222 q 232 1215 218 1222 q 270 1188 246 1207 q 322 1146 294 1168 q 371 1106 350 1124 q 457 1170 411 1138 q 524 1215 503 1203 q 551 1224 543 1224 q 573 1215 564 1224 q 582 1192 582 1206 q 578 1172 582 1183 q 567 1150 575 1161 q 525 1093 553 1125 q 470 1034 497 1061 q 428 993 443 1007 q 363 964 393 964 m 272 -18 q 147 2 204 -18 q 54 58 89 22 q 19 143 19 94 q 35 199 19 175 q 76 224 50 224 q 111 211 93 224 q 201 158 146 181 q 318 135 256 135 q 452 167 400 135 q 504 256 504 200 q 456 332 504 308 q 321 376 407 356 q 198 415 257 392 q 101 481 139 439 q 63 594 63 524 q 86 702 63 649 q 156 800 110 756 q 267 872 201 844 q 414 899 332 899 q 526 885 475 899 q 606 846 576 871 q 636 785 636 821 q 621 736 636 757 q 585 703 606 715 q 549 692 564 692 q 511 704 535 692 q 424 737 472 725 q 340 749 376 749 q 230 719 272 749 q 188 649 188 689 q 241 574 188 604 q 433 511 294 544 q 581 442 528 486 q 633 304 633 399 q 588 146 633 219 q 462 27 543 72 q 272 -18 381 -18 z "},"Ş":{"ha":686,"x_min":19,"x_max":636,"o":"m 256 -343 q 197 -328 222 -343 q 172 -285 172 -312 q 192 -264 172 -264 q 267 -247 238 -264 q 297 -197 297 -231 q 261 -147 297 -162 q 238 -132 249 -140 q 228 -114 228 -124 q 242 -86 228 -104 q 263 -56 251 -75 q 283 -18 275 -37 l 272 -18 q 147 2 204 -18 q 54 58 89 22 q 19 143 19 94 q 35 199 19 175 q 76 224 50 224 q 111 211 93 224 q 201 158 146 181 q 318 135 256 135 q 452 167 400 135 q 504 256 504 200 q 456 332 504 308 q 321 376 407 356 q 198 415 257 392 q 101 481 139 439 q 63 594 63 524 q 86 702 63 649 q 156 800 110 756 q 267 872 201 844 q 414 899 332 899 q 526 885 475 899 q 606 846 576 871 q 636 785 636 821 q 621 736 636 757 q 585 703 606 715 q 549 692 564 692 q 511 704 535 692 q 424 737 472 725 q 340 749 376 749 q 230 719 272 749 q 188 649 188 689 q 241 574 188 604 q 433 511 294 544 q 581 442 528 486 q 633 304 633 399 q 572 122 633 206 q 404 1 511 38 q 375 -35 390 -17 q 342 -71 360 -54 q 431 -169 426 -87 q 408 -256 433 -217 q 342 -319 382 -296 q 256 -343 301 -343 z "},"Ș":{"ha":686,"x_min":19,"x_max":636,"o":"m 272 -18 q 147 2 204 -18 q 54 58 89 22 q 19 143 19 94 q 35 199 19 175 q 76 224 50 224 q 111 211 93 224 q 201 158 146 181 q 318 135 256 135 q 452 167 400 135 q 504 256 504 200 q 456 332 504 308 q 321 376 407 356 q 198 415 257 392 q 101 481 139 439 q 63 594 63 524 q 86 702 63 649 q 156 800 110 756 q 267 872 201 844 q 414 899 332 899 q 526 885 475 899 q 606 846 576 871 q 636 785 636 821 q 621 736 636 757 q 585 703 606 715 q 549 692 564 692 q 511 704 535 692 q 424 737 472 725 q 340 749 376 749 q 230 719 272 749 q 188 649 188 689 q 241 574 188 604 q 433 511 294 544 q 581 442 528 486 q 633 304 633 399 q 588 146 633 219 q 462 27 543 72 q 272 -18 381 -18 m 232 -447 q 201 -421 201 -447 q 232 -378 201 -401 q 275 -328 258 -356 q 292 -269 292 -300 q 286 -256 292 -261 q 265 -242 281 -250 q 238 -212 247 -231 q 229 -175 229 -193 q 254 -113 229 -140 q 325 -86 279 -86 q 391 -111 365 -86 q 417 -192 417 -136 q 379 -323 417 -264 q 299 -418 342 -382 q 263 -442 279 -436 q 232 -447 246 -447 z "},"Ṣ":{"ha":686,"x_min":19,"x_max":636,"o":"m 272 -18 q 147 2 204 -18 q 54 58 89 22 q 19 143 19 94 q 35 199 19 175 q 76 224 50 224 q 111 211 93 224 q 201 158 146 181 q 318 135 256 135 q 452 167 400 135 q 504 256 504 200 q 456 332 504 308 q 321 376 407 356 q 198 415 257 392 q 101 481 139 439 q 63 594 63 524 q 86 702 63 649 q 156 800 110 756 q 267 872 201 844 q 414 899 332 899 q 526 885 475 899 q 606 846 576 871 q 636 785 636 821 q 621 736 636 757 q 585 703 606 715 q 549 692 564 692 q 511 704 535 692 q 424 737 472 725 q 340 749 376 749 q 230 719 272 749 q 188 649 188 689 q 241 574 188 604 q 433 511 294 544 q 581 442 528 486 q 633 304 633 399 q 588 146 633 219 q 462 27 543 72 q 272 -18 381 -18 m 313 -271 q 249 -249 272 -271 q 225 -186 225 -226 q 253 -116 225 -143 q 324 -89 281 -89 q 387 -111 364 -89 q 410 -174 410 -133 q 383 -243 410 -215 q 313 -271 357 -271 z "},"T":{"ha":681,"x_min":11,"x_max":686,"o":"m 321 -14 q 287 -8 304 -14 q 258 18 269 -3 q 247 82 247 39 q 252 157 247 113 q 265 253 257 201 q 284 399 276 322 q 292 557 292 476 q 285 670 292 622 q 269 744 279 718 q 169 738 217 743 q 74 719 122 732 q 52 716 61 718 q 35 714 43 714 q 17 719 22 714 q 11 743 11 724 q 18 792 11 767 q 39 836 25 818 q 72 865 53 856 q 113 876 90 874 q 201 884 147 881 q 320 890 256 888 q 447 893 385 893 q 592 892 549 893 q 651 888 636 890 q 678 876 671 885 q 686 847 686 867 q 653 772 686 810 q 624 747 639 756 q 583 739 608 738 q 518 743 561 742 q 422 744 475 744 q 415 631 421 696 q 400 501 408 567 q 386 374 392 438 q 381 257 381 310 q 390 172 381 208 q 426 108 399 135 q 446 67 446 89 q 411 11 446 36 q 321 -14 376 -14 z "},"Ť":{"ha":681,"x_min":11,"x_max":686,"o":"m 363 964 q 328 974 344 964 q 301 993 313 983 q 264 1034 288 1007 q 217 1093 240 1061 q 182 1151 194 1125 q 174 1172 176 1163 q 171 1188 171 1182 q 181 1213 171 1203 q 206 1222 192 1222 q 232 1215 218 1222 q 270 1188 246 1207 q 322 1146 294 1168 q 371 1106 350 1124 q 457 1170 411 1138 q 524 1215 503 1203 q 551 1224 543 1224 q 573 1215 564 1224 q 582 1192 582 1206 q 578 1172 582 1183 q 567 1150 575 1161 q 525 1093 553 1125 q 470 1034 497 1061 q 428 993 443 1007 q 363 964 393 964 m 321 -14 q 287 -8 304 -14 q 258 18 269 -3 q 247 82 247 39 q 252 157 247 113 q 265 253 257 201 q 284 399 276 322 q 292 557 292 476 q 285 670 292 622 q 269 744 279 718 q 169 738 217 743 q 74 719 122 732 q 52 716 61 718 q 35 714 43 714 q 17 719 22 714 q 11 743 11 724 q 18 792 11 767 q 39 836 25 818 q 72 865 53 856 q 113 876 90 874 q 201 884 147 881 q 320 890 256 888 q 447 893 385 893 q 592 892 549 893 q 651 888 636 890 q 678 876 671 885 q 686 847 686 867 q 653 772 686 810 q 624 747 639 756 q 583 739 608 738 q 518 743 561 742 q 422 744 475 744 q 415 631 421 696 q 400 501 408 567 q 386 374 392 438 q 381 257 381 310 q 390 172 381 208 q 426 108 399 135 q 446 67 446 89 q 411 11 446 36 q 321 -14 376 -14 z "}}}
